<?xml version="1.0" encoding="utf-8"?>
<!-- Generator: Adobe Illustrator 26.0.3, SVG Export Plug-In . SVG Version: 6.00 Build 0)  -->
<svg version="1.1" id="Camada_1" xmlns="http://www.w3.org/2000/svg" xmlns:xlink="http://www.w3.org/1999/xlink" x="0px" y="0px"
	 viewBox="0 0 608.8 342.3" style="enable-background:new 0 0 608.8 342.3;" xml:space="preserve">
<style type="text/css">
	.st0{fill:#1BB1DC;}
</style>
<g>
	<path class="st0" d="M275,179.1h-66c0.6,8.2,3.8,14.8,9.5,19.9c5.7,5.1,12.9,7.6,21.6,7.6c4.9,0,9.4-0.9,13.5-2.6
		c4.1-1.7,7.6-4.3,10.6-7.7l6,6.9c-3.5,4.2-7.9,7.4-13.1,9.6c-5.2,2.2-11,3.3-17.3,3.3c-8.1,0-15.3-1.7-21.5-5.2
		c-6.3-3.5-11.1-8.2-14.6-14.3c-3.5-6.1-5.2-13-5.2-20.7c0-7.7,1.7-14.6,5-20.7c3.3-6.1,8-10.8,13.8-14.2c5.9-3.4,12.4-5.1,19.7-5.1
		c7.3,0,13.8,1.7,19.6,5.1c5.8,3.4,10.4,8.1,13.6,14.2c3.3,6.1,5,13,5,20.8L275,179.1z M217.8,152.2c-5.2,4.9-8.1,11.2-8.8,19h56
		c-0.7-7.8-3.6-14.1-8.8-19c-5.2-4.8-11.6-7.3-19.3-7.3C229.3,144.9,223,147.3,217.8,152.2z"/>
	<path class="st0" d="M296.9,103.9h10.6v111.3h-10.6V103.9z"/>
	<path class="st0" d="M406,179.1h-66c0.6,8.2,3.8,14.8,9.5,19.9c5.7,5.1,12.9,7.6,21.6,7.6c4.9,0,9.4-0.9,13.5-2.6
		c4.1-1.7,7.6-4.3,10.6-7.7l6,6.9c-3.5,4.2-7.9,7.4-13.1,9.6c-5.2,2.2-11,3.3-17.3,3.3c-8.1,0-15.3-1.7-21.5-5.2
		c-6.3-3.5-11.1-8.2-14.6-14.3c-3.5-6.1-5.2-13-5.2-20.7c0-7.7,1.7-14.6,5-20.7c3.3-6.1,8-10.8,13.8-14.2c5.8-3.4,12.4-5.1,19.7-5.1
		c7.3,0,13.8,1.7,19.7,5.1c5.8,3.4,10.3,8.1,13.6,14.2c3.3,6.1,5,13,5,20.8L406,179.1z M348.8,152.2c-5.2,4.9-8.1,11.2-8.8,19h56
		c-0.7-7.8-3.6-14.1-8.8-19c-5.2-4.8-11.6-7.3-19.3-7.3C360.3,144.9,353.9,147.3,348.8,152.2z"/>
	<path class="st0" d="M492.7,136.3l-35.1,78.9h-11l-35-78.9h11.1l29.5,67.2l29.8-67.2H492.7z"/>
	<path class="st0" d="M556.6,143.5c5.5,5.2,8.2,12.8,8.2,22.9v48.9h-10.2v-12.3c-2.4,4.1-5.9,7.3-10.6,9.6
		c-4.7,2.3-10.2,3.5-16.6,3.5c-8.8,0-15.8-2.1-21-6.3c-5.2-4.2-7.8-9.8-7.8-16.7c0-6.7,2.4-12.1,7.3-16.2c4.8-4.1,12.6-6.1,23.2-6.1
		h25v-4.8c0-6.8-1.9-12-5.7-15.5c-3.8-3.5-9.4-5.3-16.7-5.3c-5,0-9.8,0.8-14.4,2.5c-4.6,1.6-8.5,3.9-11.9,6.8l-4.8-8
		c4-3.4,8.8-6,14.4-7.9c5.6-1.8,11.5-2.8,17.7-2.8C543.2,135.7,551.1,138.3,556.6,143.5z M544.6,203.5c4.3-2.8,7.5-6.7,9.6-11.9
		v-12.9h-24.8c-13.5,0-20.2,4.7-20.2,14.1c0,4.6,1.7,8.2,5.2,10.9c3.5,2.7,8.4,4,14.7,4C535.1,207.6,540.3,206.2,544.6,203.5z"/>
</g>
<g>
	<path d="M288,244.9c-1.1-0.6-2-1.5-2.6-2.6c-0.6-1.1-0.9-2.4-0.9-3.8c0-1.4,0.3-2.7,0.9-3.8c0.6-1.1,1.5-2,2.6-2.6
		c1.1-0.6,2.3-0.9,3.7-0.9c1.1,0,2.1,0.2,3.1,0.6c0.9,0.4,1.7,1,2.3,1.9l-0.7,0.6c-0.5-0.7-1.2-1.3-2-1.7s-1.7-0.6-2.7-0.6
		c-1.2,0-2.3,0.3-3.2,0.8c-1,0.6-1.7,1.3-2.3,2.3c-0.5,1-0.8,2.1-0.8,3.4c0,1.3,0.3,2.4,0.8,3.4s1.3,1.8,2.3,2.3s2,0.8,3.2,0.8
		c1,0,1.9-0.2,2.7-0.6c0.8-0.4,1.5-0.9,2-1.7l0.7,0.6c-0.6,0.8-1.4,1.4-2.3,1.9c-0.9,0.4-2,0.6-3.1,0.6
		C290.3,245.8,289.1,245.5,288,244.9z"/>
	<path d="M303.1,244.9c-1.1-0.6-1.9-1.5-2.6-2.6c-0.6-1.1-0.9-2.4-0.9-3.8c0-1.4,0.3-2.7,0.9-3.8c0.6-1.1,1.5-2,2.6-2.6
		c1.1-0.6,2.3-0.9,3.7-0.9c1.4,0,2.6,0.3,3.7,0.9c1.1,0.6,1.9,1.5,2.5,2.6s0.9,2.4,0.9,3.8c0,1.4-0.3,2.7-0.9,3.8s-1.5,2-2.5,2.6
		c-1.1,0.6-2.3,0.9-3.7,0.9C305.4,245.8,304.2,245.5,303.1,244.9z M309.9,244.1c0.9-0.6,1.7-1.3,2.2-2.3s0.8-2.1,0.8-3.4
		c0-1.3-0.3-2.4-0.8-3.4c-0.5-1-1.3-1.7-2.2-2.3c-0.9-0.5-2-0.8-3.2-0.8c-1.2,0-2.2,0.3-3.2,0.8c-0.9,0.6-1.7,1.3-2.2,2.3
		c-0.5,1-0.8,2.1-0.8,3.4c0,1.3,0.3,2.4,0.8,3.4s1.3,1.8,2.2,2.3c0.9,0.6,2,0.8,3.2,0.8C307.9,245,309,244.7,309.9,244.1z"/>
	<path d="M321.4,232c1-0.6,2.2-0.9,3.6-0.9v0.9h-0.3c-1.7,0-3,0.5-3.9,1.6s-1.4,2.5-1.4,4.4v7.7h-0.9v-14.5h0.9v3.5
		C319.8,233.5,320.4,232.6,321.4,232z"/>
	<path d="M332,232c1-0.6,2.2-0.9,3.6-0.9v0.9h-0.3c-1.7,0-3,0.5-3.9,1.6s-1.4,2.5-1.4,4.4v7.7H329v-14.5h0.9v3.5
		C330.4,233.5,331.1,232.6,332,232z"/>
	<path d="M351.5,238.6h-12.7c0,1.2,0.3,2.3,0.9,3.3s1.3,1.7,2.3,2.3c1,0.5,2.1,0.8,3.3,0.8c1,0,1.9-0.2,2.7-0.5
		c0.8-0.4,1.5-0.9,2.1-1.6l0.6,0.6c-0.7,0.8-1.4,1.4-2.4,1.8c-0.9,0.4-1.9,0.6-3,0.6c-1.4,0-2.7-0.3-3.8-0.9c-1.1-0.6-2-1.5-2.6-2.6
		c-0.6-1.1-1-2.4-1-3.8c0-1.4,0.3-2.7,0.9-3.8s1.4-2,2.5-2.6c1-0.6,2.2-0.9,3.5-0.9c1.3,0,2.4,0.3,3.5,0.9s1.9,1.5,2.4,2.6
		s0.9,2.4,0.9,3.8V238.6z M341.7,232.7c-0.9,0.5-1.6,1.2-2.1,2.1c-0.5,0.9-0.8,1.9-0.9,3h11.8c-0.1-1.1-0.4-2.1-0.9-3
		c-0.5-0.9-1.2-1.6-2.1-2.1s-1.8-0.8-2.9-0.8C343.6,231.9,342.6,232.2,341.7,232.7z"/>
	<path d="M362.9,244.8c-0.3,0.3-0.8,0.6-1.3,0.7s-1.1,0.3-1.6,0.3c-1.2,0-2.1-0.3-2.7-1c-0.6-0.7-1-1.6-1-2.7V232h-2.7v-0.8h2.7V228
		h0.9v3.2h4.8v0.8h-4.8v9.9c0,1,0.2,1.7,0.7,2.3s1.2,0.8,2.1,0.8s1.7-0.3,2.4-0.9L362.9,244.8z"/>
	<path d="M368.3,244.9c-1.1-0.6-1.9-1.5-2.6-2.6s-0.9-2.4-0.9-3.8c0-1.4,0.3-2.7,0.9-3.8s1.5-2,2.6-2.6c1.1-0.6,2.3-0.9,3.7-0.9
		c1.4,0,2.6,0.3,3.7,0.9c1.1,0.6,1.9,1.5,2.5,2.6s0.9,2.4,0.9,3.8c0,1.4-0.3,2.7-0.9,3.8s-1.5,2-2.5,2.6c-1.1,0.6-2.3,0.9-3.7,0.9
		C370.6,245.8,369.4,245.5,368.3,244.9z M375.1,244.1c0.9-0.6,1.7-1.3,2.2-2.3c0.5-1,0.8-2.1,0.8-3.4c0-1.3-0.3-2.4-0.8-3.4
		c-0.5-1-1.3-1.7-2.2-2.3c-0.9-0.5-2-0.8-3.2-0.8s-2.2,0.3-3.2,0.8c-0.9,0.6-1.7,1.3-2.2,2.3c-0.5,1-0.8,2.1-0.8,3.4
		c0,1.3,0.3,2.4,0.8,3.4c0.5,1,1.3,1.8,2.2,2.3c0.9,0.6,2,0.8,3.2,0.8S374.2,244.7,375.1,244.1z"/>
	<path d="M386.6,232c1-0.6,2.2-0.9,3.6-0.9v0.9H390c-1.7,0-3,0.5-3.9,1.6s-1.4,2.5-1.4,4.4v7.7h-0.9v-14.5h0.9v3.5
		C385,233.5,385.7,232.6,386.6,232z"/>
	<path d="M403,232.4c0.9,0.9,1.4,2.2,1.4,3.9v9.4h-0.9v-2.9c-0.5,0.9-1.2,1.7-2.1,2.2c-0.9,0.5-2,0.8-3.3,0.8
		c-1.6,0-2.9-0.4-3.8-1.1c-0.9-0.7-1.4-1.7-1.4-3c0-1.2,0.4-2.1,1.3-2.9s2.2-1.1,4-1.1h5.3v-1.4c0-1.4-0.4-2.5-1.1-3.3
		c-0.8-0.7-1.9-1.1-3.3-1.1c-1,0-2,0.2-2.9,0.5c-0.9,0.4-1.7,0.8-2.3,1.4l-0.5-0.7c0.7-0.7,1.6-1.2,2.6-1.6c1-0.4,2-0.6,3.2-0.6
		C400.7,231.1,402.1,231.5,403,232.4z M403.5,241.5v-3h-5.3c-1.5,0-2.6,0.3-3.3,0.9s-1,1.3-1,2.3c0,1,0.4,1.9,1.2,2.5
		s1.8,0.9,3.2,0.9C400.8,245,402.5,243.8,403.5,241.5z"/>
	<path d="M430.1,224.9v20.8h-0.9v-4c-0.5,1.3-1.4,2.3-2.5,3c-1.1,0.7-2.4,1.1-3.8,1.1c-1.3,0-2.5-0.3-3.6-0.9
		c-1.1-0.6-1.9-1.5-2.6-2.6c-0.6-1.1-0.9-2.4-0.9-3.8c0-1.4,0.3-2.7,0.9-3.8c0.6-1.1,1.5-2,2.6-2.6c1.1-0.6,2.3-0.9,3.6-0.9
		c1.4,0,2.7,0.4,3.8,1.1c1.1,0.7,1.9,1.7,2.5,2.9v-10.1H430.1z M426.2,244.1c0.9-0.6,1.7-1.3,2.2-2.3s0.8-2.1,0.8-3.4
		c0-1.3-0.3-2.4-0.8-3.4c-0.5-1-1.3-1.7-2.2-2.3c-0.9-0.5-2-0.8-3.2-0.8c-1.2,0-2.2,0.3-3.2,0.8c-0.9,0.6-1.7,1.3-2.2,2.3
		c-0.5,1-0.8,2.1-0.8,3.4c0,1.3,0.3,2.4,0.8,3.4c0.5,1,1.3,1.8,2.2,2.3s2,0.8,3.2,0.8C424.2,245,425.2,244.7,426.2,244.1z"/>
	<path d="M448.3,238.6h-12.7c0,1.2,0.3,2.3,0.9,3.3s1.3,1.7,2.3,2.3c1,0.5,2.1,0.8,3.3,0.8c1,0,1.9-0.2,2.7-0.5
		c0.8-0.4,1.5-0.9,2.1-1.6l0.6,0.6c-0.7,0.8-1.4,1.4-2.4,1.8c-0.9,0.4-1.9,0.6-3,0.6c-1.4,0-2.7-0.3-3.8-0.9c-1.1-0.6-2-1.5-2.6-2.6
		c-0.6-1.1-1-2.4-1-3.8c0-1.4,0.3-2.7,0.9-3.8s1.4-2,2.5-2.6c1-0.6,2.2-0.9,3.5-0.9c1.3,0,2.4,0.3,3.5,0.9s1.9,1.5,2.4,2.6
		s0.9,2.4,0.9,3.8V238.6z M438.6,232.7c-0.9,0.5-1.6,1.2-2.1,2.1c-0.5,0.9-0.8,1.9-0.9,3h11.8c-0.1-1.1-0.4-2.1-0.9-3
		c-0.5-0.9-1.2-1.6-2.1-2.1s-1.8-0.8-2.9-0.8C440.5,231.9,439.5,232.2,438.6,232.7z"/>
	<path d="M460.2,245.3c-1-0.4-1.8-0.8-2.4-1.4l0.4-0.7c0.6,0.5,1.4,1,2.3,1.3s1.9,0.5,3,0.5c1.6,0,2.7-0.3,3.5-0.8
		c0.7-0.5,1.1-1.3,1.1-2.2c0-0.7-0.2-1.2-0.6-1.6c-0.4-0.4-0.9-0.7-1.5-0.9s-1.4-0.4-2.4-0.6c-1.2-0.2-2.1-0.5-2.8-0.7
		s-1.3-0.6-1.8-1.1s-0.7-1.3-0.7-2.2c0-1.1,0.5-2,1.4-2.8s2.2-1.1,4-1.1c0.9,0,1.8,0.1,2.7,0.4c0.9,0.3,1.6,0.6,2.2,1.1l-0.5,0.7
		c-0.6-0.4-1.3-0.8-2-1s-1.6-0.3-2.4-0.3c-1.4,0-2.5,0.3-3.2,0.8c-0.7,0.6-1.1,1.3-1.1,2.2c0,0.7,0.2,1.3,0.6,1.7
		c0.4,0.4,0.9,0.7,1.5,0.9c0.6,0.2,1.4,0.4,2.5,0.6c1.1,0.2,2,0.4,2.7,0.7c0.7,0.2,1.3,0.6,1.8,1.1c0.5,0.5,0.7,1.2,0.7,2.1
		c0,1.2-0.5,2.1-1.4,2.8c-1,0.7-2.3,1-4.1,1C462.3,245.8,461.2,245.6,460.2,245.3z"/>
	<path d="M485.1,238.6h-12.7c0,1.2,0.3,2.3,0.9,3.3c0.6,1,1.3,1.7,2.3,2.3c1,0.5,2.1,0.8,3.3,0.8c1,0,1.9-0.2,2.7-0.5
		c0.8-0.4,1.5-0.9,2.1-1.6l0.6,0.6c-0.7,0.8-1.4,1.4-2.4,1.8c-0.9,0.4-1.9,0.6-3,0.6c-1.4,0-2.7-0.3-3.8-0.9c-1.1-0.6-2-1.5-2.6-2.6
		c-0.6-1.1-1-2.4-1-3.8c0-1.4,0.3-2.7,0.9-3.8s1.4-2,2.5-2.6c1-0.6,2.2-0.9,3.5-0.9c1.3,0,2.4,0.3,3.5,0.9s1.9,1.5,2.4,2.6
		s0.9,2.4,0.9,3.8V238.6z M475.4,232.7c-0.9,0.5-1.6,1.2-2.1,2.1c-0.5,0.9-0.8,1.9-0.9,3h11.8c-0.1-1.1-0.4-2.1-0.9-3
		c-0.5-0.9-1.2-1.6-2.1-2.1s-1.8-0.8-2.9-0.8C477.2,231.9,476.3,232.2,475.4,232.7z"/>
	<path d="M502.5,231.2v13.1c0,2.4-0.6,4.1-1.7,5.2c-1.1,1.1-2.9,1.7-5.2,1.7c-1.3,0-2.6-0.2-3.8-0.6c-1.2-0.4-2.1-1-2.8-1.7l0.5-0.7
		c0.7,0.7,1.6,1.3,2.6,1.6c1,0.4,2.1,0.6,3.3,0.6c2,0,3.5-0.5,4.5-1.4c1-1,1.5-2.5,1.5-4.5v-3.1c-0.5,1.2-1.4,2.1-2.5,2.8
		c-1.1,0.7-2.4,1-3.8,1c-1.4,0-2.6-0.3-3.7-0.9s-2-1.4-2.6-2.5s-0.9-2.3-0.9-3.7s0.3-2.6,0.9-3.7c0.6-1.1,1.5-1.9,2.6-2.5
		c1.1-0.6,2.3-0.9,3.7-0.9c1.4,0,2.7,0.3,3.9,1c1.1,0.7,2,1.6,2.5,2.9v-3.8H502.5z M498.5,243.6c1-0.5,1.7-1.3,2.3-2.2
		s0.8-2,0.8-3.2s-0.3-2.3-0.8-3.2s-1.3-1.7-2.3-2.2c-1-0.5-2-0.8-3.2-0.8s-2.3,0.3-3.2,0.8c-1,0.5-1.7,1.3-2.3,2.2
		c-0.5,0.9-0.8,2-0.8,3.2c0,1.2,0.3,2.3,0.8,3.2c0.5,0.9,1.3,1.7,2.3,2.2c1,0.5,2,0.8,3.2,0.8S497.5,244.1,498.5,243.6z"/>
	<path d="M521.1,231.2v14.5h-0.9v-3.5c-0.4,1.1-1.2,2-2.2,2.7c-1,0.6-2.2,1-3.5,1c-1.9,0-3.4-0.5-4.4-1.6c-1.1-1-1.6-2.5-1.6-4.5
		v-8.5h0.9v8.5c0,1.7,0.4,3,1.3,3.9c0.9,0.9,2.2,1.4,3.8,1.4c1.7,0,3.1-0.5,4.1-1.6c1-1.1,1.5-2.5,1.5-4.3v-7.8H521.1z"/>
	<path d="M530.3,232c1-0.6,2.2-0.9,3.6-0.9v0.9h-0.3c-1.7,0-3,0.5-3.9,1.6s-1.4,2.5-1.4,4.4v7.7h-0.9v-14.5h0.9v3.5
		C528.7,233.5,529.4,232.6,530.3,232z"/>
	<path d="M539.7,244.9c-1.1-0.6-1.9-1.5-2.6-2.6s-0.9-2.4-0.9-3.8c0-1.4,0.3-2.7,0.9-3.8s1.5-2,2.6-2.6c1.1-0.6,2.3-0.9,3.7-0.9
		c1.4,0,2.6,0.3,3.7,0.9c1.1,0.6,1.9,1.5,2.5,2.6s0.9,2.4,0.9,3.8c0,1.4-0.3,2.7-0.9,3.8s-1.5,2-2.5,2.6c-1.1,0.6-2.3,0.9-3.7,0.9
		C542,245.8,540.8,245.5,539.7,244.9z M546.5,244.1c0.9-0.6,1.7-1.3,2.2-2.3c0.5-1,0.8-2.1,0.8-3.4c0-1.3-0.3-2.4-0.8-3.4
		c-0.5-1-1.3-1.7-2.2-2.3c-0.9-0.5-2-0.8-3.2-0.8s-2.2,0.3-3.2,0.8c-0.9,0.6-1.7,1.3-2.2,2.3c-0.5,1-0.8,2.1-0.8,3.4
		c0,1.3,0.3,2.4,0.8,3.4c0.5,1,1.3,1.8,2.2,2.3c0.9,0.6,2,0.8,3.2,0.8S545.6,244.7,546.5,244.1z"/>
	<path d="M555.2,245.3c-1-0.4-1.8-0.8-2.4-1.4l0.4-0.7c0.6,0.5,1.4,1,2.3,1.3s1.9,0.5,3,0.5c1.6,0,2.7-0.3,3.5-0.8
		c0.7-0.5,1.1-1.3,1.1-2.2c0-0.7-0.2-1.2-0.6-1.6c-0.4-0.4-0.9-0.7-1.5-0.9s-1.4-0.4-2.4-0.6c-1.2-0.2-2.1-0.5-2.8-0.7
		s-1.3-0.6-1.8-1.1s-0.7-1.3-0.7-2.2c0-1.1,0.5-2,1.4-2.8s2.2-1.1,4-1.1c0.9,0,1.8,0.1,2.7,0.4c0.9,0.3,1.6,0.6,2.2,1.1l-0.5,0.7
		c-0.6-0.4-1.3-0.8-2-1s-1.6-0.3-2.4-0.3c-1.4,0-2.5,0.3-3.2,0.8c-0.7,0.6-1.1,1.3-1.1,2.2c0,0.7,0.2,1.3,0.6,1.7
		c0.4,0.4,0.9,0.7,1.5,0.9c0.6,0.2,1.4,0.4,2.5,0.6c1.1,0.2,2,0.4,2.7,0.7c0.7,0.2,1.3,0.6,1.8,1.1c0.5,0.5,0.7,1.2,0.7,2.1
		c0,1.2-0.5,2.1-1.4,2.8c-1,0.7-2.3,1-4.1,1C557.3,245.8,556.2,245.6,555.2,245.3z"/>
</g>
<path class="st0" d="M98.8,103.1c-38.1,0-68.9,30.9-68.9,68.9S60.7,241,98.8,241s68.9-30.9,68.9-68.9S136.9,103.1,98.8,103.1z
	 M113.4,215.8c-3,0-5.9-1.1-8.2-3.1l-35.6-31.4c-5.6-4.9-5.6-13.6,0-18.5l35.6-31.4c2.3-2,5.2-3.1,8.2-3.1
	c11.4,0,16.7,14.1,8.2,21.6l-14.6,12.9c-5.6,4.9-5.6,13.6,0,18.5l14.6,12.9C130.1,201.8,124.8,215.8,113.4,215.8z M124.1,180.4
	c-4.5,0-8.1-3.6-8.1-8.1c0-4.5,3.6-8.1,8.1-8.1c4.5,0,8.1,3.6,8.1,8.1C132.2,176.7,128.6,180.4,124.1,180.4z"/>
</svg>
