<?xml version="1.0" encoding="utf-8"?>
<!-- Generator: Adobe Illustrator 26.0.3, SVG Export Plug-In . SVG Version: 6.00 Build 0)  -->
<svg version="1.1" id="Camada_1" xmlns="http://www.w3.org/2000/svg" xmlns:xlink="http://www.w3.org/1999/xlink" x="0px" y="0px"
	 viewBox="0 0 200 200" style="enable-background:new 0 0 200 200;" xml:space="preserve">
<style type="text/css">
	.st0{fill:#66B0DA;}
</style>
<path class="st0" d="M99.89,31.21c-38.07,0-68.94,30.86-68.94,68.94s30.86,68.94,68.94,68.94s68.94-30.86,68.94-68.94
	S137.97,31.21,99.89,31.21z M114.48,143.9c-3,0-5.91-1.1-8.16-3.08L70.71,109.4c-5.57-4.91-5.57-13.59,0-18.5l35.62-31.41
	c2.25-1.99,5.15-3.08,8.16-3.08c11.37,0,16.68,14.07,8.16,21.59L108.01,90.9c-5.57,4.91-5.57,13.59,0,18.5l14.64,12.91
	C131.17,129.83,125.85,143.9,114.48,143.9z M125.16,108.43c-4.47,0-8.1-3.63-8.1-8.1c0-4.47,3.63-8.1,8.1-8.1
	c4.47,0,8.1,3.62,8.1,8.1C133.25,104.8,129.63,108.43,125.16,108.43z"/>
</svg>
