<?xml version="1.0" encoding="utf-8"?>
<!-- Generator: Adobe Illustrator 26.0.3, SVG Export Plug-In . SVG Version: 6.00 Build 0)  -->
<svg version="1.1" id="Camada_1" xmlns="http://www.w3.org/2000/svg" xmlns:xlink="http://www.w3.org/1999/xlink" x="0px" y="0px"
	 viewBox="0 0 1122 1122" style="enable-background:new 0 0 1122 1122;" xml:space="preserve">
<style type="text/css">
	.st0{fill:#BFBFBF;}
	.st1{fill:#E6E6E6;}
	.st2{fill:#D99C8B;}
	.st3{fill:#798F91;}
	.st4{fill:#BD897A;}
	.st5{fill:#E8A795;}
	.st6{fill:#81999C;}
	.st7{fill:#CCCCCC;}
	.st8{fill:#C26767;}
	.st9{fill:#99B5B8;}
	.st10{fill:#576573;}
	.st11{fill:#2B2B2B;}
	.st12{fill:#665046;}
	.st13{fill:#B38072;}
	.st14{fill:#C99182;}
	.st15{fill:#8DD97A;}
	.st16{fill:#583C31;}
	.st17{fill:#C2C2C2;}
	.st18{fill:#453535;}
	.st19{opacity:0.5;fill:#FFFFFF;}
	.st20{fill:#E8E8E8;}
	.st21{fill:#333C4A;}
	.st22{fill:#BD8779;}
	.st23{fill:#FFB7A4;}
	.st24{fill:#77A7FB;}
	.st25{fill:#424242;}
	.st26{fill:#454545;}
	.st27{fill:#CF6C6C;}
	.st28{fill:#B55176;}
	.st29{fill:#995050;}
	.st30{fill:#3A4C5E;}
	.st31{fill:#BC6683;}
	.st32{fill:#663F30;}
	.st33{fill:#8F4D63;}
	.st34{fill:#CC884C;}
	.st35{fill:#8A5C34;}
	.st36{fill:#E69A57;}
	.st37{fill:#BDBDBD;}
	.st38{fill:#FFFFFF;}
	.st39{fill:#946338;}
	.st40{fill:#E6C6AA;}
	.st41{fill:#A66F3F;}
	.st42{fill:#FFA6FC;}
	.st43{fill:#CF8A4E;}
	.st44{fill:#593C22;}
	.st45{fill:#6E785F;}
	.st46{fill:#B2C98F;}
	.st47{fill:#3B3D35;}
	.st48{fill:#5D694A;}
	.st49{fill:#8C9E70;}
	.st50{fill:#424C57;}
	.st51{fill:#9E9E9E;}
	.st52{fill:#47403E;}
	.st53{fill:#5F9653;}
	.st54{fill:#BADBAC;}
	.st55{fill:#6B6B6B;}
	.st56{fill:#B0B0B0;}
	.st57{fill:#91713A;}
	.st58{fill:#F3BB61;}
	.st59{fill:#333333;}
	.st60{fill:#242424;}
	.st61{fill:#696969;}
	.st62{fill:#E57368;}
	.st63{fill:#6A90D9;}
	.st64{fill:#C8D3E8;}
	.st65{fill:#9C9C9C;}
	.st66{fill:#943E3E;}
	.st67{fill:#BD7070;}
	.st68{fill:#824747;}
	.st69{fill:#5E828F;}
	.st70{fill:#405861;}
	.st71{fill:#C7C7C7;}
	.st72{fill:#A6A6A6;}
	.st73{fill:#878787;}
	.st74{fill:#6E6E6E;}
	.st75{fill:#A1A1A1;}
	.st76{fill:#C9C9C9;}
	.st77{fill:#3B4F54;}
	.st78{fill:#737373;}
	.st79{fill:#4D4D4D;}
	.st80{fill:#E36055;}
	.st81{fill:#A35C5C;}
	.st82{fill:#445F8F;}
	.st83{fill:#FF905E;}
	.st84{fill:#C4564A;}
	.st85{fill:#D45353;}
	.st86{fill:#D1FFF4;}
	.st87{fill:#89695E;}
	.st88{fill:#385757;}
	.st89{fill:#876456;}
	.st90{fill:#FFA682;}
	.st91{fill:#ABA4A1;}
	.st92{fill:#8C8C8C;}
	.st93{fill:#CC655C;}
	.st94{fill:#404040;}
	.st95{fill:#808080;}
	.st96{fill:#FDE3A7;}
	.st97{fill:#96281B;}
	.st98{fill:#71AB95;}
	.st99{fill:#5B8A78;}
	.st100{fill:#795547;}
	.st101{fill:#77B05F;}
	.st102{fill:#5E5E5E;}
	.st103{fill:#7D645A;}
	.st104{fill:#4E667A;}
	.st105{fill:#E0895E;}
	.st106{fill:#BABABA;}
	.st107{fill:#5B86C2;}
	.st108{fill:#5675B0;}
	.st109{fill:#EB5C50;}
	.st110{fill:#DC9061;}
	.st111{fill:#EBB052;}
</style>
<g>
	<path class="st0" d="M210.2,888.3c0,16.7,218.8,30.2,397.2,30.2S1047,905,1047,888.3c0-16.7-261.2-30.2-439.6-30.2
		S210.2,871.6,210.2,888.3z"/>
	<g>
		<path class="st1" d="M778.8,868.6c0,0,18.7,6.7,19.4,7.6c0.7,0.9,0,3.6,0,3.6h-30.4v-11.1H778.8z"/>
		<path class="st1" d="M756.7,868.6c0,0-18.7,6.7-19.4,7.6c-0.7,0.9,0,3.6,0,3.6h30.4v-11.1H756.7z"/>
		<polygon class="st2" points="745.7,736.7 756.7,868.6 767.8,868.6 778.8,868.6 790.3,737.7 793.4,702.5 742.5,702.5 		"/>
		<polygon class="st3" points="733.2,732.8 728,809.4 811.3,809.4 803.9,731.5 793.4,702.5 742.5,702.5 		"/>
		<g>
			<g>
				<rect x="760.6" y="601.7" class="st4" width="14.7" height="21"/>
			</g>
		</g>
		<g>
			<path class="st5" d="M731.3,730.1c0,0,1.2-0.5,1.5-2.1c0.3-1.7-2.9-4.5-2.9-4.5l3.2-41.8l6.5-17l-14.8,0.7l-2.1,16.9l-0.4,41.2
				c-0.2,4-3.3,8.1-2.8,10.4c1.8,2.4,4.8,7.2,7.2,7.2c2.6-1.1,6-3.1,7.3-6.7C733.5,732.2,731.3,730.1,731.3,730.1z"/>
			<polygon class="st4" points="736.8,672.1 739.6,664.7 724.8,665.4 724.4,668 			"/>
			<path class="st6" d="M740.3,619c-6.8,0.5-16.5,47.5-16.5,47.5l14.9,3.3l8.5-27C747.1,642.8,744.7,618.9,740.3,619z"/>
		</g>
		<g>
			<path class="st5" d="M804.1,730.1c0,0-1.2-0.5-1.5-2.1c-0.3-1.7,2.9-4.5,2.9-4.5s0.1,0,0.3,0l-4.2-43.1l-4.2-13.4l12.7-2.3
				l2.8,15.1l0.1,43.7c0.2,4,3.3,8.1,2.8,10.4c-1.8,2.4-4.8,7.2-7.2,7.2c-2.6-1.1-6-3.1-7.3-6.7
				C801.9,732.2,804.1,730.1,804.1,730.1z"/>
			<polygon class="st4" points="798.4,669.8 797.5,667 810.3,664.7 810.9,668 			"/>
			<path class="st6" d="M795.1,619c6.8,0.5,16.1,45.9,16.1,45.9l-14.6,3.1l-8.3-25.2C788.3,642.8,790.7,618.9,795.1,619z"/>
		</g>
		<g>
			<path class="st5" d="M752.2,593.2c-2.4,0.5-4.8-1.3-5.4-4c-0.6-2.7,0.9-5.3,3.4-5.8C752.6,582.9,754.6,592.7,752.2,593.2z"/>
		</g>
		<g>
			<path class="st5" d="M783.4,593.2c2.4,0.5,4.8-1.3,5.4-4c0.6-2.7-0.9-5.3-3.4-5.8C783,582.9,780.9,592.7,783.4,593.2z"/>
		</g>
		<g>
			<g>
				<path class="st5" d="M767.9,611.2c23.9-9.9,16.9-34.4,16.9-34.4s-0.8-11.3-16.4-11.3c-13.6,0-17,11.6-17,11.6
					S744.9,602.2,767.9,611.2z"/>
			</g>
		</g>
		<path class="st7" d="M749.2,583.7c1.6-0.4,3.4,2.8,3.4,2.8l0.7-11.9c0,0,8.9,11.7,26.7,8.8c-3.3-7.7,2.3-8.9,2.3-8.9
			s1.4,13.1,1.4,12.5c0.9-3.4,3.3-3,3.3-3s5.1-24-18.9-24C744,560.1,749.2,583,749.2,583.7z"/>
		<path class="st8" d="M767.8,604.4c2.7,0,4.8-1.8,4.8-2.3c0-0.4-2.7-1.8-3.4-1.8c-0.7,0-1.1,0.7-1.4,0.7c-0.3,0-0.8-0.7-1.4-0.7
			c-0.7,0-3.4,1.4-3.4,1.8C763,602.5,765,604.4,767.8,604.4z"/>
		<path class="st9" d="M742.3,696.6l-5.3,16.2h62.3l-6.1-18.2c0,0-3.3-21.3-2.9-43.1c2.3-2.8,3.6-6,3.6-9.5c0-2.8-0.8-5.4-2.3-7.7
			c0.8-5.6,2-10.8,3.8-15.3c-1.2-0.9-17.4-5.2-18-5.3h0c-0.5-0.1-1-0.4-1.4,0l-7.3,8.5c-0.3,0.3-0.6,0.4-1,0.5
			c-0.4-0.1-0.7-0.2-1-0.5l-7.3-8.5c-0.4-0.4-0.8-0.1-1.4,0h0c-0.6,0.1-16.8,4.4-18,5.3c1.5,5,2.6,10.2,3.4,15.5
			c-1.4,2.3-2.1,4.8-2.1,7.4c0,3.5,1.3,6.7,3.6,9.5C746,675.3,742.3,696.6,742.3,696.6z"/>
		<g>
			<circle class="st10" cx="768.1" cy="626.7" r="1.6"/>
			<path class="st10" d="M775.6,625.6c0,0.9-0.7,1.6-1.6,1.6s-1.6-0.7-1.6-1.6c0-0.9,0.7-1.6,1.6-1.6S775.6,624.7,775.6,625.6z"/>
			<path class="st10" d="M779.7,621.4c0,0.9-0.7,1.6-1.6,1.6c-0.9,0-1.6-0.7-1.6-1.6s0.7-1.6,1.6-1.6
				C779,619.8,779.7,620.5,779.7,621.4z"/>
			<path class="st10" d="M781.5,616.4c0,0.9-0.7,1.6-1.6,1.6c-0.9,0-1.6-0.7-1.6-1.6c0-0.9,0.7-1.6,1.6-1.6
				C780.8,614.8,781.5,615.5,781.5,616.4z"/>
			<path class="st10" d="M760.7,625.6c0,0.9,0.7,1.6,1.6,1.6c0.9,0,1.6-0.7,1.6-1.6c0-0.9-0.7-1.6-1.6-1.6
				C761.4,624,760.7,624.7,760.7,625.6z"/>
			<circle class="st10" cx="758.3" cy="621.4" r="1.6"/>
			<path class="st10" d="M754.7,616.4c0,0.9,0.7,1.6,1.6,1.6c0.9,0,1.6-0.7,1.6-1.6c0-0.9-0.7-1.6-1.6-1.6
				C755.5,614.8,754.7,615.5,754.7,616.4z"/>
			<path class="st10" d="M768.2,627.1c-11.4,0-12.8-12.5-12.8-12.6c0-0.2,0.1-0.4,0.3-0.4c0.2,0,0.4,0.1,0.4,0.3
				c0,0.5,1.3,12,12.1,12c10.8,0,11.7-11.9,11.7-12c0-0.2,0.2-0.4,0.4-0.3c0.2,0,0.3,0.2,0.3,0.4
				C780.6,614.6,779.6,627.1,768.2,627.1z"/>
		</g>
	</g>
	<g>
		<path class="st11" d="M524.9,866.3c0,0,20.3,9,21.2,10.2c1,1.2,0,4.9,0,4.9h-44v-15.1H524.9z"/>
		<path class="st11" d="M479.3,866.3c0,0-20.3,9-21.2,10.2c-1,1.2,0,4.9,0,4.9h44v-15.1H479.3z"/>
		<polygon class="st12" points="468.3,720.8 478.6,866.3 502.1,866.3 524.9,866.3 535.9,720.8 529.7,687.9 475,687.9 		"/>
		<rect x="494.4" y="585.7" class="st13" width="16.1" height="28.1"/>
		<g>
			<path class="st2" d="M465.1,728.7c0,0,1.4-0.6,1.8-2.5c0.4-2-3.5-5.2-3.5-5.2s-0.2,0-0.4,0h0.5l0.9-42.9v-8.8l3.1-20.4l-13.6-3.2
				l-3.4,25.2l3.8,50.1c-0.3,4.7-3.8,9.6-3.3,12.3c2.1,2.8,5.6,8.5,8.5,8.5c3-1.4,7-3.7,8.6-7.8
				C467.7,731.2,465.1,728.7,465.1,728.7z"/>
			<polygon class="st14" points="467.6,648.8 465,665.6 451.7,662.5 454,645.6 			"/>
		</g>
		<g>
			<path class="st2" d="M540,730.4c0,0-1.4-0.6-1.8-2.5c-0.4-2,3.5-5.3,3.5-5.3s0.1,0,0.4,0l-0.5,0l-0.9-42.9v-8.8l-3.1-20.4
				l13.6-3.2l3.4,25.2l-3.8,50.1c0.3,4.7,3.8,9.6,3.3,12.3c-2.1,2.8-5.6,8.4-8.5,8.4c-3-1.3-7-3.7-8.6-7.8
				C537.4,732.9,540,730.4,540,730.4z"/>
			<polygon class="st14" points="537.5,650.5 540,667.3 553.4,664.2 551.1,647.3 			"/>
		</g>
		<path class="st15" d="M550.4,638c-0.1-17.5-6.4-25.7-6.4-25.7c-0.6-6-33.1-11.4-33.4-11l-8.1,10.7l-8.1-10.7
			c-0.4-0.4-32.8,5-33.4,11c0,0-3.5,7.3-6.4,25.7l0,0l0,0.1c0,0.1,0,0.1,0,0.2h0l-3.9,20.9l17.7,4.1l2.5-25h0.1l-0.2,74.7l63.6,2.6
			l-0.2-77.4h0.1l3.8,27.3l15.7-2.8L550.4,638z"/>
		<path class="st16" d="M544,612.3c-1.1-6.9-33.1-11.4-33.4-11c0,0,5.8,13.1-8.1,13.1c-13.8,0-8.1-13.1-8.1-13.1
			c-0.4-0.4-32.7,4.1-33.4,11l9.8,26h0.1l-1.4,76.7l65.6,1.2l-1-77.9h0.1L544,612.3z"/>
		<path class="st17" d="M482.4,565.9c-3,5.8,3.8,25.8,8.5,25.8c4.7,0,18.1,0,22.7,0c4.7,0,12.9-21.5,8.7-25.7
			c-5.2-3.6-18.3-8-18.3-8S486.3,562.5,482.4,565.9z"/>
		<g>
			<path class="st2" d="M484.8,577.5c-2.7,0.6-5.4-1.4-6-4.4c-0.6-3,1.1-5.9,3.8-6.5C485.3,566,487.5,576.9,484.8,577.5z"/>
		</g>
		<g>
			<path class="st2" d="M519.5,577.5c2.7,0.6,5.4-1.4,6-4.4c0.6-3-1-5.9-3.7-6.5C519.1,566,516.8,576.9,519.5,577.5z"/>
		</g>
		<path class="st2" d="M502.3,597.5c21,0,18.7-38.3,18.7-38.3s-0.9-12.6-18.3-12.6c-15.1,0-18.8,12.9-18.8,12.9
			S481.6,597.5,502.3,597.5z"/>
		<path class="st17" d="M481.5,566.9c1.8-0.4,3.8,3.1,3.8,3.1s0.1-12,0.8-13.3c5.4-11.7,12.7,8,25.1-4.2c5.9-2.4,7.1,4.2,7.1,4.2
			s1.6,14.5,1.5,14c1-3.7,3.6-3.3,3.6-3.3s5.7-26.7-21-26.7C475.8,540.6,481.5,566.2,481.5,566.9z"/>
		<g>
			<path class="st0" d="M502.5,583.8c-1.1,1.7-8.9,1.8-8.9,1.8l0.3-1.1c0.6-2.1,2.6-3.6,4.8-3.6l3.7-0.1L502.5,583.8z"/>
			<path class="st0" d="M502.5,583.8c1.1,1.7,8.9,1.5,8.9,1.5l-0.4-1.1c-0.7-2.1-2.7-3.5-4.9-3.5l-3.7,0.1L502.5,583.8z"/>
		</g>
		<g>
			<g>
				<path class="st18" d="M500.8,564.9c-0.9-1.3-14.1-0.1-14.8,1.6c-0.7,1.6,0.3,4.6,0.3,4.6l0,0c-0.1-1.3,0-2.5,0.2-3
					c0.8-2,12.1-2.9,13.8-1.7c0.6,0.4,0.8,2.3,0.3,4.5h0C500.6,570.9,502.6,567.5,500.8,564.9z"/>
				<path class="st19" d="M500.3,566.4c-1.7-1.2-13-0.3-13.8,1.7c-0.2,0.5-0.3,1.6-0.2,3c0.2,2.7,1.2,6.2,4.1,7
					c6.4,1.1,9.3-3.4,10.2-7.2C501.1,568.7,500.9,566.8,500.3,566.4z"/>
			</g>
			<path class="st20" d="M501.5,571.9c-0.2,0.7-0.6,1.2-1,1.1c-0.4-0.1-0.5-0.7-0.4-1.4c0.2-0.7,0.6-1.2,1-1.1
				C501.5,570.5,501.7,571.1,501.5,571.9z"/>
			<polygon class="st18" points="486,569.4 484.6,569.3 484.4,567.7 485.9,567.2 			"/>
			<g>
				<path class="st18" d="M519,566.5c-0.7-1.6-13.9-2.9-14.8-1.6c-1.8,2.6,0.1,6,0.1,6h0c-0.5-2.2-0.3-4,0.3-4.5
					c1.7-1.2,13-0.2,13.8,1.7c0.2,0.5,0.3,1.6,0.2,3l0,0C518.7,571.1,519.7,568.2,519,566.5z"/>
				<path class="st19" d="M518.4,568.2c-0.8-2-12.1-2.9-13.8-1.7c-0.6,0.4-0.8,2.3-0.3,4.5c0.9,3.8,3.8,8.3,10.1,7.2
					c2.9-0.8,3.9-4.3,4.1-7C518.7,569.8,518.6,568.6,518.4,568.2z"/>
			</g>
			<path class="st20" d="M503.4,571.8c0.2,0.7,0.6,1.2,1,1.1c0.4-0.1,0.5-0.7,0.4-1.4c-0.2-0.7-0.6-1.2-1-1.1
				C503.4,570.5,503.3,571.1,503.4,571.8z"/>
			<polygon class="st18" points="519,569.5 520.4,569.4 520.5,567.8 519.1,567.2 			"/>
			
				<rect x="502" y="567.8" transform="matrix(2.843321e-03 -1 1 2.843321e-03 -68.1614 1070.1239)" class="st18" width="1.1" height="3"/>
			
				<rect x="501.6" y="565.9" transform="matrix(2.748544e-03 -1 1 2.748544e-03 -66.2052 1068.285)" class="st18" width="1.9" height="3"/>
		</g>
	</g>
	<g>
		<path class="st11" d="M598.7,863.4c0,0,22,9.8,23,11.1c1,1.3,0,5.3,0,5.3H574v-16.4H598.7z"/>
		<path class="st11" d="M549.2,863.4c0,0-22,9.8-23,11.1c-1,1.3,0,5.3,0,5.3H574v-16.4H549.2z"/>
		<polygon class="st21" points="537.2,705.3 548.4,863.4 574,863.4 598.7,863.4 610.7,705.3 603.9,669.6 544.5,669.6 		"/>
		<rect x="566.5" y="558.5" class="st22" width="15.4" height="32.1"/>
		<g>
			<path class="st23" d="M533.8,713.9c0,0,1.6-0.6,2-2.7c0.4-2.1-3.8-5.7-3.8-5.7s-0.2,0-0.4,0h0.6l1-46.6v-9.6l3.4-22.2l-14.8-3.5
				l-3.7,27.3l4.1,54.4c-0.3,5.2-4.2,10.4-3.5,13.3c2.3,3.1,6.1,9.2,9.3,9.2c3.3-1.5,7.6-4,9.3-8.5
				C536.5,716.6,533.8,713.9,533.8,713.9z"/>
			<polygon class="st14" points="536.4,627.1 533.7,645.3 519.2,642 521.7,623.6 			"/>
		</g>
		<g>
			<path class="st23" d="M615.1,715.7c0,0-1.6-0.6-2-2.7c-0.4-2.1,3.8-5.7,3.8-5.7s0.2,0,0.4,0l-0.6,0l-1-46.6v-9.6l-3.4-22.2
				l14.8-3.5l3.7,27.3l-4.1,54.4c0.3,5.2,4.2,10.4,3.5,13.3c-2.3,3.1-6.1,9.2-9.3,9.2c-3.3-1.5-7.6-4-9.3-8.5
				C612.3,718.4,615.1,715.7,615.1,715.7z"/>
			<polygon class="st14" points="612.4,628.9 615.2,647.2 629.6,643.8 627.1,625.5 			"/>
		</g>
		<path class="st24" d="M626.4,615.3c-0.2-19-7-27.9-7-27.9c-0.7-6.5-35.9-12.4-36.3-12l-8.7,11.7l-8.7-11.7
			c-0.4-0.4-35.7,5.4-36.3,12c0,0-3.8,7.9-7,28l0,0l0,0.1c0,0.1,0,0.1,0,0.2h0l-4.3,22.7l19.2,4.4l2.7-27.1h0.1l-1.1,81.1l71.6,2.9
			l-1.9-84h0.1l4.1,29.6l17-3L626.4,615.3z"/>
		<path class="st12" d="M552.5,534.2c-3.3,6.3,4.1,28.1,9.2,28.1c5.2,0,19.6,0,24.7,0c5.1,0,14-23.3,9.4-27.9
			c-5.7-3.9-19.9-8.7-19.9-8.7S556.8,530.5,552.5,534.2z"/>
		<g>
			<path class="st23" d="M555.2,546.8c-2.9,0.6-5.8-1.6-6.5-4.8c-0.7-3.3,1.2-6.4,4.1-7C555.6,534.4,558.1,546.2,555.2,546.8z"/>
		</g>
		<g>
			<path class="st23" d="M592.8,546.8c2.9,0.6,5.9-1.6,6.5-4.8c0.7-3.3-1.1-6.4-4.1-7C592.4,534.4,589.9,546.2,592.8,546.8z"/>
		</g>
		<path class="st23" d="M574.2,568.5c22.8,0,20.4-41.6,20.4-41.6s-1-13.6-19.8-13.6c-16.4,0-20.5,14-20.5,14
			S551.7,568.5,574.2,568.5z"/>
		<path class="st12" d="M551.6,535.3c2-0.4,4.1,3.3,4.1,3.3l0.8-14.4c0,0,23.4,4.4,27.3-4.6c6.4-2.6,7.7,4.6,7.7,4.6
			s1.7,15.8,1.7,15.2c1-4,3.9-3.6,3.9-3.6s6.2-29-22.8-29C545.4,506.8,551.5,534.5,551.6,535.3z"/>
	</g>
	<g>
		<path class="st1" d="M715.5,867.7c0,0,16.2,7.2,16.9,8.2c0.8,1,0,3.8,0,3.8h-35.1v-12H715.5z"/>
		<path class="st1" d="M679.1,867.7c0,0-16.2,7.2-16.9,8.2c-0.8,1,0,3.8,0,3.8h35.1v-12H679.1z"/>
		<polygon class="st25" points="660,721.2 679.1,867.7 697.3,867.7 715.5,867.7 736.3,719.8 725,688.5 670.1,688.5 		"/>
		<path class="st26" d="M675.2,554.7c-3.4,6.4,7.7,26.6,0,35c5.3,0,21.3,9.4,46.5-1c-9-6.3,2.9-29-1.8-33.8
			c-5.8-4-20.4-8.9-20.4-8.9S679.6,550.9,675.2,554.7z"/>
		<g>
			<g>
				<rect x="689.6" y="579.7" class="st22" width="15.8" height="22.7"/>
			</g>
		</g>
		<g>
			<path class="st23" d="M658,718.3c0,0,1.3-0.5,1.7-2.3c0.3-1.8-3.2-4.8-3.2-4.8s-0.1,0-0.4,0h0.5l-8.4-0.1
				c-0.2,4.3-3.5,8.8-3,11.2c1.9,2.6,5.2,7.7,7.8,7.7c2.8-1.2,6.4-3.4,7.9-7.2C660.3,720.6,658,718.3,658,718.3z"/>
			<path class="st27" d="M667.7,598.5c-7.3,0.6-20.2,70.5-20.2,70.5l-2.3,46.2l14.9,0.2l0-43.7l15-47.6
				C675,624.2,672.4,598.3,667.7,598.5z"/>
		</g>
		<g>
			<path class="st23" d="M736.5,718.3c0,0-1.3-0.5-1.7-2.3c-0.3-1.8,3.2-4.8,3.2-4.8s0.1,0,0.4,0h-0.5l8.4-0.1
				c0.2,4.3,3.5,8.8,3,11.2c-1.9,2.6-5.1,7.7-7.8,7.7c-2.8-1.2-6.4-3.4-7.9-7.2C734.1,720.6,736.5,718.3,736.5,718.3z"/>
			<path class="st27" d="M726.8,598.5C734.1,599,747,669,747,669l2.3,46.2l-14.9,0.2l0-43.7l-15-47.6
				C719.4,624.2,722.1,598.3,726.8,598.5z"/>
		</g>
		<g>
			<path class="st23" d="M677.9,567.7c-3,0.6-6-1.6-6.7-5c-0.7-3.4,1.2-6.6,4.2-7.2C678.4,554.9,680.9,567.1,677.9,567.7z"/>
		</g>
		<g>
			<path class="st23" d="M716.7,567.7c3,0.6,6-1.6,6.7-5c0.7-3.4-1.2-6.6-4.2-7.2C716.2,554.9,713.7,567.1,716.7,567.7z"/>
		</g>
		<g>
			<g>
				<path class="st23" d="M697.5,590.1c29.7-12.3,21-42.8,21-42.8s-1-14-20.4-14c-16.9,0-21.1,14.4-21.1,14.4
					S668.9,578.9,697.5,590.1z"/>
			</g>
		</g>
		<path class="st26" d="M674.2,555.9c2-0.4,4.2,3.4,4.2,3.4l0.8-14.8c0,0,11.1,14.5,33.2,11c-4.1-9.5,2.9-11,2.9-11
			s1.8,16.2,1.7,15.6c1.1-4.2,4-3.8,4-3.8s6.4-29.8-23.5-29.8C667.8,526.5,674.2,555,674.2,555.9z"/>
		<path class="st28" d="M697.3,581.6c3.4,0,6-2.3,6-2.8c0-0.6-3.4-2.2-4.2-2.2c-0.8,0-1.4,0.9-1.7,0.9c-0.4,0-0.9-0.9-1.8-0.9
			c-0.8,0-4.2,1.7-4.2,2.2C691.3,579.3,693.9,581.6,697.3,581.6z"/>
		<path class="st29" d="M669.8,682.2l-5.8,17.5h67.2l-6.5-19.6c0,0-3.6-23-3.1-46.5c2.5-3,3.9-6.5,3.9-10.2c0-3-0.9-5.8-2.5-8.3
			c0.9-6.1,2.2-11.7,4.1-16.5c-1.3-0.9-18.8-5.6-19.4-5.7h0c-0.6-0.1-1.1-0.4-1.5,0l-7.8,9.2c-0.3,0.3-0.7,0.5-1,0.5
			c-0.4-0.1-0.8-0.2-1-0.5l-7.8-9.2c-0.4-0.4-0.9-0.1-1.5,0h0c-0.6,0.1-18.1,4.8-19.4,5.7c1.6,5.4,2.8,11,3.7,16.8
			c-1.5,2.5-2.3,5.2-2.3,8c0,3.8,1.4,7.2,3.9,10.2C673.9,659.2,669.8,682.2,669.8,682.2z"/>
	</g>
	<g>
		<path class="st24" d="M661.3,876c0,0,16.6,6.6,17.4,7.5c0.8,0.9,0,3.5,0,3.5h-36.1v-11H661.3z"/>
		<path class="st24" d="M623.9,876c0,0-16.6,6.6-17.4,7.5c-0.8,0.9,0,3.5,0,3.5h36.1v-11H623.9z"/>
		<polygon class="st30" points="614.9,769.8 615.5,819.6 643.3,819.8 671.7,820.1 670.4,769.8 665.2,745.8 620.4,745.8 		"/>
		<rect x="637" y="671.1" class="st22" width="11.6" height="18.9"/>
		<g>
			<path class="st23" d="M612.3,775.5c0,0,1.2-0.4,1.5-1.8c0.3-1.4-2.8-3.8-2.8-3.8s-0.1,0-0.3,0h0.4l0.7-31.3v-6.5l2.6-14.9
				l-11.2-2.3l-2.8,18.4l3.1,36.6c-0.2,3.5-3.1,7-2.7,9c1.7,2.1,4.6,6.2,7,6.2c2.5-1,5.8-2.7,7.1-5.7
				C614.4,777.4,612.3,775.5,612.3,775.5z"/>
			<polygon class="st14" points="614.3,717.2 612.2,729.5 601.3,727.2 603.1,714.9 			"/>
		</g>
		<g>
			<path class="st23" d="M673.7,776.8c0,0-1.2-0.4-1.5-1.8c-0.3-1.4,2.8-3.8,2.8-3.8s0.1,0,0.3,0l-0.4,0l-0.7-31.3v-6.5l-2.6-14.9
				l11.2-2.3l2.8,18.4l-3.1,36.6c0.2,3.5,3.2,7,2.7,9c-1.7,2.1-4.6,6.2-7,6.2c-2.5-1-5.8-2.7-7.1-5.7
				C671.6,778.6,673.7,776.8,673.7,776.8z"/>
			<polygon class="st14" points="671.7,718.5 673.8,730.7 684.7,728.5 682.8,716.1 			"/>
		</g>
		<path class="st31" d="M682.3,709.3c-0.1-12.8-8.2-18.7-8.2-18.7c-0.5-4.4-24.3-8.3-24.6-8l-6.6,7.8l-6.6-7.8
			c-0.3-0.3-24.2,3.6-24.7,8c0,0-5.6,5.3-8,18.8l0,0l0,0c0,0,0,0.1,0,0.1h0l-3.2,15.3l15.5,3.7l2.5-19l-2.2,54.5l54.1,2l-3.1-57.1
			l3.8,20.5l13.8-2L682.3,709.3z"/>
		<path class="st32" d="M622.2,648.5c-3.1,5.5,3.9,24.5,8.8,24.5c4.9,0,18.6,0,23.5,0c4.9,0,13.3-20.3,9-24.3
			c-5.4-3.4-18.9-7.6-18.9-7.6S626.3,645.3,622.2,648.5z"/>
		<g>
			<path class="st23" d="M624.8,659.5c-2.8,0.5-5.6-1.4-6.2-4.2c-0.6-2.9,1.1-5.6,3.9-6.1C625.2,648.6,627.6,659,624.8,659.5z"/>
		</g>
		<g>
			<path class="st23" d="M660.6,659.5c2.8,0.5,5.6-1.4,6.2-4.2c0.7-2.9-1.1-5.6-3.9-6.1C660.1,648.6,657.8,659,660.6,659.5z"/>
		</g>
		<path class="st23" d="M642.8,678.4c21.7,0,19.3-36.3,19.3-36.3s-0.9-11.9-18.9-11.9c-15.6,0-19.5,12.2-19.5,12.2
			S621.5,678.4,642.8,678.4z"/>
		<path class="st32" d="M621.4,649.5c1.9-0.4,3.9,2.9,3.9,2.9l0.8-12.6c0,0,4.2,3.1,9.2,3.3c-0.8-2.8-0.8-5.3-0.8-5.3
			c1.8,2,7.4,3.8,10.9,4.6c-1.6-4,3.8-3.3,7.8-0.3c-1.7-3-2.5-3.4-0.8-4.4c3-1,3.2,1,3.2,1c2.2-2.1,3.9,1,3.9,1s1.6,13.7,1.6,13.2
			c1-3.5,3.7-3.2,3.7-3.2s5.9-25.2-21.6-25.2c-2.9,0-5.4,0.3-7.6,0.7l-1.3-2.9l-1.7,3.7l-5.7-3.2l0.8,5.8
			C618.1,635.6,621.3,649,621.4,649.5z"/>
		<rect x="647" y="707.3" class="st1" width="15.4" height="3.8"/>
		<polygon class="st33" points="662.3,723.4 654.7,726.6 647,723.4 647,711.1 662.3,711.1 		"/>
		<polygon class="st23" points="640.6,876 625.8,876 621.2,819.7 640.6,819.8 		"/>
		<polygon class="st23" points="644.5,876 659.4,876 663.8,820 644.5,819.8 		"/>
	</g>
</g>
<g>
	<g>
		<path class="st34" d="M699.7,898c-12.6,0-22.3-3.5-28.1-10c-3.6-4.1-5.6-8.8-6-15c0,0.2,0,0,0,0l-5.5,0.3
			c0.6,7.2,3.1,13.4,7.4,18.3c6.9,7.8,18,11.9,32.3,11.9c1.5,0,2.8-1.2,2.8-2.8C702.5,899.3,701.3,898,699.7,898z"/>
		<path class="st35" d="M665.6,872.4c-0.1-0.9-0.1-1.7-0.1-2.6c0-0.4,0-0.8,0-1.2c0-1.3,0.1-2.6,0.3-4c0.2-1.5-0.9-2.9-2.4-3.1
			c-1.6-0.2-2.9,0.9-3.1,2.4c-0.2,1.5-0.3,3-0.4,4.5c0,0.5,0,0.9,0,1.4c0,1,0,2,0.1,2.9c0,0.2,0,0.4,0,0.6l0,0l5.5-0.3
			C665.6,872.8,665.6,872.6,665.6,872.4z"/>
	</g>
	<path class="st36" d="M730.8,906.6H707c-18.1,0-30.5-19.8-23.7-37.9l11.9-31.8c8.6-23,38.8-23,47.5,0l11.9,31.8
		C761.3,886.8,748.9,906.6,730.8,906.6z"/>
	<ellipse class="st37" cx="719.3" cy="853.8" rx="3.9" ry="2.3"/>
	<path class="st38" d="M719.3,851.7c0,0,4.1,3.9,8.4,2.7c7.3-1.9,4.5-10.4,4.5-10.4l-12.9,2.5V851.7z"/>
	<path class="st38" d="M719.3,851.7c0,0-4.1,3.9-8.4,2.7c-7.3-1.9-4.5-9.6-4.5-9.6l12.9,1.7V851.7z"/>
	<path class="st39" d="M735,839.2c0,4.9-7.4,8.9-16.4,8.9c-9.1,0-16.4-4-16.4-8.9c0-4.9,7.4-8.9,16.4-8.9
		C727.7,830.3,735,834.3,735,839.2z"/>
	<path class="st40" d="M741.2,890.5c0,6.3-2.8,12-7.3,16c-3,1.3-28.4,1.2-29.8,0.2c-4.6-4-7.5-9.7-7.5-16.1
		c0-11.9,10-21.6,22.3-21.6C731.2,868.9,741.2,878.6,741.2,890.5z"/>
	<path class="st38" d="M730.1,839.2c0,2.4-1.3,4.4-2.8,4.4c-1.5,0-2.8-2-2.8-4.4s1.3-4.4,2.8-4.4
		C728.8,834.8,730.1,836.8,730.1,839.2z"/>
	<path class="st11" d="M728.5,840.6c0,1-0.5,1.8-1.2,1.8s-1.2-0.8-1.2-1.8c0-1,0.5-1.8,1.2-1.8S728.5,839.6,728.5,840.6z"/>
	<path class="st38" d="M714.1,839.2c0,2.4-1.3,4.4-2.8,4.4c-1.5,0-2.8-2-2.8-4.4s1.3-4.4,2.8-4.4
		C712.9,834.8,714.1,836.8,714.1,839.2z"/>
	<path class="st11" d="M712.6,840.6c0,1-0.5,1.8-1.2,1.8s-1.2-0.8-1.2-1.8c0-1,0.5-1.8,1.2-1.8S712.6,839.6,712.6,840.6z"/>
	<path class="st41" d="M738.9,830.4c-3.9-4.1-12.3-8.3-12.3-8.3s13.9-12.4,15.4-11.7C742.9,810.7,740.4,829.6,738.9,830.4z"/>
	<path class="st42" d="M736.9,826.8c-2.1-2.3-6.8-4.6-6.8-4.6s7.7-6.9,8.5-6.5C739.1,815.9,737.7,826.4,736.9,826.8z"/>
	<path class="st43" d="M699,830.4c3.9-4.1,12.3-8.3,12.3-8.3s-13.9-12.4-15.4-11.7C695,810.7,697.5,829.6,699,830.4z"/>
	<path class="st42" d="M701,826.8c2.1-2.3,6.8-4.6,6.8-4.6s-7.7-6.9-8.5-6.5C698.8,815.9,700.2,826.4,701,826.8z"/>
	<path class="st44" d="M718.9,852.1l-2.2-2.3c-0.4-0.4-0.1-1.1,0.5-1.1h4.4c0.6,0,0.8,0.7,0.5,1.1l-2.2,2.3
		C719.6,852.3,719.1,852.3,718.9,852.1z"/>
	<path class="st38" d="M765.3,850.9c-14.9-6-34.2-2.7-34.4-2.7l-0.2-1C730.9,847.2,750.1,844.1,765.3,850.9L765.3,850.9z"/>
	<path class="st38" d="M762.1,859.7c-12.4-9.6-32.8-9.4-33-9.4l0-1C729.3,849.3,750.6,849.3,762.1,859.7L762.1,859.7z"/>
	<path class="st38" d="M756.4,867.3c-11.5-13.7-30.8-14.9-31-14.9l0.1-1C725.6,851.5,747.6,853.9,756.4,867.3L756.4,867.3z"/>
	<path class="st38" d="M672.7,850.9c14.9-6,34.2-2.7,34.4-2.7l0.2-1C707.1,847.2,688,844.1,672.7,850.9L672.7,850.9z"/>
	<path class="st38" d="M676,859.7c12.4-9.6,32.8-9.4,33-9.4l0-1C708.7,849.3,687.4,849.3,676,859.7L676,859.7z"/>
	<path class="st38" d="M681.6,867.3c11.5-13.7,30.8-14.9,31-14.9l-0.1-1C712.4,851.5,690.4,853.9,681.6,867.3L681.6,867.3z"/>
	<path class="st38" d="M702.1,905.6c0,2.6-3.3,4.7-7.3,4.7s-7.3-2.1-7.3-4.7c0-2.6,3.3-4.7,7.3-4.7S702.1,903,702.1,905.6z"/>
	<path class="st39" d="M749.9,905.6c0,2.6-3.3,4.7-7.3,4.7c-4,0-7.3-2.1-7.3-4.7c0-2.6,3.3-4.7,7.3-4.7
		C746.6,900.9,749.9,903,749.9,905.6z"/>
	<rect x="722.9" y="866.8" class="st36" width="9.1" height="41.2"/>
	<rect x="706" y="866.8" class="st36" width="9.1" height="41.2"/>
	<ellipse class="st38" cx="727.4" cy="908.7" rx="7.3" ry="4.7"/>
	<ellipse class="st38" cx="710.5" cy="908.6" rx="7.3" ry="4.7"/>
</g>
<g>
	<path class="st23" d="M788.7,489.7c-22.4-16.1-33.9-52.3-48.7-57.8c-17.2-2.3-41.1-23.3-57.3-21c-10.5,0.3-60.9-17.1-48.5,5.9
		C636.8,421,682,431,682,431s41.5,18.6,49.9,38c1.1,2.5,1.1,5.6,0.4,8.8c-7.3-0.3-9.3,2-17.7-3.6c-6.1-4.1-13.2-8.7-13.2-8.7
		c-5.8-3.7-17.5-7.2-21-1.9c-5.1,8,7.4,16.9,13.2,20.6c0,0,2.3,1.5,11.6,7.4c8.2,5.2,10.2,12.4,19.2,17.5
		c17.4,12.2,59.5,25.4,65.5,24.5c17.9-2.4,53.7-14.3,53.7-14.3L831.5,465C815.2,481.1,788.7,489.7,788.7,489.7z"/>
	<path class="st23" d="M459.5,491c22-16.6,32.7-53,47.4-58.9c17.1-2.7,40.5-24.3,56.8-22.3c10.5,0,60.5-18.5,48.6,4.8
		c-2.6,4.3-47.6,15.3-47.6,15.3s-41.1,19.6-49,39.2c-1,2.5-0.9,5.6-0.2,8.8c7.3-0.4,9.3,1.8,17.6-4c6.1-4.2,13-9,13-9
		c5.7-3.8,17.4-7.6,20.9-2.3c5.2,7.8-7,17.1-12.7,20.9c0,0-2.3,1.5-11.4,7.6c-8.1,5.4-10,12.6-18.8,18c-17.1,12.6-59,26.7-65,26
		c-17.9-2-54-13.1-54-13.1l10.9-54.5C432.8,483.1,459.5,491,459.5,491z"/>
</g>
<g>
	<path class="st45" d="M337.2,544.9l-28.7,5.6l-9.4-6.4c0,0,21-19.1,40.9-17.8C343.2,526.2,337.2,544.9,337.2,544.9z"/>
	<path class="st46" d="M402.6,597.9c11.4,31.1-10.2,66.7-50,74.5c-39.9,7.8-73.3-16.9-74.5-50c-1-28.4,22.8-53.5,53-59.5
		C361.3,556.9,392.8,571.1,402.6,597.9z"/>
	<path class="st47" d="M347.8,564.1l-32.7,6.4c-3.3,0.7-6.3-0.2-6.6-1.8l0-0.1c-0.3-1.7,2.1-3.5,5.4-4.2l32.7-6.4
		c3.3-0.7,6.3,0.2,6.6,1.8l0,0.1C353.5,561.6,351.1,563.5,347.8,564.1z"/>
	<path class="st46" d="M354.5,538.1c0,0-3.6-13.8-14.3-11.7c-8.1,1.6-10.8,11.5-19,14.9c-13.4,5.7-21.9,2.8-21.9,2.8l16.5,20
		l30.2-5.9L354.5,538.1z"/>
	<path class="st48" d="M349,600.7c-3.2-2-5.8-2.8-9-2.2c-3.6,0.7-5.3,2.5-4.6,5.9c1.4,7.2,21.3,2.7,24.1,17.1
		c1.4,7.3-1.5,13.7-9,16.8l1.5,7.9l-7.3,1.4l-1.5-7.6c-4.6,0.3-10.2-0.6-14.4-3.1l3.4-8.4c4.4,2.1,8.1,3,11.7,2.3
		c4.2-0.8,5.8-2.9,5.1-6.4c-1.5-7.8-21.5-3.7-24.1-17.4c-1.5-7.4,1.9-13.4,8.8-16.2l-1.5-7.8l7.3-1.4l1.5,7.6c5-0.3,8.9,1.5,12.5,4
		L349,600.7z"/>
	<polygon class="st49" points="320.7,581.1 322.3,569.1 326.5,568.3 	"/>
	<polygon class="st49" points="355,582.8 336.2,566.4 340.3,565.6 	"/>
	<polygon class="st49" points="352.9,567.6 345.3,564.6 349.4,563.8 	"/>
	<polygon class="st49" points="311.2,576.7 313.6,570.8 317.7,570 	"/>
</g>
<g>
	<g>
		<g>
			<path class="st50" d="M933.3,821.6l-89.7-31.4c-1.6-0.6-2.4-2.3-1.9-3.9l14.7-41.9c0.6-1.6,2.3-2.4,3.9-1.9l89.7,31.4
				c1.6,0.6,2.4,2.3,1.9,3.9l-14.7,41.9C936.7,821.4,934.9,822.2,933.3,821.6z"/>
			<path class="st10" d="M946.1,790.7l-93-32.5c-1.7-0.6-2.5-2.4-2-4.1l15.2-43.5c0.6-1.7,2.4-2.5,4.1-2l93,32.5
				c1.7,0.6,2.5,2.4,2,4.1l-15.2,43.5C949.5,790.4,947.7,791.2,946.1,790.7z"/>
			
				<rect x="916.6" y="765.7" transform="matrix(0.33 -0.944 0.944 0.33 -107.7408 1393.2134)" class="st50" width="22.1" height="13.6"/>
			<polygon class="st10" points="924.7,797.2 918.1,800.3 914.5,793.6 925.7,761.7 935.9,765.2 			"/>
			<path class="st51" d="M928.7,791.7l-13.8-4.8l3.3-9.5l13.8,4.8L928.7,791.7z M917.3,785.7l10.2,3.6l2-5.9l-10.2-3.6L917.3,785.7z
				"/>
			
				<rect x="868.9" y="749" transform="matrix(0.33 -0.944 0.944 0.33 -123.9684 1336.9686)" class="st50" width="22.1" height="13.6"/>
			<polygon class="st10" points="877,780.5 870.4,783.6 866.8,776.9 878,745 888.2,748.5 			"/>
			<path class="st51" d="M881,775l-13.8-4.8l3.3-9.5l13.8,4.8L881,775z M869.6,769l10.2,3.6l2-5.9l-10.2-3.6L869.6,769z"/>
			<path class="st50" d="M905.6,712.3L905.6,712.3c-1.9-0.7-3.8-0.1-4.3,1.3l-1.8,5.3l3.4,1.2L905.6,712.3z"/>
			<path class="st50" d="M932.2,721.6L932.2,721.6c1.9,0.7,3.1,2.3,2.6,3.7l-1.8,5.3l-3.4-1.2L932.2,721.6z"/>
			<path class="st52" d="M930.3,726.8c0,0-3.3-3.5-12.7-6.8c-9.4-3.3-13.9-2.5-13.9-2.5l1.8-5.3c0,0,4.5-1,14,2.3
				c9.5,3.3,12.5,6.9,12.5,6.9L930.3,726.8z"/>
		</g>
		<g>
			<path class="st53" d="M984.9,790.2l-68.3-23.7c-0.5-0.2-0.8-0.8-0.6-1.4l10.9-31.4c0.2-0.6,0.8-0.9,1.4-0.8l68.3,23.7
				c0.5,0.2,0.8,0.8,0.6,1.4l-10.9,31.4C986,790.1,985.4,790.4,984.9,790.2z"/>
			<path class="st54" d="M980.3,783.7l-0.1,0.3c-0.3,0.9-1.3,1.4-2.1,1.1l-54-18.7c-0.9-0.3-1.3-1.3-1-2.2l0.1-0.2
				c0.3-0.9-0.1-1.9-1-2.2l-0.1,0c-0.9-0.3-1.3-1.3-1-2.2l6.4-18.4c0.3-0.9,1.3-1.4,2.1-1.1l0,0c0.9,0.3,1.8-0.2,2.1-1.1l0.1-0.3
				c0.3-0.9,1.3-1.4,2.1-1.1l54,18.7c0.9,0.3,1.3,1.3,1,2.2l-0.1,0.3c-0.3,0.9,0.1,1.9,1,2.2l0.7,0.2c0.9,0.3,1.3,1.3,1,2.2
				l-6.4,18.3c-0.3,0.9-1.3,1.4-2.1,1.1l-0.7-0.2C981.6,782.3,980.7,782.8,980.3,783.7z"/>
			<path class="st53" d="M964.6,764.3c-2,5.8-7.3,9.3-11.7,7.7c-4.4-1.5-6.4-7.5-4.4-13.3c2-5.8,7.3-9.3,11.7-7.7
				C964.6,752.6,966.6,758.5,964.6,764.3z"/>
			<path class="st53" d="M933.5,753.5c0.6-1.8,2.7-2.8,4.5-2.2c1.8,0.6,2.8,2.7,2.2,4.5c-0.6,1.8-2.7,2.8-4.5,2.2
				C933.8,757.4,932.9,755.4,933.5,753.5z"/>
			<path class="st53" d="M972.8,767.3c0.6-1.8,2.7-2.8,4.5-2.2c1.8,0.6,2.8,2.7,2.2,4.5c-0.6,1.8-2.7,2.8-4.5,2.2
				C973.1,771.1,972.2,769.1,972.8,767.3z"/>
		</g>
		<g>
			<path class="st55" d="M944.1,773.6c2.8-4.1,8.4-5.2,12.6-2.3c4.1,2.8,5.2,8.4,2.3,12.6c-2.8,4.1-8.4,5.2-12.6,2.3
				C942.4,783.4,941.3,777.7,944.1,773.6z"/>
			<path class="st56" d="M945.3,774.5c2.4-3.4,7.1-4.3,10.5-2c3.4,2.4,4.3,7.1,2,10.5c-2.4,3.4-7.1,4.3-10.5,2
				C943.9,782.6,943,777.9,945.3,774.5z"/>
			<path class="st55" d="M949.1,779.6c0.1,0.6,0.4,1,0.8,1.4c0.5,0.4,0.9,0.3,1.3-0.1c0.7-1-2.2-2.9-0.8-5c0.7-1,1.8-1.4,3.1-0.9
				l0.8-1.1l1.1,0.7l-0.7,1.1c0.6,0.5,1.2,1.3,1.3,2.1l-1.4,0.6c-0.3-0.8-0.6-1.3-1.1-1.7c-0.6-0.4-1-0.4-1.4,0.1
				c-0.8,1.1,2.1,3.1,0.8,5c-0.7,1.1-1.9,1.4-3,0.9l-0.8,1.1l-1.1-0.7l0.7-1.1c-0.6-0.6-0.9-1.3-1-2L949.1,779.6z"/>
		</g>
		<g>
			<path class="st57" d="M956.1,741.6c1,5.8-2.9,11.4-8.7,12.4c-5.8,1-11.4-2.9-12.4-8.7c-1-5.8,2.9-11.4,8.7-12.4
				C949.5,731.9,955.1,735.8,956.1,741.6z"/>
			<path class="st58" d="M954.4,741.9c0.9,4.9-2.4,9.5-7.3,10.4c-4.9,0.8-9.5-2.4-10.4-7.3c-0.8-4.9,2.4-9.5,7.3-10.4
				C948.9,733.8,953.5,737,954.4,741.9z"/>
			<path class="st57" d="M946.9,740.7c-0.6-0.4-1.2-0.6-1.8-0.5c-0.7,0.1-1.1,0.5-1,1.2c0.3,1.5,4.3,0.6,4.8,3.5
				c0.3,1.5-0.4,2.7-1.9,3.4l0.3,1.6l-1.5,0.3l-0.3-1.5c-0.9,0.1-2.1-0.2-2.9-0.7l0.7-1.7c0.9,0.4,1.6,0.6,2.3,0.5
				c0.9-0.1,1.2-0.6,1.1-1.3c-0.3-1.6-4.3-0.8-4.8-3.6c-0.3-1.5,0.4-2.7,1.8-3.2l-0.3-1.6l1.5-0.3l0.3,1.5c1,0,1.8,0.3,2.5,0.9
				L946.9,740.7z"/>
		</g>
	</g>
</g>
<g>
	
		<rect x="875.7" y="600.5" transform="matrix(0.1611 -0.9869 0.9869 0.1611 147.3669 1392.9318)" class="st22" width="34.6" height="18.5"/>
	<path class="st59" d="M934.9,633.7c0.5-7.7-31.6-19.9-32.2-19.5L890.4,626l-8-15.2c-0.4-0.5-35.6,0.7-37.6,8.1l-7.9,33l96.1,15.7
		L934.9,633.7z"/>
	<polygon class="st60" points="883.2,612.4 890.4,626 871.2,608.1 884.4,605.2 	"/>
	<polygon class="st60" points="901.5,615.4 890.4,626 914.2,615.1 902.6,608.2 	"/>
	<path class="st12" d="M875,560.3c-5,6.7-0.6,33.4,5.4,34.4c6,1,22.8,3.7,28.7,4.7c5.9,1,20.7-24.5,16.3-30.7
		c-5.9-5.6-21.4-13.9-21.4-13.9S880.7,556.8,875,560.3z"/>
	<g>
		<path class="st23" d="M875.7,575.5c-3.5,0.2-6.5-2.9-6.7-6.9c-0.2-4,2.6-7.3,6.1-7.4C878.6,561.1,879.3,575.3,875.7,575.5z"/>
	</g>
	<g>
		<path class="st23" d="M919.5,582.6c3.3,1.3,7.1-0.7,8.5-4.4c1.4-3.7-0.1-7.7-3.4-9C921.4,568,916.2,581.4,919.5,582.6z"/>
	</g>
	<path class="st23" d="M893.7,604.3c26.5,4.3,31.6-44.5,31.6-44.5s1.4-16.1-20.5-19.6c-19.1-3.1-26.5,12.4-26.5,12.4
		S867.6,600.1,893.7,604.3z"/>
	<path class="st12" d="M873.7,561.4c2.4-0.1,4.2,4.7,4.2,4.7l3.7-16.6c0,0,26.4,9.5,32.6-0.2c8-1.8,8.1,6.8,8.1,6.8s-1,18.7-1,17.9
		c2-4.5,5.2-3.5,5.2-3.5s12.7-32.5-21-38C871.9,527.1,873.8,560.5,873.7,561.4z"/>
	<path class="st59" d="M911.9,565.8c-5.7-0.9-10.9,1.1-12.4,4.5c-0.3-3.8-4.6-7.3-10.3-8.3c-6.4-1-12.1,1.5-12.8,5.7
		c-0.7,4.2,3.9,8.5,10.3,9.5c5.7,0.9,10.9-1.1,12.4-4.5c0.3,3.8,4.6,7.3,10.3,8.3c6.4,1,12.1-1.5,12.8-5.7
		C922.9,571.1,918.3,566.9,911.9,565.8z M887.6,571.7c-3.6-0.6-6.3-2.1-6-3.4c0.2-1.3,3.3-1.9,6.8-1.3c3.6,0.6,6.3,2.1,6,3.4
		C894.2,571.7,891.1,572.3,887.6,571.7z M910.3,575.5c-3.6-0.6-6.3-2.1-6-3.4c0.2-1.3,3.3-1.9,6.8-1.3c3.6,0.6,6.3,2.1,6,3.4
		C916.9,575.4,913.9,576,910.3,575.5z"/>
	<g>
		<path class="st59" d="M930.9,554.6c1.2-7.3-8.5-24.6-23.5-27c-15-2.5-29.7,10.9-30.9,18.2L930.9,554.6z"/>
		<path class="st60" d="M930.9,554.6c0.1-0.7,0.1-1.5,0-2.4l-53.7-8.9c-0.4,0.9-0.7,1.7-0.8,2.4L930.9,554.6z"/>
		<path class="st59" d="M929.2,563l-56.3-9.2c-1.6-0.3-2.7-1.1-2.6-1.9l1-5.9c0.1-0.8,1.5-1.2,3.1-1l56.3,9.2
			c1.6,0.3,2.7,1.1,2.6,1.9l-1,5.9C932.2,562.8,930.8,563.3,929.2,563z"/>
	</g>
</g>
<g>
	<path class="st61" d="M463.9,394.8V449c0,7.5-6.1,13.6-13.6,13.6c-7.5,0-13.6-6.1-13.6-13.6c0-2-1.6-3.6-3.6-3.6
		c-2,0-3.6,1.6-3.6,3.6c0,11.5,9.4,20.9,20.9,20.9c11.5,0,20.9-9.4,20.9-20.9v-54.1H463.9z"/>
	<g>
		<path class="st7" d="M467.6,334.8L467.6,334.8c0,0-40.6,15.5-40.6,60h79.3C506.3,350.3,467.6,334.8,467.6,334.8z"/>
		<path class="st62" d="M467.6,334.8L467.6,334.8c0,0-14.8,15.5-14.8,60h29.2C481.9,350.3,467.6,334.8,467.6,334.8z"/>
		<path class="st62" d="M467.6,334.8c-33.1,0-60.6,26.9-60.6,60h0.6H427C427,350.3,467.6,334.8,467.6,334.8z"/>
		<path class="st62" d="M467.6,334.8L467.6,334.8c0,0,38.7,15.5,38.7,60h21.3h0.6C528.2,361.7,500.7,334.8,467.6,334.8z"/>
	</g>
	<path class="st63" d="M424.7,344.3c-16.3,9.1-14.4-25.1-14.4-25.1S440.9,335.2,424.7,344.3z"/>
	<path class="st63" d="M428.6,311.3c-9.8,5.5-8.7-15.2-8.7-15.2S438.4,305.8,428.6,311.3z"/>
	<path class="st63" d="M458.6,322.7c-12.5,7-11-19.2-11-19.2S471,315.8,458.6,322.7z"/>
	<polygon class="st58" points="497.9,293.3 488.5,324.1 504.1,322.5 488.5,362.1 518.9,315.7 500.3,316.7 511.7,292.1 	"/>
</g>
<g>
	<g>
		<polygon class="st64" points="426.6,822.3 325.7,838 307.7,722.2 318.5,706.4 406.4,692.7 		"/>
		<polygon class="st65" points="318.5,706.4 307.7,722.2 320.7,720.2 		"/>
	</g>
	<g>
		<polygon class="st66" points="361.3,851.3 351.5,848 342.7,854.2 338.6,828.3 357.3,825.4 		"/>
		<path class="st67" d="M360.4,814.6c1.2,7.7-4.1,15-11.8,16.2c-7.7,1.2-15-4.1-16.2-11.8c-1.2-7.7,4.1-15,11.8-16.2
			C351.9,801.6,359.2,806.9,360.4,814.6z"/>
		<path class="st68" d="M357.5,815.1c1,6.1-3.2,11.8-9.3,12.8c-6.1,1-11.8-3.2-12.8-9.3c-1-6.1,3.2-11.8,9.3-12.8
			C350.8,804.8,356.5,809,357.5,815.1z"/>
	</g>
	<g>
		
			<rect x="318.4" y="722" transform="matrix(0.988 -0.1542 0.1542 0.988 -107.6636 63.9507)" class="st69" width="80.2" height="8.4"/>
		
			<rect x="320.9" y="738.1" transform="matrix(0.988 -0.1542 0.1542 0.988 -110.1163 64.5305)" class="st69" width="80.2" height="8.4"/>
		
			<rect x="323.4" y="754.2" transform="matrix(0.988 -0.1542 0.1542 0.988 -112.5663 65.1085)" class="st69" width="80.2" height="8.4"/>
		
			<rect x="326.1" y="772.5" transform="matrix(0.988 -0.1542 0.1542 0.988 -115.5368 63.4986)" class="st69" width="51.1" height="8.4"/>
		
			<rect x="376.9" y="803.6" transform="matrix(0.988 -0.1542 0.1542 0.988 -119.8142 70.4379)" class="st70" width="34.7" height="8.4"/>
	</g>
</g>
<g>
	<g>
		<path class="st17" d="M227.2,833.6c0,0,0.6-59.5-69-112.2l102.6-20.8C284.1,766.2,227.2,833.6,227.2,833.6z"/>
		<path class="st71" d="M260.8,700.7c1.5,8.8-20.8,19.9-49.6,24.7c-28.9,4.8-53.5,1.5-55-7.3c-1.5-8.8,20.8-19.9,49.6-24.7
			C234.7,688.5,259.3,691.8,260.8,700.7z"/>
		<path class="st72" d="M251.2,702.4c1.2,7.1-16.7,16-40,19.9c-23.3,3.9-43.1,1.2-44.3-5.9c-1.2-7.1,16.7-16,40-19.9
			C230.2,692.6,250,695.2,251.2,702.4z"/>
		
			<ellipse transform="matrix(0.9865 -0.1636 0.1636 0.9865 -113.4848 43.7867)" class="st73" cx="209" cy="710.7" rx="33" ry="10.1"/>
		
			<ellipse transform="matrix(0.9865 -0.1636 0.1636 0.9865 -113.6707 43.874)" class="st74" cx="209.5" cy="711.9" rx="24.3" ry="7.4"/>
		<path class="st75" d="M193.9,755.5l-6.3-7.3c0,0,20.4,3,58.4-7.6C220.5,755.4,193.9,755.5,193.9,755.5z"/>
		<path class="st75" d="M257.5,780.1c0,0-17.2,6.2-34.6,2.2c21-1,37.1-9.4,37.1-9.4L257.5,780.1z"/>
		<path class="st76" d="M205.8,794.7l-55.6,10.2c-1.5,0.3-2.9-0.7-3.2-2.2c-0.3-1.5,0.7-2.9,2.2-3.2l55.6-10.2
			c1.5-0.3,2.9,0.7,3.2,2.2C208.3,793,207.3,794.4,205.8,794.7z"/>
		<path class="st76" d="M193.6,780.9l-46.3,8.5c-1.5,0.3-2.9-0.7-3.2-2.2s0.7-2.9,2.2-3.2l46.3-8.5c1.5-0.3,2.9,0.7,3.2,2.2
			C196.1,779.3,195.1,780.7,193.6,780.9z"/>
		<path class="st76" d="M183.4,766.9l-36.9,6.8c-1.5,0.3-2.9-0.7-3.2-2.2c-0.3-1.5,0.7-2.9,2.2-3.2l36.9-6.8
			c1.5-0.3,2.9,0.7,3.2,2.2C185.9,765.2,184.9,766.6,183.4,766.9z"/>
	</g>
</g>
<g>
	<g>
		<polygon class="st77" points="1080.7,640.9 1002.4,697.3 968.7,676.3 1078.7,597 		"/>
		
			<rect x="989.1" y="613.6" transform="matrix(0.8112 -0.5848 0.5848 0.8112 -175.5206 710.9441)" class="st7" width="48.3" height="27.4"/>
		<path class="st78" d="M1027.7,616.2c2.4,3.4,1.7,8-1.5,10.4c-3.3,2.4-7.9,1.6-10.4-1.8c-2.4-3.4-1.7-8,1.5-10.4
			C1020.6,612,1025.3,612.8,1027.7,616.2z"/>
		<path class="st24" d="M1026.6,617c2,2.8,1.4,6.6-1.3,8.5c-2.7,1.9-6.5,1.3-8.5-1.5c-2-2.8-1.4-6.6,1.3-8.5
			C1020.8,613.5,1024.6,614.2,1026.6,617z"/>
		
			<rect x="981.9" y="610.4" transform="matrix(0.8112 -0.5848 0.5848 0.8112 -177.1459 691.8795)" class="st79" width="1.7" height="19.7"/>
		<polygon class="st80" points="964.4,634.7 982.7,621.5 976.6,613.1 958.4,626.2 966.5,626.8 		"/>
		<polygon class="st81" points="1079.6,615.7 983.1,685.2 975.9,680.8 1079.1,606.3 		"/>
	</g>
	<g>
		<g>
			<path class="st82" d="M1083.7,693.3c-0.9-0.1-1.8-0.6-2.5-1.3c-0.1-0.1-9-8.5-22.5-10.7c-3.9-0.6-8.8,0.3-14,1.3
				c-5.9,1.1-12,2.3-17.6,1.4c-10.7-1.7-14.6-4.8-18-7.5c-2.9-2.2-5.3-4.2-13.1-5.4c-16-2.6-25.1,2.6-25.2,2.7
				c-2.2,1.3-5.1,0.6-6.5-1.6c-1.3-2.2-0.6-5.1,1.6-6.4c0.5-0.3,11.9-7.1,31.6-3.9c10.2,1.7,14.1,4.7,17.4,7.3
				c2.9,2.3,5.5,4.3,13.7,5.6c4,0.6,9.3-0.4,14.3-1.4c5.8-1.1,11.8-2.3,17.3-1.4c16.5,2.7,27.1,12.8,27.6,13.2
				c1.9,1.8,1.9,4.8,0.1,6.7C1086.7,693,1085.1,693.5,1083.7,693.3z"/>
			<path class="st24" d="M1082.3,701.8c-0.9-0.1-1.8-0.6-2.5-1.3c-0.1-0.1-9-8.5-22.5-10.7c-3.8-0.6-8.8,0.3-14,1.3
				c-5.9,1.1-12,2.3-17.6,1.4c-10.6-1.7-14.6-4.8-18-7.5c-2.9-2.2-5.3-4.2-13.1-5.4c-16-2.6-25.1,2.6-25.2,2.7
				c-2.2,1.3-5.1,0.6-6.5-1.6c-1.3-2.2-0.6-5.1,1.6-6.4c0.5-0.3,11.9-7.1,31.6-3.9c10.2,1.7,14.1,4.7,17.4,7.3
				c2.9,2.3,5.5,4.3,13.7,5.6c4,0.6,9.3-0.4,14.3-1.4c5.8-1.1,11.8-2.3,17.3-1.4c16.5,2.7,27.1,12.8,27.6,13.2
				c1.9,1.8,1.9,4.8,0.1,6.7C1085.3,701.5,1083.8,702,1082.3,701.8z"/>
			<path class="st82" d="M1080.9,710.3c-0.9-0.1-1.8-0.6-2.5-1.3c-0.1-0.1-9-8.5-22.5-10.7c-3.8-0.6-8.8,0.3-14,1.3
				c-5.9,1.1-12,2.3-17.6,1.4c-10.7-1.7-14.6-4.8-18-7.5c-2.9-2.2-5.3-4.2-13.1-5.4c-16-2.6-25.1,2.6-25.2,2.7
				c-2.2,1.3-5.1,0.6-6.5-1.6c-1.3-2.2-0.6-5.1,1.6-6.4c0.5-0.3,11.9-7.1,31.6-3.9c10.2,1.7,14.1,4.7,17.4,7.3
				c2.9,2.3,5.5,4.3,13.7,5.6c4,0.6,9.3-0.4,14.3-1.4c5.8-1.1,11.8-2.3,17.3-1.4c16.5,2.7,27.1,12.8,27.6,13.2
				c1.9,1.8,1.9,4.8,0.1,6.7C1083.9,710.1,1082.4,710.5,1080.9,710.3z"/>
			<path class="st24" d="M1079.5,718.9c-0.9-0.1-1.8-0.6-2.5-1.3c-0.1-0.1-9-8.5-22.5-10.7c-3.8-0.6-8.8,0.3-14,1.3
				c-5.9,1.1-12,2.3-17.6,1.4c-10.7-1.7-14.6-4.8-18-7.5c-2.9-2.2-5.3-4.2-13.1-5.4c-16-2.6-25.1,2.6-25.2,2.7
				c-2.2,1.3-5.1,0.6-6.5-1.6c-1.3-2.2-0.6-5.1,1.6-6.4c0.5-0.3,11.9-7.1,31.6-3.9c10.2,1.7,14.1,4.7,17.4,7.3
				c2.9,2.3,5.5,4.3,13.7,5.6c4,0.6,9.3-0.4,14.3-1.4c5.8-1.1,11.8-2.3,17.3-1.4c16.5,2.7,27.1,12.8,27.6,13.2
				c1.9,1.8,1.9,4.8,0.1,6.7C1082.5,718.7,1081,719.1,1079.5,718.9z"/>
		</g>
	</g>
	<g>
		<g>
			<path class="st83" d="M1078.4,665.3c-0.6,3.5-2.5,6.4-5.1,8.4l6,8.3c4.8-3.5,8.2-8.7,9.3-15c1-6.3-0.6-12.3-4-17.1l-8.3,6
				C1078.1,658.5,1078.9,661.9,1078.4,665.3z"/>
			<path class="st83" d="M1052.9,661.2c0.5-3.1,2.1-5.8,4.4-7.7l-6-8.3c-4.3,3.5-7.5,8.5-8.4,14.4c-1,6,0.5,11.7,3.5,16.4l8.3-6
				C1053.1,667.4,1052.3,664.4,1052.9,661.2z"/>
			<path class="st38" d="M1083.8,648.9c-3.5-4.4-8.5-7.6-14.5-8.5c-6.3-1-12.4,0.6-17.2,4c-0.3,0.2-0.6,0.5-0.9,0.7l6,8.3
				c0.3-0.3,0.6-0.5,0.9-0.8c2.7-1.9,6.1-2.8,9.6-2.2c3.2,0.5,5.8,2.2,7.8,4.4c0.3,0.3,0.5,0.6,0.8,0.9l8.3-6
				C1084.3,649.5,1084,649.2,1083.8,648.9z"/>
			<path class="st38" d="M1073.2,673.7c-0.3,0.2-0.7,0.4-1,0.6c-2.5,1.5-5.5,2.2-8.7,1.7c-3.5-0.6-6.4-2.5-8.3-5.1
				c-0.2-0.3-0.4-0.7-0.6-1l-8.3,6c0.2,0.3,0.4,0.7,0.7,1c3.5,4.7,8.7,8.2,15,9.2c5.9,1,11.7-0.4,16.3-3.5c0.3-0.2,0.7-0.4,1-0.6
				L1073.2,673.7z"/>
		</g>
	</g>
</g>
<g>
	<path class="st62" d="M844.5,366.2c0,0-25.8,7.6-51.1-13.4c-25.4,21-51.1,13.4-51.1,13.4s-12.6,72.1,51.1,103.1
		C857.2,438.2,844.5,366.2,844.5,366.2z"/>
	<path class="st38" d="M837.8,374.2c0,0-22.4,6.6-44.4-11.7c-22,18.3-44.4,11.7-44.4,11.7s-11,61.1,44.4,88
		C848.8,435.3,837.8,374.2,837.8,374.2z"/>
	<path class="st84" d="M834,378.9c0,0-20.8,5-40.6-11.4c-19.7,16.4-40.6,11.4-40.6,11.4s-9,55.2,40.6,79.2
		C843,434,834,378.9,834,378.9z"/>
	<polygon class="st38" points="798.8,403.8 798.8,386.1 788,386.1 788,403.8 770.2,403.8 770.2,414.7 788,414.7 788,432.4 
		798.8,432.4 798.8,414.7 816.6,414.7 816.6,403.8 	"/>
</g>
<g>
	<path class="st85" d="M637,302c0,0,35-45.1,61.1-8.9c33,45.8-61.1,93-61.1,93s-94.1-47.2-61.1-93C602,256.9,637,302,637,302z"/>
	<path class="st58" d="M646,357.5c-1,0-2-0.5-2.5-1.4l-14.8-26.2l-6.3,11.2c-0.5,0.9-1.4,1.4-2.4,1.4h-21.5c-1.6,0-2.8-1.3-2.8-2.8
		c0-1.6,1.3-2.8,2.8-2.8h19.8l8-14.1c0.5-0.9,1.4-1.4,2.5-1.4c1,0,1.9,0.5,2.4,1.4l14.4,25.5l4.1-9.9c0.4-1.1,1.5-1.7,2.6-1.7h21.1
		c1.6,0,2.8,1.3,2.8,2.8c0,1.6-1.3,2.8-2.8,2.8h-19.2l-5.6,13.5c-0.4,1-1.4,1.7-2.4,1.7C646.1,357.5,646.1,357.5,646,357.5z"/>
</g>
<g>
	
		<rect x="326.4" y="447.5" transform="matrix(0.9894 -0.145 0.145 0.9894 -63.2102 53.4923)" class="st22" width="17.8" height="25.6"/>
	<path class="st86" d="M344.3,460.3l-6.1,10.2c-0.5,0.9-1.7,1-2.5,0.4l-9.1-7.9c-0.4-0.4-0.9,0-1.5,0.2l0,0c-0.6,0.2-1,0.7-1.1,1.3
		l-6.1,32.4c-0.2,1.1,1.6,7.7,2.7,7.5l42.9-6.3c1.2-0.2,1-7,0.4-8L348.1,461c-0.3-0.5-0.9-0.9-1.5-0.9l-0.8,0
		C345.3,460.1,344.6,459.8,344.3,460.3z"/>
	<path class="st87" d="M304.4,423.3c-0.9,9.1,4.7,26.5,17.4,30.3c5.9-0.9,18.3-2.7,24.2-3.5c12.2-8.8,11.1-28.7,8.3-33.9
		c-7.2-3.5-24.3-6.6-24.3-6.6S308.7,418.4,304.4,423.3z"/>
	<path class="st88" d="M330.1,503l-44.8,6.6c0,0-3.8-16.5,3-31.5c-1-6.8,35.5-18.3,35.5-18.3L330.1,503z"/>
	<path class="st88" d="M352.6,499.7l44.9-6.6c0,0-1.2-17-12-29.4c-1-6.8-39.2-7.3-39.2-7.3L352.6,499.7z"/>
	<path class="st23" d="M306.9,431.8c-3.5,1.3-7.6-0.9-9-4.9c-1.4-4,0.2-8.2,3.8-9.5C305.2,416.2,310.4,430.5,306.9,431.8z"/>
	<path class="st23" d="M353.9,424.9c3.8,0.2,7-3,7.3-7.2c0.2-4.2-2.6-7.8-6.4-8C351,409.4,350.1,424.7,353.9,424.9z"/>
	<path class="st23" d="M334.5,455.5c30.3-4.4,17.8-55.7,17.8-55.7s-3.7-16.8-27.3-13.4c-20.5,3-23,21.2-23,21.2
		S304.1,459.9,334.5,455.5z"/>
	<path class="st87" d="M300.3,418.1c2.4-0.9,5.7,3.4,5.7,3.4l-1.6-18.2c0,0,12.3,6.2,40.3-2.1c-1.7-6.2,3.4-4.4,3.4-4.4
		s5,19.4,4.8,18.6c0.6-5.3,4.2-5.3,4.2-5.3s7.4-40.3-36.3-33.9c-14.9,2.2-14.7,7.6-18.3,14.9C289,396.7,300.2,417.6,300.3,418.1z"/>
	<path class="st25" d="M335.1,502.3l12.8-1.9l-10.3-28.3c-0.3-0.2-0.7-0.1-0.9,0.2L335.1,502.3z"/>
	<path class="st25" d="M331.2,465l9.5-1.4c0.6-0.1,1.4,3.3,1,3.8l-4.2,4.3c-0.2,0.3-0.7,0.4-1,0.1l-5.3-2.9
		C330.8,468.6,330.6,465.1,331.2,465z"/>
	<path class="st86" d="M336.5,464.7l8.5,4.8c0.3,0.2,0.7,0,0.7-0.4l1.7-12.1c0-0.1,0-0.3-0.1-0.4l-2.9-3.2c-0.2-0.2-0.6-0.2-0.8,0.1
		l-7.3,10.5C336.2,464.2,336.3,464.5,336.5,464.7z"/>
	<path class="st86" d="M335.5,464.8l-6.8,7c-0.2,0.3-0.7,0.2-0.8-0.1l-5.1-11.1c-0.1-0.1-0.1-0.3,0-0.4l1.9-3.9
		c0.1-0.3,0.5-0.4,0.8-0.2l10,8C335.7,464.3,335.7,464.6,335.5,464.8z"/>
	<path class="st87" d="M332.1,439.8c-1.3,2.7-12.5,4.3-12.5,4.3l0.3-1.6c0.5-3.2,3.1-5.7,6.3-6.2l5.3-0.8L332.1,439.8z"/>
	<path class="st87" d="M332.1,439.8c2,2.2,13.2,0.5,13.2,0.5l-0.7-1.5c-1.4-2.9-4.6-4.6-7.8-4.1l-5.3,0.8L332.1,439.8z"/>
	<g>
		
			<rect x="357.4" y="480.7" transform="matrix(0.9894 -0.145 0.145 0.9894 -66.0976 58.348)" class="st89" width="19.5" height="3.5"/>
		
			<rect x="359.8" y="484.1" transform="matrix(0.9894 -0.145 0.145 0.9894 -67.8439 58.7308)" class="st38" width="18.2" height="21.2"/>
		<rect x="361" y="486.8" transform="matrix(0.9894 -0.145 0.145 0.9894 -67.153 57.8638)" class="st90" width="4.6" height="5.5"/>
		
			<rect x="362" y="494.9" transform="matrix(0.9894 -0.145 0.145 0.9894 -68.0322 58.7766)" class="st91" width="14.2" height="2.1"/>
		
			<rect x="362.5" y="498.5" transform="matrix(0.9894 -0.145 0.145 0.9894 -68.5389 58.8899)" class="st91" width="14.2" height="2.1"/>
		
			<rect x="364.6" y="478.6" transform="matrix(0.9894 -0.145 0.145 0.9894 -65.674 58.243)" class="st91" width="4.3" height="2.2"/>
	</g>
</g>
<g>
	<path class="st92" d="M969.7,436.1c-1.2-0.3-2.4-0.5-3.5-0.7c0,0,0,0,0-0.1c0.9-3.8-2-7.9-6.7-9.7c1-12.1-8.5-24-22.7-27.5
		c-13.9-3.4-27.6,2.4-32.5,13.2c-1.5-0.9-3.2-1.6-5.1-2.1c-8.6-2.1-16.9,2.1-18.7,9.4c-0.3,1.3-0.4,2.5-0.3,3.8
		c-0.2-0.1-0.4-0.1-0.6-0.2c-10.2-2.5-20.2,2.5-22.3,11.2c-2.1,8.7,4.4,17.8,14.7,20.3c6,1.5,12,0.3,16.3-2.7
		c3.5,8.1,15,16,29.9,19.7c19,4.6,36.4,0.5,39.5-9.2c1.8,0.6,3.6,1.2,5.6,1.6c15.6,3.8,29.8,0.8,31.6-6.7
		C996.5,449,985.3,439.9,969.7,436.1z"/>
	<polygon class="st58" points="918.7,455.6 905.7,477.4 917.9,479.2 898.6,506.6 930.5,476.7 916.1,474 929.4,457.3 	"/>
	<path class="st63" d="M938.1,494c7.3,3,4.8-11.3,4.8-11.3S930.8,491,938.1,494z"/>
	<path class="st63" d="M954,476.2c5.3,2.9,4.6-8.2,4.6-8.2S948.7,473.3,954,476.2z"/>
	<path class="st63" d="M870.7,464.2c5.3,2.9,4.6-8.2,4.6-8.2S865.3,461.3,870.7,464.2z"/>
	<path class="st63" d="M870.7,479.7c5.3,2.9,4.6-8.2,4.6-8.2S865.4,476.8,870.7,479.7z"/>
	<path class="st63" d="M886.9,478.6c8.4,5.6,8.8-12.9,8.8-12.9S878.6,473.1,886.9,478.6z"/>
</g>
<g>
	<g>
		<g>
			
				<rect x="1029.3" y="478.2" transform="matrix(0.1641 -0.9864 0.9864 0.1641 338.1054 1468.5428)" class="st60" width="12.6" height="113.1"/>
			<path class="st24" d="M995.2,502.7l72.4,12.1c0,0-5.1-25.6-30.7-29.8C1011.4,480.7,995.2,502.7,995.2,502.7z"/>
			<path class="st93" d="M1070.8,513.9c-6.3-15.8-18.6-27.5-34.2-30.1c-17.2-2.9-34.1,6-45.4,21.5c-15-2.5-17.9,15.2-20.2,28.7
				l7.8,1.3l0.9,0.2c1.3-7.6,8.4-12.7,16-11.4c7.6,1.3,12.7,8.4,11.4,16l21.5,3.6l7.4,1.2l24.7,4.1c1.3-7.6,8.4-12.7,16-11.4
				c7.6,1.3,12.7,8.4,11.4,16l5.5,0.9C1096.9,534.7,1092.3,517.4,1070.8,513.9z M1031.6,507.5l-32-5.3c3.5-5.2,18.4-17.7,35.3-14.9
				c0,0,0.3-1.6,0.3-1.6L1031.6,507.5z M1035.4,508.1l3.3-20c16.6,4.4,25,15.9,26.7,25.1L1035.4,508.1z"/>
			<g>
				<path class="st94" d="M1099.9,573.2c-1.1,6.7-7.5,11.3-14.2,10.2c-6.7-1.1-11.3-7.5-10.2-14.2c1.1-6.7,7.5-11.3,14.2-10.2
					C1096.5,560.1,1101,566.4,1099.9,573.2z"/>
				<path class="st95" d="M1096.1,572.5c-0.8,4.6-5.2,7.8-9.8,7c-4.6-0.8-7.8-5.2-7-9.8c0.8-4.6,5.2-7.8,9.8-7
					C1093.7,563.5,1096.9,567.9,1096.1,572.5z"/>
				<path class="st61" d="M1093.2,572.1c-0.5,3-3.4,5.1-6.4,4.6c-3-0.5-5.1-3.4-4.6-6.4c0.5-3,3.4-5.1,6.4-4.6
					C1091.6,566.1,1093.7,569,1093.2,572.1z"/>
			</g>
			<g>
				<path class="st94" d="M1005.8,539.8c-1.1,6.7-7.5,11.3-14.2,10.2c-6.7-1.1-11.3-7.5-10.2-14.2c1.1-6.7,7.5-11.3,14.2-10.2
					C1002.4,526.7,1006.9,533.1,1005.8,539.8z"/>
				<path class="st95" d="M1002,539.2c-0.8,4.6-5.2,7.8-9.8,7c-4.6-0.8-7.8-5.2-7-9.8c0.8-4.6,5.2-7.8,9.8-7
					C999.7,530.2,1002.8,534.5,1002,539.2z"/>
				<path class="st61" d="M999.1,538.7c-0.5,3-3.4,5.1-6.4,4.6c-3-0.5-5.1-3.4-4.6-6.4c0.5-3,3.4-5.1,6.4-4.6
					C997.6,532.8,999.6,535.7,999.1,538.7z"/>
			</g>
			<path class="st96" d="M1087.8,531.5c0.2,3-0.8,5.5-2.3,5.6c-1.5,0.1-3-2.2-3.2-5.2c-0.2-3,0.8-5.5,2.3-5.6
				C1086.1,526.3,1087.5,528.6,1087.8,531.5z"/>
			<path class="st97" d="M983.1,516.8c-0.9,2-2.4,3.3-3.5,2.9c-1-0.4-1.2-2.4-0.3-4.5c0.9-2,2.4-3.3,3.5-2.9
				C983.8,512.7,984,514.7,983.1,516.8z"/>
			<path class="st94" d="M1042.3,517.4l-5.3-0.9c-1.1-0.2-1.8-1.1-1.7-2l0,0c0.2-0.9,1.1-1.5,2.2-1.3l5.3,0.9c1.1,0.2,1.8,1.1,1.7,2
				l0,0C1044.3,517,1043.3,517.6,1042.3,517.4z"/>
			<polygon class="st61" points="1054.4,564.8 1049.6,563.4 1054,547.8 1059,548.7 			"/>
			
				<rect x="1050.3" y="558.3" transform="matrix(0.2711 -0.9625 0.9625 0.2711 222.2676 1424.2985)" class="st25" width="2.7" height="14.1"/>
		</g>
	</g>
	<g>
		<path class="st98" d="M994.8,532.3c0,0-6.7-8.2-20.8-12.2c-14.2-4-24.1-0.4-24.1-0.4s-14.4,30.2,9.8,51.6
			C991.5,565.6,994.8,532.3,994.8,532.3z"/>
		<path class="st38" d="M992.4,533.5c0,0-6.1-7.4-19.1-11c-13-3.6-22-0.5-22-0.5s-13.2,27.6,9,47.2
			C989.3,563.9,992.4,533.5,992.4,533.5z"/>
		<path class="st99" d="M990.3,534.6c0,0-5.6-6.9-17.5-10.3c-11.9-3.3-20.3-0.3-20.3-0.3s-12.1,25.3,8.2,43.4
			C987.5,562.5,990.3,534.6,990.3,534.6z"/>
		<path class="st38" d="M962.7,553.5l3.5,1l1-3.7c0.9,0,1.8-0.1,2.7-0.3l1.9,3.3l3.2-1.8l-1.9-3.3c0.7-0.6,1.2-1.3,1.7-2.1l3.7,1
			l1-3.5l-3.7-1c0-0.9-0.1-1.8-0.3-2.7l3.3-1.9l-1.8-3.2l-3.3,1.9c-0.6-0.7-1.3-1.2-2.1-1.7l1-3.6l-3.5-1l-1,3.6
			c-0.9,0-1.8,0.1-2.7,0.3l-1.9-3.3l-3.2,1.8l1.9,3.3c-0.7,0.6-1.2,1.3-1.7,2.1l-3.7-1l-1,3.5l3.7,1c0,0.9,0.1,1.8,0.3,2.7l-3.3,1.9
			l1.8,3.2l3.3-1.9c0.6,0.7,1.3,1.2,2.1,1.7L962.7,553.5z M963.6,542.5c0.2-3,3.3-4.8,6-3.4c1.3,0.7,2.2,2.2,2.1,3.7
			c-0.2,3-3.3,4.8-6,3.4C964.3,545.5,963.5,544,963.6,542.5z"/>
	</g>
</g>
<g>
	<g>
		<g>
			<path class="st100" d="M262.1,551.2c7,32.8-13.9,65.2-46.7,72.2c-32.8,7-65.2-13.9-72.2-46.7c-2.9-13.6,15.6-25.9,38.9-33.3
				l1.3,27.9l14-5.6l25.1,28.7l-10.3-43.4l-14.3-4.7l9.9-2.1l5.9-7.5C237.7,534.1,259.2,537.8,262.1,551.2z"/>
			<path class="st101" d="M180.6,541.8c0,0-39.2,12.6-39.2,31.2c0,2.7,4.3,6.3,4.3,6.3l2.4-4l2.8,1.3l2.6-5l1.8,2.1l0.8-5.5l4,1.9
				l1-4.7l3,1.1l1.5-5.9l3.6,2.3l0.7-3.9l3,1l0.3-4.4l3.6,1.1l0.5-4.9l2.8,1.4l0.1-3.9l3.9,2.3l-0.9-4l3.4,0.8L180.6,541.8z"/>
			<path class="st101" d="M213.4,535.7c0,0,40.9-4.6,48.6,12.4c1.1,2.5-1.3,7.5-1.3,7.5l-3.6-4.1l-2.2,3.8l-3.4-4.6l-3.6,3.3
				l-1.5-5.3l-4,4.6l-2.1-4.5l-3.5,2.1l-1.9-4.1l-3.5,1.9l-1.7-2.4l-3.2,1.7l-1.1-3.7l-3.5,2.7l-1.2-3.4l-1.9,2.4l-0.8-3.6l-2.5,2.7
				l-0.4-3.3l-4.2,2.5L213.4,535.7z"/>
		</g>
		<g>
			<g>
				
					<rect x="226.7" y="509.9" transform="matrix(0.1967 -0.9805 0.9805 0.1967 -322.987 654.8043)" class="st17" width="22.8" height="29.2"/>
				
					<rect x="233" y="520.3" transform="matrix(0.1967 -0.9805 0.9805 0.1967 -338.5446 663.1456)" class="st102" width="4.9" height="35.7"/>
				<polygon class="st62" points="243.3,499 220,509.2 260.8,517.4 				"/>
				<g>
					
						<rect x="228.1" y="514.3" transform="matrix(0.1967 -0.9805 0.9805 0.1967 -321.5261 642.7426)" class="st103" width="6.7" height="6.7"/>
					
						<rect x="230.9" y="513" transform="matrix(0.1967 -0.9805 0.9805 0.1967 -319.4636 641.6486)" class="st24" width="1.9" height="5.6"/>
					
						<rect x="228.1" y="517" transform="matrix(0.1968 -0.9805 0.9805 0.1968 -323.6291 641.6664)" class="st24" width="3.4" height="2.6"/>
					
						<rect x="231" y="517.6" transform="matrix(0.1967 -0.9805 0.9805 0.1967 -321.8374 645.0713)" class="st24" width="3.4" height="2.6"/>
				</g>
				<g>
					
						<rect x="226.2" y="524" transform="matrix(0.1967 -0.9805 0.9805 0.1967 -332.6744 648.6722)" class="st103" width="6.7" height="6.7"/>
					
						<rect x="228.9" y="522.7" transform="matrix(0.1967 -0.9805 0.9805 0.1967 -330.613 647.5736)" class="st24" width="1.9" height="5.6"/>
					
						<rect x="226.1" y="526.8" transform="matrix(0.1966 -0.9805 0.9805 0.1966 -334.7631 647.6615)" class="st24" width="3.4" height="2.6"/>
					
						<rect x="229.1" y="527.4" transform="matrix(0.1966 -0.9805 0.9805 0.1966 -332.9844 651.0084)" class="st24" width="3.4" height="2.6"/>
				</g>
				<g>
					
						<rect x="243.4" y="517.3" transform="matrix(0.1967 -0.9805 0.9805 0.1967 -312.2924 660.1205)" class="st103" width="6.7" height="6.7"/>
					
						<rect x="246.1" y="516" transform="matrix(0.1967 -0.9805 0.9805 0.1967 -310.231 659.022)" class="st24" width="1.9" height="5.6"/>
					
						<rect x="243.3" y="520.1" transform="matrix(0.1966 -0.9805 0.9805 0.1966 -314.3803 659.1097)" class="st24" width="3.4" height="2.6"/>
					
						<rect x="246.2" y="520.7" transform="matrix(0.1966 -0.9805 0.9805 0.1966 -312.6016 662.4567)" class="st24" width="3.4" height="2.6"/>
				</g>
				
					<rect x="238.5" y="528.8" transform="matrix(0.1967 -0.9805 0.9805 0.1967 -326.3608 666.1443)" class="st103" width="9.7" height="6.8"/>
			</g>
		</g>
		<g>
			<g>
				
					<rect x="135.1" y="529.2" transform="matrix(0.8222 -0.5691 0.5691 0.8222 -281.4012 182.1348)" class="st17" width="31.6" height="24.7"/>
				
					<rect x="140.2" y="551.3" transform="matrix(0.8222 -0.5691 0.5691 0.8222 -286.8936 189.2304)" class="st102" width="38.5" height="5.3"/>
				<polygon class="st104" points="134.9,518.4 125.4,544.2 162.4,518.6 				"/>
				<g>
					
						<rect x="144.8" y="535.4" transform="matrix(0.8222 -0.5691 0.5691 0.8222 -281.3794 182.1632)" class="st103" width="12.3" height="12.3"/>
					
						<rect x="143.8" y="537" transform="matrix(0.8223 -0.5691 0.5691 0.8223 -280.1247 180.5558)" class="st24" width="10.4" height="3.5"/>
					
						<rect x="147.4" y="541.6" transform="matrix(0.8222 -0.5691 0.5691 0.8222 -283.4021 182.0825)" class="st24" width="4.9" height="6.3"/>
					
						<rect x="151.9" y="538.4" transform="matrix(0.8222 -0.5691 0.5691 0.8222 -280.8093 184.1056)" class="st24" width="4.9" height="6.3"/>
				</g>
			</g>
		</g>
	</g>
</g>
<g>
	<g>
		
			<rect x="192.3" y="400.3" transform="matrix(0.9709 -0.2395 0.2395 0.9709 -95.6594 66.6507)" class="st17" width="68.2" height="53.2"/>
		
			<rect x="192.7" y="452.6" transform="matrix(0.9709 -0.2395 0.2395 0.9709 -102.9702 69.4589)" class="st25" width="83.1" height="11.4"/>
		<polygon class="st105" points="212,368 173.1,412.6 267.2,389.4 		"/>
		<g>
			
				<rect x="213.3" y="413.6" transform="matrix(0.9709 -0.2395 0.2395 0.9709 -95.6481 66.6787)" class="st103" width="26.5" height="26.5"/>
			
				<rect x="213.5" y="415.9" transform="matrix(0.9709 -0.2395 0.2395 0.9709 -93.9952 66.0513)" class="st24" width="22.4" height="7.6"/>
			
				<rect x="216.5" y="425.6" transform="matrix(0.9709 -0.2395 0.2395 0.9709 -97.1255 65.706)" class="st24" width="10.5" height="13.7"/>
			
				<rect x="228" y="422.7" transform="matrix(0.9709 -0.2395 0.2395 0.9709 -96.1068 68.3893)" class="st24" width="10.5" height="13.7"/>
		</g>
	</g>
</g>
<g>
	<g>
		<path class="st106" d="M929.7,355.6c-3.1-3.1-6-5.9-8.7-8.5l3-6.8c1.1,1.1,2,2.1,2.7,2.8c0.5,0.5,1.1,0.6,1.5,0.3l2.9-2.9
			c0.3-0.3,0.2-1-0.3-1.5c-1-1-2.6-2.7-4.3-4.3l2.1-4.7c1.2,1.3,2.3,2.5,3.1,3.2c0.5,0.5,1.1,0.6,1.5,0.3l2.9-2.9
			c0.3-0.3,0.2-1-0.3-1.5c-1.1-1-2.8-2.9-4.7-4.7l6.2-14.3c0.3-0.6,0.2-1.3-0.4-1.9l-4.6-4.6c-0.7-0.7-1.7-0.7-2.2,0l-23.7,29.9
			c-6.1-5.3-11.3-9.3-15.5-12.2l4-14.9c0.1-0.3-0.1-0.7-0.4-1l-3-3c-0.4-0.4-1-0.6-1.2-0.3l-9.2,13.1c-5.6-2.9-7.7-2.7-7.7-2.7
			s-0.1,2.1,2.7,7.7l-13.2,9.2c-0.3,0.2-0.2,0.8,0.3,1.2l3,3c0.3,0.3,0.8,0.5,1,0.4l14.9-4.1c3.2,4.6,12.2,15.6,12.2,15.6
			l-30.1,23.9c-0.7,0.5-0.6,1.6,0,2.2l4.6,4.6c0.5,0.5,1.3,0.7,1.9,0.4l14.3-6.2c1.7,1.9,3.6,3.7,4.7,4.7c0.5,0.5,1.1,0.6,1.5,0.3
			l2.9-2.9c0.3-0.3,0.2-1-0.3-1.5c-0.8-0.7-1.9-1.9-3.2-3.1l4.7-2.1c1.6,1.7,3.3,3.4,4.3,4.3c0.5,0.5,1.1,0.6,1.5,0.3l2.9-2.9
			c0.3-0.3,0.2-1-0.3-1.5c-0.7-0.7-1.7-1.6-2.8-2.7l7.2-3.1c2.7,2.8,5.5,5.7,8.6,8.8c11.7,11.7,20.1,6.7,20.1,6.7
			S941.4,367.3,929.7,355.6z"/>
		<path class="st107" d="M929.2,373.8c0.8,0.1,1.7,0.1,2.5,0c0.8-0.1,1.7-0.4,2.4-0.7l-0.3,0.3c0.3-0.7,0.6-1.6,0.7-2.4
			c0.1-0.8,0.1-1.7,0-2.5l2.1,0.7c0.1,0.9,0.1,1.8,0,2.8c-0.1,1-0.3,1.9-0.8,2.9l-0.1,0.2l-0.2,0.1c-1,0.5-1.9,0.7-2.9,0.9
			c-0.9,0.1-1.9,0.1-2.8,0L929.2,373.8z"/>
	</g>
</g>
<g>
	<path class="st63" d="M664.5,438.8c0,0-14.9-10.6-40.2-10.6c-25.4,0-40.2,10.6-40.2,10.6s-9.9,56.7,40.2,81
		C674.5,495.4,664.5,438.8,664.5,438.8z"/>
	<path class="st38" d="M661.1,441.9c0,0-13.6-9.5-36.8-9.5c-23.2,0-36.8,9.5-36.8,9.5s-9.1,51.8,36.8,74.1
		C670.2,493.7,661.1,441.9,661.1,441.9z"/>
	<path class="st108" d="M658.1,444.6c0,0-12.5-8.9-33.8-8.9c-21.3,0-33.8,8.9-33.8,8.9s-8.3,47.6,33.8,68.1
		C666.5,492.2,658.1,444.6,658.1,444.6z"/>
	<path class="st38" d="M622.6,483.2c-0.8,0-1.7-0.3-2.3-1l-12.7-12.7c-1.3-1.3-1.3-3.4,0-4.7c1.3-1.3,3.4-1.3,4.7,0l10.4,10.4
		l16.6-16.6c1.3-1.3,3.4-1.3,4.7,0c1.3,1.3,1.3,3.4,0,4.7l-19,19C624.3,482.9,623.5,483.2,622.6,483.2z"/>
</g>
<g>
	<g>
		<path class="st109" d="M1111.9,777c-10,12.7-24.4,17.9-34.9,21.1c-2.6-17.3-14.2-34.2,3-60.9c-31.2,9.1-47.1,30.8-57.6,52.7
			c-6.5-9.6-13.5-12.1-15.1-26c-13.4,24.8-18.1,71.1,27.1,86.7C1088.2,869.2,1114.1,814.1,1111.9,777z"/>
		<path class="st110" d="M1105.2,792c-11.5,13.3-29,13.2-36.6,15.5c-1.8-12.5-18.1-29.5-9.8-50.5c-20.4,9.5-25.1,33.1-32.7,48.9
			c-4.2-3.8-17.3-13.8-19.2-21.6c-8.4,15.6-6.4,50.9,28.1,62.8C1083.3,863.7,1106.7,816.7,1105.2,792z"/>
		<path class="st111" d="M1093.1,810.1c-5,6.4-28.4,6.7-33.8,8.4c-1.3-8.8-16.8-24.8-11.6-39.3c-12.3,9.9-14.9,23.9-20.2,35
			c-2.9-2.7-15.4-8.5-17.7-15.7c-6,11.1-0.9,36.2,26.9,45.7C1071.1,856,1090.7,828.9,1093.1,810.1z"/>
	</g>
	<g>
		<path class="st109" d="M1095.8,746.9c-4.3,11.6-19.4,20.8-20.6,21.8c-2.6,4.1,5.4,21.9,4,24.5c7.9-0.6,18.5-8.6,18.5-8.6
			S1103.3,764.4,1095.8,746.9z"/>
		<path class="st110" d="M1096.2,754.1c-3.3,8.9-16.5,16.4-17.4,17.1c-2,3.1,4.1,16.8,3.1,18.8c6-0.4,14.2-6.6,14.2-6.6
			S1101.9,767.5,1096.2,754.1z"/>
		<path class="st111" d="M1093.9,765.3c-2.1,5.6-11.6,10.6-12.1,11c-1.2,2,2.6,10.5,1.9,11.8c3.8-0.3,8.2-3.6,8.2-3.6
			S1097.5,773.7,1093.9,765.3z"/>
	</g>
	<g>
		<path class="st109" d="M1033.6,742.8c-3.4,13.6-0.4,24.2-0.4,24.2s-9.1,9.8-12.4,17.9c-1.5-3.8-7.1-7.1-7.8-11.3
			C1014,763.9,1026.2,748.1,1033.6,742.8z"/>
		<path class="st110" d="M1029.4,749.2c-2.6,10.3,0.4,19.2,0.4,19.2s-6.9,7.4-9.4,13.6c-1.1-2.9-4.6-4.5-5.1-7.6
			C1015.9,767,1023.8,753.2,1029.4,749.2z"/>
		<path class="st111" d="M1025.1,759.6c-1.5,6.1,0.4,11.4,0.4,11.4s-4.1,4.4-5.6,8c-0.7-1.7-2.1-1.8-2.4-3.7
			C1017.9,771,1021.8,762,1025.1,759.6z"/>
	</g>
</g>
</svg>
