<?xml version="1.0" encoding="utf-8"?>
<!-- Generator: Adobe Illustrator 26.0.3, SVG Export Plug-In . SVG Version: 6.00 Build 0)  -->
<svg version="1.1" xmlns="http://www.w3.org/2000/svg" xmlns:xlink="http://www.w3.org/1999/xlink" x="0px" y="0px"
	 viewBox="0 0 1122 1122" style="enable-background:new 0 0 1122 1122;" xml:space="preserve">
<style type="text/css">
	.st0{fill:#FFFFFF;}
	.st1{fill:#F7F7F7;}
	.st2{fill:#FCD9BB;}
	.st3{fill:#3B455A;}
	.st4{opacity:0.26;}
	.st5{fill:none;}
	.st6{fill:#7DB5DB;}
	.st7{fill:#305399;}
	.st8{fill:#282523;}
	.st9{fill:#FFFFF1;}
	.st10{fill:#B7B4B2;}
	.st11{fill:#587BC9;}
	.st12{opacity:0.05;}
	.st13{opacity:0.12;}
	.st14{fill:#C4D3D3;}
	.st15{opacity:0.47;}
	.st16{fill:#8C9498;}
	.st17{fill:#6BAC8F;}
	.st18{opacity:0.32;}
</style>
<g id="background">
	<rect x="0" class="st0" width="1122" height="1122"/>
</g>
<g id="shadow">
	<path class="st1" d="M964.7,859H243.49c-22.81,0-41.48,13.05-41.48,29.01l0,0c0,11.05,8.95,20.7,22.03,25.6h-63.51
		c-22.81,0-41.48,13.05-41.48,29.01l0,0c0,15.95,18.66,29.01,41.48,29.01h22.13c-6.18,5.07-9.93,11.63-9.93,18.77v11.6
		c0,15.95,18.66,29.01,41.48,29.01h710.48c22.81,0,41.48-13.05,41.48-29.01v-11.6c0-15.95-18.66-29.01-41.48-29.01l-48.31,0.64
		c3.68,0,9.65-2.03,13.66-6.11c7.03-7.16,7.34-18.05,3.9-27.07c-2.23-5.85-5.8-10.48-14.64-12.22l85.39,0.39
		c22.81,0,41.48-13.05,41.48-29.01l0,0C1006.18,872.05,987.52,859,964.7,859z"/>
</g>
<g id="object">
	<g>
		<g>
			<polygon class="st2" points="542.06,432 552.06,448 557.3,448.03 565.76,441.94 559.01,426 543.36,426.22 			"/>
		</g>
		<g>
			<g>
				<path class="st3" d="M589.11,43.78c0-3.27,0-6.53,0-9.8l-4.51-9.23c-1.12-1.27-3.48-1.22-4.52,0.1l-3.78,9.14v9.8
					c-3.56,0-9.35,2.79-9.35,6.23c0,3.44,2.88,6.23,6.44,6.23h2.91v332.1c0,18.74-9.91,34.32-24.13,33.99
					c-11.03-0.26-20.64-9.63-22.26-24.93c-0.36-3.39-3.25-6-6.78-6h-0.25c-4.07,0-7.27,3.44-6.76,7.35
					c2.81,21.76,20.08,37.33,36.48,37.33c12.81,0,23.32-5.94,29.43-16.64c7.57-13.25,7.09-27.82,7.09-42.35c0-13.77,0-27.54,0-41.32
					c0-19.23,0-38.46,0-57.69c0-21.92,0-43.85,0-65.77c0-21.86,0-43.72,0-65.58c0-19.03,0-38.07,0-57.1c0-11.13,0-22.26,0-33.38
					h1.99c3.56,0,6.44-2.79,6.44-6.23C597.54,46.56,592.66,43.78,589.11,43.78z"/>
			</g>
			<g class="st4">
				<polygon class="st3" points="589.11,229.94 576.16,216.48 576.16,194.26 589.11,194.26 				"/>
			</g>
		</g>
		<g>
			<path class="st5" d="M680.42,261c0.51,0.24,1.01,0.49,1.51,0.74c0.72-0.25,1.45-0.49,2.18-0.74h-2.31H680.42z"/>
		</g>
		<g>
			<path class="st6" d="M487.54,259.07l2.31-14.22c8-49.24,26.92-96.06,55.38-137.03l35.96-51.78
				c-87.56,3.71-162.63,55.62-199.37,129.9c-11.21,22.66-18.84,47.41-22.18,73.5c18.95-5.67,40.89-8.92,64.37-8.92
				C446.97,250.52,468.64,253.63,487.54,259.07z"/>
		</g>
		<g>
			<path class="st6" d="M675.64,230.48L681.8,261h2.31c20.03-6.63,43.77-10.48,69.33-10.48c25.47,0,49.35,3.82,69.62,10.41
				c-4.04-33.31-15.1-64.46-31.65-91.93C750.54,101.18,676.19,55.81,591.24,55.81c-2.5,0-4.99,0.05-7.48,0.13l28.73,42.01
				C647.72,141.27,663.89,185.16,675.64,230.48z"/>
		</g>
		<g>
			<path class="st7" d="M489.85,244.85l-2.31,14.22c0.21,0.06,0.41,0.12,0.62,0.18c24.24-10.78,57.47-16.96,94.17-16.96
				c38.64,0,73.51,6.85,98.1,18.71h1.38l-6.16-30.52c-11.75-45.33-27.92-89.21-63.14-132.53l-28.73-42.01
				c-0.86,0.03-1.72,0.06-2.57,0.1l-35.96,51.78C516.77,148.79,497.85,195.61,489.85,244.85z"/>
		</g>
		<g>
			<path class="st0" d="M487.54,259.07l-0.08,0.49c0.23-0.1,0.47-0.21,0.7-0.31C487.95,259.19,487.75,259.13,487.54,259.07z"/>
		</g>
		<g>
			<polygon class="st2" points="570.99,442.26 571.7,423.63 563.23,408.05 558.82,412.58 561.18,421.5 555.06,437 563.37,448.75 			
				"/>
		</g>
		<g>
			<polygon class="st2" points="564.06,426 561.05,417.01 548.06,414 541.06,419.01 543.06,430 			"/>
		</g>
		<g>
			<polygon class="st7" points="741.61,405.77 775.06,412 852.06,534 840.06,573 799.06,573 			"/>
		</g>
		<g>
			<polygon class="st8" points="800.52,958.48 800.96,971.36 775.36,985 761.88,972.5 774.46,959.24 800.07,945.6 			"/>
		</g>
		<g>
			<polygon class="st6" points="762.67,639.29 811.76,648.14 782.42,778.67 801.73,954.29 776.07,960.16 708.75,748.19 
				708.57,684.84 713.58,647.34 			"/>
		</g>
		<g>
			<polygon class="st6" points="650.93,577.59 649.27,741.97 680.98,953.84 705.1,953.81 720.02,758.23 752.71,562.63 			"/>
		</g>
		<g>
			<polygon class="st8" points="704.95,950.97 704.97,963.85 678.91,976.77 665.85,963.91 678.87,951.01 			"/>
		</g>
		<g>
			<path class="st7" d="M830.75,644.71c1,7.24-0.6,55.85,1.82,56.73c-11.46-1.78-23-3.09-34.57-3.92
				c-30.45-2.19-61.14-1.08-91.36,3.26c-13.69,1.97-28.16,3.72-41.14,8.65c-6.36,2.42-12.47,5.44-18.64,8.3
				c-1.59,0.73-18.19,7.03-18.18,7.3c-0.75-21.26-5.46-41.83-7.93-62.96c-2.5-21.37-3.78-42.89-3.84-64.41
				c-0.09-33.71,11.36-63.82,18.92-96.5c3.75-16.22,6.98-32.67,12.82-48.31c4.57-12.25,13.14-30.37,25.23-36.93
				c4.09-2.22,8.81-2.93,13.42-3.6c13.98-2.03,27.97-4.07,41.95-6.1c5.1-0.74,10.41-1.47,15.31,0.1c7.35,2.35,12.16,9.23,16.4,15.67
				c19.05,28.9,32.76,60.85,42.26,94.34c4.96,17.49,9.7,35.03,13.86,52.72c4.64,19.73,8.57,39.64,11.24,59.73
				C828.63,631,829.71,637.22,830.75,644.71z"/>
		</g>
		<g>
			<polygon class="st7" points="674.06,416 660.06,424 607.06,507 576.06,439 548.06,447 578.11,553.52 614.11,563.52 639.06,534 
							"/>
		</g>
		<g>
			<path class="st9" d="M717.13,495.64c0.53,9.13,2.71,18.08,4.89,26.95c13.26,54.03,39.44,118.47,52.7,172.5
				c-36.21,0-79.67,7.24-125.82,21.67c-1.02-20.7-2.3-61.47-3.32-82.17c-0.66-13.27-1.31-26.59-0.38-39.8
				c1.51-21.31,7.11-41.85,12.68-62.19c10.29-37.6,20.59-75.19,30.88-112.79c0.55-2.01,1.13-4.09,2.4-5.64
				c1.52-1.85,3.78-2.68,5.96-3.38c10.52-3.39,22.47-6.6,33.5-6.05c4.01,10.93-3.7,31.63-6.18,42.52
				C720.84,463.1,716.17,478.95,717.13,495.64z"/>
		</g>
		<g>
			<path class="st10" d="M675.1,328.12c-2.75,7.03-3.43,14.76-2.67,22.26c0.2,2,0.4,4.31-1.03,5.71c-1.53,1.5,0.38,4.03-1.17,2.55
				c-1.55-1.48-6.84-6.66-7.35-8.74c-1.2-4.89-1.92-9.89-2.17-14.91c-0.21-4.37,0-9,2.34-12.7c1.39-2.19,3.42-3.89,5.42-5.54
				c2.9-2.39,5.9-4.82,9.46-6.04c6.14-2.1,10.34-0.41,5.42,4.81C679.83,319.25,676.98,323.3,675.1,328.12z"/>
		</g>
		<g>
			<g>
				<path class="st2" d="M726.73,406.99c-8.56,2.09-17.12,4.17-25.68,6.26c-2.42-7.3-4.31-14.8-5.66-22.41
					c-7.75-0.19-17-1.32-20.74-8.86c-1.18-2.37-1.61-5.08-2.02-7.73c-1.69-10.96-3.38-21.91-5.08-32.87
					c-0.59-3.79-1.17-7.7-0.39-11.41c1.37-6.51,6.62-11.04,11.96-14.2c13.63-8.04,30.55-10.29,45.17-3.84
					c3.89,1.72,7.67,4.1,10.3,7.71c4.05,5.56,4.74,13.06,5.27,20.08c0.49,6.48,0.98,12.97,1.47,19.45
					c0.56,7.46,0.7,16.12-4.46,20.86c-2.74,2.52-6.62,3.47-8.85,6.54C724.11,391.97,727.46,400.06,726.73,406.99z"/>
			</g>
		</g>
		<g>
			<path class="st10" d="M671.61,380.92c2.36,6.63,6.62,12.66,12.74,15.68c6.94,3.42,14.89,2.57,22.39,1.65
				c4.1-0.5,8.21-1.01,12.31-1.51c10.38-1.28,20.48-4.13,24.21-15.81c1.72-5.39,1.64-11.34,0.44-16.95
				c-0.33-1.54-0.76-3.11-1.69-4.35c-0.93-1.23-2.48-2.06-3.89-1.65c-1.8,0.53-2.61,2.66-3.56,4.37c-2.09,3.73-6.36,6.26-10.3,5.01
				c-1.17-0.37-2.23-1.03-3.28-1.7c-0.43-0.27-0.86-0.55-1.3-0.81c-4.35-2.56-9.32-3.3-14.18-3.22c-4.21,0.07-10.51-0.56-13.06,3.41
				c-1.48,2.31-2.97,4.62-4.45,6.93c-0.61,0.95-1.24,1.92-2.11,2.6c-0.9,0.7-1.99,1.05-3.1,1.23c-2.77,0.46-6.08-0.37-7.44-3.05
				c-0.59-1.17-0.73-2.52-0.97-3.82c-0.24-1.3-0.64-2.65-1.59-3.51c-3.61-3.3-3.62,2.79-3.45,4.85
				C669.65,373.89,670.39,377.5,671.61,380.92z M700.07,378.67c3.6,1.72,7.04,1.25,10.52-0.38c1.79-0.84,3.04,2.18,1.25,3.01
				c-4.19,1.97-8.56,2.46-12.88,0.39C697.16,380.83,698.26,377.8,700.07,378.67z"/>
		</g>
		<g>
			<path class="st10" d="M659.04,311.06c-1.11-2.55-2.04-5.18-2.79-7.87c2.66,0.52,5.45,0.35,8.03-0.49
				c-0.23-1.58-0.45-3.16-0.68-4.73c-0.18-1.31,17.43-4.84,18.85-5.17c13.34-3.09,25.53-5.96,38.8-0.51
				c11.34,4.66,19.38,12.92,22.75,24.71c3.22,11.27,1.66,26.83-3.58,37.34c-0.41-3.07,0.29-10.54-0.86-13.34
				c-0.87-2.85-2.29-5.51-4.06-7.9c-3.53-4.77-8.47-8.5-13.89-10.88c-8.64-3.8-18.22-5.07-27.6-5c-8.59,0.06-19.01,0.49-27,3.94
				c-3.84,1.66-4.36,2.76-7.37-0.92c-0.53-0.65-5.14-8.46-4.81-8.51C656.24,311.51,657.64,311.29,659.04,311.06z"/>
		</g>
		
			<rect x="587.18" y="425.47" transform="matrix(0.9255 0.3788 -0.3788 0.9255 269.9329 -222.1249)" class="st11" width="224.7" height="299.08"/>
		<g class="st4">
			<polygon points="559.29,665.31 562.4,666.59 743.72,747.43 846.05,483.69 836.52,482.65 			"/>
		</g>
		
			<rect x="599.14" y="435.12" transform="matrix(0.9255 0.3788 -0.3788 0.9255 269.3972 -222.4778)" class="st1" width="202.03" height="276.71"/>
		<g class="st12">
			<polygon points="658.46,405.77 792.95,460.82 612.02,518.61 			"/>
		</g>
		<g>
			<g class="st13">
				
					<rect x="707.69" y="443.77" transform="matrix(0.9255 0.3788 -0.3788 0.9255 225.6535 -251.3072)" width="87.74" height="8.22"/>
			</g>
			<g>
				<g>
					<path class="st14" d="M786.49,430.88l-1.26-0.52l0.35-0.85c3.27-7.98-1.54-17.5-10.73-21.27l-12.11-4.96
						c-9.19-3.76-19.29-0.34-22.56,7.64l-0.35,0.85l-1.26-0.52c-9.19-3.76-19.29-0.34-22.56,7.64l-6.61,16.15l81.21,33.24
						l6.61-16.15C800.49,444.17,795.68,434.65,786.49,430.88z M773.09,425.79l-21.39-8.76c-2.19-0.89-3.25-3.41-2.35-5.59
						c0.89-2.18,3.41-3.23,5.6-2.34l21.39,8.76c2.19,0.9,3.25,3.41,2.35,5.59C777.8,425.63,775.28,426.68,773.09,425.79z"/>
				</g>
			</g>
		</g>
		<g class="st15">
			<g>
				<path class="st16" d="M682.02,500.13c-9.15-3.75-18.3-7.49-27.45-11.24c-0.77-0.32-1.7,0.07-2.01,0.84
					c-3.74,9.13-7.47,18.25-11.21,27.38c-0.32,0.77,0.07,1.69,0.85,2.01c9.15,3.75,18.3,7.49,27.45,11.24
					c0.42,0.17,0.8,0.15,1.12,0.01c0.02-0.01,0.04-0.02,0.07-0.03c0.01-0.01,0.03-0.01,0.04-0.02c0.33-0.13,0.61-0.39,0.79-0.81
					c3.74-9.13,7.47-18.25,11.21-27.38C683.18,501.37,682.8,500.45,682.02,500.13z M669.38,526.93c-8.2-3.36-16.39-6.71-24.59-10.07
					c3.35-8.18,6.69-16.35,10.04-24.53c8.2,3.36,16.39,6.71,24.59,10.07C676.08,510.57,672.73,518.75,669.38,526.93z"/>
			</g>
			<g>
				<path class="st16" d="M661.3,550.76c-9.15-3.75-18.3-7.49-27.45-11.24c-0.77-0.32-1.7,0.07-2.01,0.84
					c-3.74,9.13-7.47,18.25-11.21,27.38c-0.32,0.77,0.07,1.69,0.85,2.01c9.15,3.75,18.3,7.49,27.45,11.24
					c0.42,0.17,0.8,0.15,1.12,0.01c0.02-0.01,0.04-0.02,0.07-0.03c0.01-0.01,0.03-0.01,0.04-0.02c0.33-0.13,0.61-0.39,0.79-0.81
					c3.74-9.13,7.47-18.25,11.21-27.38C662.46,552,662.07,551.07,661.3,550.76z M648.66,577.55c-8.2-3.36-16.39-6.71-24.59-10.07
					c3.35-8.18,6.69-16.35,10.04-24.53c8.2,3.36,16.39,6.71,24.59,10.07C655.36,561.2,652.01,569.38,648.66,577.55z"/>
			</g>
			<g>
				<path class="st16" d="M640.58,601.38c-9.15-3.75-18.3-7.49-27.45-11.24c-0.77-0.32-1.7,0.07-2.01,0.84
					c-3.74,9.13-7.47,18.25-11.21,27.38c-0.32,0.77,0.07,1.69,0.85,2.01c9.15,3.75,18.3,7.49,27.45,11.24
					c0.42,0.17,0.8,0.15,1.12,0.01c0.02-0.01,0.04-0.02,0.07-0.03c0.01-0.01,0.03-0.01,0.04-0.02c0.33-0.13,0.61-0.39,0.79-0.81
					c3.74-9.13,7.47-18.25,11.21-27.38C641.74,602.62,641.35,601.7,640.58,601.38z M627.94,628.18c-8.2-3.35-16.39-6.71-24.59-10.07
					c3.35-8.18,6.69-16.35,10.04-24.53c8.2,3.36,16.39,6.71,24.59,10.07C634.64,611.83,631.29,620,627.94,628.18z"/>
			</g>
		</g>
		<g>
			<polygon class="st17" points="659.57,503.04 666.74,503.52 667.67,511.25 706.69,501.91 709.91,504.05 663.12,518.37 			"/>
		</g>
		<g>
			<polygon class="st17" points="636.04,554.01 643.21,554.5 644.14,562.23 683.16,552.89 686.37,555.02 639.59,569.34 			"/>
		</g>
		<g>
			<polygon class="st17" points="615.86,601.7 623.03,602.18 623.95,609.91 662.97,600.57 666.19,602.7 619.4,617.03 			"/>
		</g>
		<g class="st18">
			
				<rect x="646.96" y="638.99" transform="matrix(0.9255 0.3788 -0.3788 0.9255 296.9507 -216.7118)" class="st16" width="104.64" height="14.79"/>
		</g>
		<g class="st18">
			
				<rect x="668.91" y="585.37" transform="matrix(0.9255 0.3788 -0.3788 0.9255 278.2752 -229.0207)" class="st16" width="104.64" height="14.79"/>
		</g>
		<g class="st18">
			
				<rect x="690.85" y="531.75" transform="matrix(0.9255 0.3788 -0.3788 0.9255 259.5995 -241.3294)" class="st16" width="104.64" height="14.79"/>
		</g>
		<g>
			<polygon class="st7" points="852.06,534 808.06,519 700.06,531 700.06,556 840.06,573 			"/>
		</g>
		<g>
			<polygon class="st2" points="700.53,534.49 684.06,529 662.06,540 667.06,553 700.53,553 			"/>
		</g>
		<g>
			<path class="st3" d="M555.68,592.52c3.38,1.7,5.16,5.67,5.2,9.45c0.03,3.78-1.4,7.42-3.07,10.82c-2.01,4.1-4.39,8.01-7.1,11.69
				c-1.56,2.11-3.28,4.19-5.55,5.49c-2.27,1.31-5.22,1.72-7.51,0.44c-1.57-0.88-2.64-2.41-3.66-3.89c-0.72-1.05-1.47-2.18-1.5-3.45
				c-0.02-1.07,0.48-2.07,0.96-3.03C536.77,613.5,544.97,587.13,555.68,592.52z"/>
		</g>
		<g>
			<polygon class="st3" points="371.06,427 338.06,457 294.06,565 307.06,601 348.06,592 			"/>
		</g>
		<g>
			<path class="st8" d="M380.73,951.42v21.48l14.32,14.32h11.11c4.76,0,7.86-5.01,5.73-9.27l-2.52-5.05l-7.16-14.32l-7.16-14.32
				L380.73,951.42z"/>
		</g>
		<g>
			<path class="st8" d="M452.34,944.26v21.48l14.32,14.32l11.87-3.96c4.41-1.47,5.74-7.07,2.45-10.36l0,0l-7.16-14.32l-7.16-14.32
				L452.34,944.26z"/>
		</g>
		<g>
			<polygon class="st7" points="333.55,714.93 358.67,845.06 375.46,958.58 408.42,958.58 416.66,843.23 441.38,694.92 			"/>
		</g>
		<g>
			<polygon class="st7" points="489.51,703.47 489.51,849.42 477.9,949.75 444.97,951.15 433.14,851.47 412.58,714.93 			"/>
		</g>
		<g>
			<g>
				<path class="st2" d="M402.84,433.12c8.64,0.84,17.28,1.68,25.92,2.52c1.33-7.62,2.11-15.36,2.34-23.12
					c7.53-1.31,16.38-3.77,18.97-11.82c0.81-2.53,0.85-5.29,0.87-7.99c0.1-11.15,0.2-22.3,0.3-33.45c0.03-3.86,0.05-7.83-1.24-11.41
					c-2.26-6.28-8.02-10.04-13.67-12.4c-14.42-6.04-31.25-5.83-44.58,2.7c-3.55,2.27-6.9,5.19-8.95,9.16
					c-3.16,6.12-2.78,13.68-2.3,20.75c0.44,6.53,0.88,13.05,1.32,19.58c0.51,7.51,1.6,16.14,7.3,20.12c3.03,2.11,6.94,2.5,9.55,5.23
					C403.27,417.79,401.15,426.33,402.84,433.12z"/>
			</g>
		</g>
		<g>
			<path class="st10" d="M412.3,355.85c-5.31,7.23-11.27,13.72-19,18.3c-4.75,2.82-9.72,4.06-9.91,10.62
				c-0.18,6.24,3.94,13.07,9.04,16.23c0.88,0.54,1.83,1.04,2.42,1.9c1.15,1.69,0.31,4.22-1.34,5.41c-1.65,1.19-3.82,1.32-5.83,1.1
				c-6.1-0.67-11.65-4.16-15.92-8.66c-9.01-9.48-12.79-23.44-11.3-36.56c1.47-12.93,7.66-25.66,16.76-34.68
				c8.4-8.32,16.7-16.96,29.24-17.58c7.07-0.35,19.47,3.72,19.83,12.64C426.65,333.94,417.33,348.52,412.3,355.85z"/>
		</g>
		<g>
			<path class="st10" d="M433.47,353.16c4.94,3.72,10.72,7.21,12.78,12.91c0.9,2.5,0.98,5.19,0.98,7.84
				c-0.01,4.73-0.25,9.46-0.73,14.17c-0.5,4.9-1.46,10.48-4.83,14.4c-1.37,1.59-11.1,8.35-2.76,9.54c2.44,0.35,4.71-1.17,6.59-2.7
				c14.9-12.12,24.05-31.12,22-49.77c-1.23-11.24-6.81-21.99-15.24-29.85c-7.7-7.18-22.56-15.75-33.29-9.39
				C404.69,328.79,426.06,347.57,433.47,353.16z"/>
		</g>
		<g>
			<path class="st3" d="M441.57,426.58h-70.36l-70.36,331.7c0,0,140.72,20.1,231.18,0l-50.26-311.6L441.57,426.58z"/>
		</g>
		<g>
			<path class="st11" d="M476.29,440.8c-21.04,5.8-42.41,26.87-41.67,47.63c-12.98-16.22-48.48-16-68.21-6.68
				c-52.07,24.61-46.64,95.1-7.94,129.51c20.83,18.52,45.96,32.14,71.92,43.12c21.74,9.19,75.25,25.94,75.34,25.78
				c0.17,0.06,29.81-47.53,40.3-68.67c12.53-25.25,22.69-51.97,26.41-79.59C579.36,480.58,531.82,425.5,476.29,440.8z"/>
		</g>
		<g class="st13">
			<path d="M564,541.2c-7.03,22.18-16.56,44.1-28.27,64.22c-11.33,19.46-26.09,38.23-45.66,49.93c-9.4,5.62-19.39,9.03-29.59,10.21
				c22.38,7.71,46.36,15.17,46.42,15.07c0.17,0.06,29.81-47.53,40.3-68.67c12.53-25.25,22.69-51.97,26.41-79.59
				c1.2-8.94,0.75-17.99-1.1-26.76C570.63,517.66,567.68,529.57,564,541.2z"/>
		</g>
		<g>
			<path class="st0" d="M556.38,523.41c-13.95,5.6-27.89,11.21-41.84,16.81c-12.39-17.76-24.77-35.52-37.16-53.27
				c-1.79-2.57-5.68-0.88-5.55,2.06c1.78,38.25,3.56,76.49,5.33,114.74c0.1,2.22,0.21,4.43,0.31,6.65
				c-15.77-19.76-31.53-39.53-47.3-59.29c-2.53-3.17-5.06-6.34-7.59-9.51c-1.52-1.91-5.23-1.52-5.51,1.26
				c-1.33,12.94-2.67,25.88-4,38.81c-15.77,5.85-31.53,11.69-47.3,17.54c-3.7,1.37-1.57,7.13,2.13,5.75
				c16.36-6.07,32.72-12.14,49.08-18.2c0.96-0.35,1.85-1.29,1.96-2.35c1.14-11.09,2.29-22.18,3.43-33.26
				c16.18,20.28,32.35,40.55,48.53,60.83c2.53,3.17,5.06,6.34,7.59,9.51c1.9,2.38,5.69,1.02,5.55-2.06
				c-1.78-38.25-3.56-76.49-5.33-114.74c-0.09-1.83-0.17-3.66-0.26-5.49c10.83,15.52,21.65,31.04,32.48,46.57
				c0.75,1.08,2.33,1.58,3.56,1.08c14.68-5.9,29.35-11.8,44.03-17.69C562.17,527.7,560.05,521.94,556.38,523.41z"/>
		</g>
		<g>
			<polygon class="st3" points="294.06,565 329.06,553 443.06,597 439.06,618 307.06,604 			"/>
		</g>
		<g>
			<g>
				<g>
					<path class="st2" d="M558.08,603.87c0.03-0.49,0.03-0.98-0.01-1.47c-0.13-1.54-0.64-3.83-1.63-5.07c0,0-3.72-3.49-3.31-1.7
						l0.86,3.7l-9.53-5.87l-9,1.27l-5.59,10.72l2.25,12.29c6.33,2.49,12.58,6.64,18.47,0.89c1.75-1.71,2.97-3.87,4.16-5.99
						C556.29,609.88,557.88,606.96,558.08,603.87z"/>
				</g>
			</g>
		</g>
		<g>
			<polygon class="st2" points="443.06,597 459.16,592.49 459.06,598 473.06,601 473.06,611 455.06,617 440.06,613 			"/>
		</g>
	</g>
</g>
</svg>
