<?xml version="1.0" encoding="utf-8"?>
<!-- Generator: Adobe Illustrator 26.0.3, SVG Export Plug-In . SVG Version: 6.00 Build 0)  -->
<svg version="1.1" xmlns="http://www.w3.org/2000/svg" xmlns:xlink="http://www.w3.org/1999/xlink" x="0px" y="0px"
	 viewBox="0 0 1100 800" style="enable-background:new 0 0 1100 800;" xml:space="preserve">
<style type="text/css">
	.st0{fill:#FFFFFF;}
	.st1{fill:#F7F7F7;}
	.st2{fill:#C67A6D;}
	.st3{fill:#BCBEC0;}
	.st4{fill:#305399;}
	.st5{fill:#7DB5DB;}
	.st6{fill:#3B455A;}
	.st7{fill:#FEE7DE;}
	.st8{fill:#413E66;}
	.st9{opacity:0.14;}
	.st10{fill:#FFFDF0;}
	.st11{fill:#445E7A;}
	.st12{opacity:0.1;fill:#FFFFFF;}
	.st13{opacity:0.1;fill:#000100;}
	.st14{fill:#EFBFA5;}
	.st15{fill:#0A98C0;}
	.st16{fill:#587BC9;}
	.st17{fill:#E4C9AA;}
	.st18{fill:#E2E2E2;}
	.st19{opacity:0.79;}
	.st20{fill:#3C3D43;}
	.st21{opacity:0.1;}
	.st22{fill:#687480;}
	.st23{fill:#9CBAEF;}
	.st24{opacity:0.06;fill:#FFFFFF;}
	.st25{fill:#FFFFEB;}
	.st26{fill:#8C343E;}
	.st27{fill:#294D87;}
	.st28{fill:#FFFFED;}
	.st29{fill:#EBCEB1;}
	.st30{fill:#D6C0B9;}
	.st31{opacity:0.2;}
	.st32{fill:#FFFFF1;}
	.st33{opacity:0.25;}
</style>
<g id="background">
	<rect class="st0" width="1100" height="800"/>
</g>
<g id="shadow">
	<g>
		<path class="st1" d="M512.11,648.01c-29.87,0.08-59.75,0.77-89.57,3.93c-11.24,1.19-22.25,3.81-33.52,4.87
			c-22.51,2.11-44.62,6.05-67.21,7.86c-18.19,1.46-36.46,2.33-54.6,4.18c-17.01,1.74-35.83,1.34-52.71-1.54
			c-12.49-2.13-25.04-3.33-37.33-6.74c-13.74-3.82-28.67-6.56-42.99-6.46c-20.42,0.14-40.3,0.16-59.83,6.91
			c-6.86,2.37-15.25,6.26-20.46,11.24c-11.92,11.38-13.54,39.78-1.63,51.59c20.05,19.87,62.84,27.66,90.95,28.03
			c30.8,0.4,60.71-1.77,91.56-3.05c28.66-1.19,57.25-2.88,85.95-2.82c58.63,0.12,117.27,0,175.79-3.73
			c54.98-3.5,110.11-2.3,165.21-2.3c56.51,0,112.63,0.42,168.73,7.57c24.44,3.12,49.35,4.21,73.91,6.39
			c22,1.95,43.14-0.04,65.06-1.85c18.4-1.52,36.68-6.02,53.4-13.62c13.23-6.02,36.82-24.73,40.88-39.1
			c11.38-40.29-160.33-39.32-186.69-39.23c-29.49,0.1-59.22,1.03-88.69-0.05c-12.4-0.45-24.61-2.76-36.71-5.28
			c-12.05-2.52-24.19-1.88-36.41-2.94c-50.96-4.41-102.04-3.77-153.16-3.77C545.4,648.1,528.75,647.97,512.11,648.01z"/>
	</g>
</g>
<g id="object">
	<g>
		<g>
			<g>
				<path class="st2" d="M565.18,323.57c0.33-0.05,0.68-0.09,1-0.04c3.01,0.46,4.3,2.5,7.05,3.76c1.23,0.56,4.16-1.31,4.57,1.49
					c0.15,1.03,0.16,3.61,0.47,5.81c0.44,3.21,2.93,7.01,5.47,9.67c9.98,10.43,22.51,17.85,35.15,24.8c0.72,0.4,1.48,0.8,2.3,0.82
					c1.47,0.04,2.66-1.13,3.68-2.19c4.74-4.92,9.93-9.39,15.5-13.34c4.96-3.53,10.38-6.71,16.38-7.75c6-1.04,12.72,0.38,16.81,4.89
					c3.07,3.38,4.35,8.29,3.33,12.73c-2.53,11.03-18.81,13.87-27.87,17.3c-8.58,3.25-17.38,5.9-26.33,7.92
					c-1.1,0.25-2.25,0.49-3.36,0.29c-1.19-0.22-2.22-0.92-3.21-1.61c-12.77-8.85-24.69-18.79-36.47-29.01
					c-3.24-2.81-4.59-6.96-7.6-9.54c-1.93-1.64-4.62-1.54-6.78-2.69c-2.14-1.13-4.65-3.17-6.22-5.01c-3.09-3.63-1.96-8.42-1.38-12.7
					c0.14-1.07,0.24-1.79,0.82-2.61c0.95-1.33,2.47-1.8,3.97-2.32C563.35,323.94,564.26,323.7,565.18,323.57z"/>
			</g>
			<g>
				<path class="st3" d="M651.31,377.79c-5.7-7.16-11.39-14.31-17.09-21.47c0.37,0.46,30.89-27.83,32.77-29.45
					c7.16-6.19,14.62-12.55,23.7-15.19c19.4-5.63,35.98,15.17,24.22,32.45c-12.76,18.76-33.76,34.23-55.21,41.44
					c-0.47,0.16-0.96,0.31-1.44,0.22c-0.66-0.13-1.14-0.69-1.56-1.22C654.91,382.31,653.11,380.05,651.31,377.79z"/>
			</g>
		</g>
		<g>
			<g>
				<g>
					<g>
						<g>
							<g>
								<polygon class="st2" points="678.86,658.03 679.17,680.56 666.16,680.74 665.81,655.76 								"/>
							</g>
						</g>
						<g>
							<g>
								<path class="st4" d="M667.31,677.21l11.32,3.84l3.37,3.73l-0.57,8.83l-30.59,2.44l0,0c-2.58-3.86-0.9-9.1,3.41-10.62
									l1.42-0.5L667.31,677.21z"/>
							</g>
						</g>
					</g>
				</g>
				<g>
					<g>
						<g>
							<g>
								<g>
									<g>
										<polygon class="st2" points="772.62,636.43 781.24,657.16 769.27,662.39 759.71,639.4 										"/>
									</g>
								</g>
								<g>
									<g>
										<path class="st4" d="M769.49,662.77c0.43-0.49,0.93-0.95,1.51-1.38c1.44-1.08,13.04-7.39,14.03-4.54
											c0.16,0.46,0.11,0.97,0.05,1.46c-0.96,8.18-2.83,16.25-5.56,24c-1.17,3.31-2.95,6.98-6.29,7.81
											c-1.46,0.36-3,0.09-4.47-0.25c-2.17-0.5-4.3-1.17-6.37-1.98c-0.76-0.3-1.56-0.67-1.96-1.39
											c-0.79-1.46,0.59-3.19,2.02-3.98c1.43-0.79,3.18-1.35,3.88-2.86c0.31-0.68,0.36-1.44,0.4-2.19
											C767.04,671.92,766.12,666.59,769.49,662.77z"/>
									</g>
								</g>
							</g>
						</g>
						<g>
							<path class="st5" d="M690.88,553.6c4.27,20.03,16.47,34.43,29.51,49.16c14.92,16.86,28.95,34.54,42.01,52.95
								c5.65-2.42,11.29-4.83,16.94-7.25c-4.72-28.15-17.73-53.98-27.81-80.61c-7.01-18.5-12.68-38.07-12.99-58.06
								c-0.15-9.94,2.19-19.04,3.45-28.71c1.56-11.98,1.65-24.26,3.05-36.3c0.47-4.04,0.74-8.81-2.28-11.43
								c-1.35-1.17-3.12-1.66-4.85-2C673.69,418.57,682.76,515.5,690.88,553.6z"/>
						</g>
					</g>
				</g>
				<path class="st5" d="M743.19,448.54c0.03-12.15-1.41-23.87-3.63-32.81c-18.27-1-38.91,1.07-56.98,4.83
					c-17.66,3.68-28.67,7.62-28.8,27.27c-0.23,36.16-14,66.96-19.95,101.72c-3.46,20.2,2.52,38.27,9.13,56.97
					c7.57,21.41,14.02,43.23,19.3,65.35c6.12-0.04,12.24-0.07,18.36-0.11c6.04-27.89,3.55-56.85,4.06-85.41
					c0.36-19.85,2.34-40.16,9.44-58.78c7.81-20.47,19.06-12.32,31.97-24.19C738.65,491.84,743.13,469.54,743.19,448.54z"/>
			</g>
			<g>
				<path class="st3" d="M722.45,309.38c2.02,1.6,3.79,3.54,5.54,5.46c1.57,1.72,3.14,3.44,4.71,5.15
					c5.44,5.95,8.12,14.76,10.45,22.36c12.26,40.01,16.67,94.89,8.71,136.7c-30.2,2.68-65.16-5.14-95.29-9.36
					c-2.93-0.41-6.25-1.08-7.77-3.69c-0.92-1.58-0.95-3.52-0.95-5.36c0-26.54,5.47-55.06,10.59-81.22
					c2.16-11.04,4.83-21.99,8.24-32.69c3.62-11.33,7.7-23.57,16.16-32.14c9.06-9.17,26.4-13.7,37.74-6.54
					C721.23,308.46,721.85,308.9,722.45,309.38z"/>
			</g>
			<g>
				<g>
					<g>
						<path class="st2" d="M719.15,314.96c0.55-3.61,1.09-7.22,1.64-10.83c0.73-0.36,1.43-0.76,2.08-1.18
							c12.6-8.25,33.72-52.57,0.15-62.5c-30.49-9.01-28.9,34.04-22.95,51.98c1.02,3.07,2.38,5.97,4.39,8.49
							c1.38,1.72,1.69,1.39,1.49,3.39c-0.19,1.93-2.07,4.12-2.49,6.15c-0.45,2.17-0.28,4.58,0.95,6.41
							c0.75,1.12,1.85,1.95,3.02,2.59c1.86,1.01,4.03,1.57,6.1,1.17C715.98,320.15,718.76,317.54,719.15,314.96z"/>
					</g>
				</g>
				<g>
					<g>
						<g>
							<g>
								<path class="st6" d="M692.9,276.18c1.87,5.73,4.48,11.19,7.75,16.21c-0.18-10.59,1.08-21.21,3.71-31.46
									c0.2-0.78,0.4-1.67-0.02-2.35c-0.39-0.64-1.17-0.88-1.89-1.04C689.61,254.69,689.65,266.2,692.9,276.18z"/>
							</g>
						</g>
					</g>
					<g>
						<g>
							<g>
								<g>
									<path class="st6" d="M726.63,292.14c2.06,2.97,6.57,2.17,9.75,0.53c13.05-6.73,20.73-22.94,17.83-37.63
										c-2.42-12.29-17.52-21.51-20.57-6.28c-1.08,5.4,2.12,12.88,1.39,18.88C733.98,276.2,730.09,284.39,726.63,292.14z"/>
								</g>
							</g>
						</g>
						<g>
							<g>
								<g>
									<path class="st6" d="M693.04,229.16c-1.46,0.59-2.95,1.22-4.52,1.85c-3.25,1.3-5.6,1.74-8.94-0.21
										c-0.96-0.56-7.37-6.78-5.82-8.07c-10.23,8.56-1.82,21.06,2.02,29.91c2.59,5.96,3.12,14.38,8.93,18.28
										c6.39,4.29,10.78-1.13,16.58-3.56c5.12-2.14,10.65-3.3,15.86-5.21c8.64-3.16,21.5-8.72,18.64-20.51
										c-3.34-13.76-16.93-17.19-29.13-16.14C701.43,225.95,697.35,227.41,693.04,229.16z"/>
								</g>
							</g>
						</g>
					</g>
				</g>
			</g>
		</g>
		<g>
			<g>
				<g>
					<path class="st7" d="M730.75,462.35c-0.23-0.25-0.47-0.5-0.61-0.8c-1.35-2.73-0.42-4.95-0.97-7.94
						c-0.25-1.33-3.46-2.66-1.41-4.6c0.76-0.72,2.86-2.21,4.49-3.72c2.38-2.2,4.06-6.43,4.77-10.03c1.35-6.82-2.65-26.62,5.64-29.98
						c19.49-7.88,5.79,32.7,5.43,36.51c-0.24,2.52,1.39,4.67,1.69,7.09c0.3,2.4,0.08,5.63-0.53,7.97c-1.2,4.61-5.77,6.44-9.61,8.42
						c-0.96,0.49-1.6,0.83-2.61,0.82c-1.64-0.01-2.9-0.99-4.18-1.92C732.1,463.64,731.38,463.03,730.75,462.35z"/>
				</g>
			</g>
			<path class="st3" d="M732.1,316.37c0.85,0.9,1.8,2.29,3.17,3.84c7.17,8.18,11.64,21.55,15.13,31.68
				c7.44,21.59,10.14,44.83,7.57,67.53c-0.09,0.83-0.24,1.75-0.89,2.28c-0.64,0.52-1.55,0.49-2.38,0.44
				c-5.15-0.36-10.3-0.71-15.45-1.07c-1.11-0.08-2.27-0.17-3.2-0.79c-1.81-1.2-1.93-3.76-1.91-5.93c0.14-14.2-1.56-28.42-5.03-42.18
				c-1.64-6.51-6.08-14.19-6.54-20.76c-0.41-5.91,2.15-12.68,1.77-19.15c-0.23-3.88-0.56-9.65,1.76-13.06
				C729.19,314.72,730.42,314.59,732.1,316.37z"/>
		</g>
	</g>
	<g>
		<g>
			<path class="st6" d="M725.84,712.73l-39.89-10.99c-2.7-0.74-4.29-3.54-3.55-6.24l18.94-68.77l49.68,13.68l-18.94,68.77
				C731.33,711.89,728.54,713.47,725.84,712.73z"/>
			<path class="st6" d="M446.36,635.75l-32.77-9.03c-4.67-1.29-7.41-6.11-6.13-10.78l17.96-65.21l49.68,13.68l-17.96,65.21
				C455.86,634.3,451.03,637.04,446.36,635.75z"/>
			<path class="st8" d="M738.06,405.46l-175.04-48.21c-13.4-3.69-27.84,2.15-35.95,14.54l-54.43,83.15l-0.05-0.01l-44.63,46.31
				c-1.79,1.86-3.09,4.14-3.78,6.64l-16.04,58.24c-2.26,8.19,2.51,16.67,10.68,19.01l317.98,90.77c8.28,2.36,16.9-2.48,19.18-10.78
				l15.45-56.08c0.56-2.03,0.7-4.16,0.41-6.25l-9.46-68.04l-0.91-0.25l0.08-96.56C761.54,422.51,751.99,409.29,738.06,405.46z"/>
			<path class="st5" d="M710.61,520.48l-189.34-52.15c-9.87-2.72-13.9-15.08-7.88-24.17l40.86-61.67c3.71-5.6,10.26-8.22,16.34-6.55
				l148.19,40.82c6.32,1.74,10.67,7.73,10.7,14.72l0.29,73C729.81,515.1,720.2,523.12,710.61,520.48z"/>
			<g class="st9">
				<path class="st10" d="M729.38,488.02c-11.25-11.19-23.12-21.75-34.79-32.5c-14.62-13.47-28.82-27.43-43.38-40.97
					c-7.62-7.09-15.21-14.21-22.68-21.45l-58.27-16.05c-2.51-0.69-5.09-0.64-7.53,0.04c0.08,0.08,0.17,0.16,0.25,0.25
					c7.51,7.37,15.08,14.69,22.61,22.05c13.48,13.15,26.86,26.41,39.7,40.2c12.75,13.7,24.92,27.92,37.86,41.46
					c12.14,12.7,24.54,25.15,36.82,37.71l10.32,2.84c9.59,2.64,19.2-5.38,19.16-16L729.38,488.02z"/>
				<path class="st10" d="M649.02,479.68c-13.19-14.07-25.66-28.79-39.03-42.7c-13.23-13.77-26.93-27.08-40.62-40.39
					c-4.86-4.73-9.71-9.47-14.55-14.22c-0.32,0.39-0.62,0.8-0.91,1.23l-18.86,28.47c3.73,4.08,7.56,8.08,11.23,12.16
					c21.65,24.1,43.22,48.39,66.81,70.59l68.97,19C670.96,502.53,659.85,491.24,649.02,479.68z"/>
			</g>
			<path class="st6" d="M759.21,519.29l11.59-2.3c2.09-0.41,4.26-0.08,6.12,0.95l11.9,6.55c2.96,1.63,4.77,4.78,4.68,8.16l0,0
				c-0.12,4.4-3.39,8.08-7.75,8.71l-15.53,2.25c-1.41,0.2-2.84,0.07-4.19-0.38l-8.07-2.72c-3.76-1.27-6.25-4.84-6.15-8.81l0.1-3.77
				C752.04,523.69,755.06,520.11,759.21,519.29z"/>
			<path class="st11" d="M480.42,442.5l-8.78-7.91c-1.58-1.42-3.61-2.25-5.74-2.32l-13.58-0.47c-3.38-0.12-6.55,1.66-8.2,4.61l0,0
				c-2.15,3.84-1.23,8.68,2.19,11.45l12.19,9.88c1.1,0.89,2.4,1.52,3.79,1.82l8.32,1.79c3.88,0.84,7.85-0.96,9.79-4.42l1.85-3.29
				C484.32,449.95,483.56,445.33,480.42,442.5z"/>
			<path class="st12" d="M765.66,629.93l-9.69,35.17c-2.29,8.3-10.9,13.14-19.18,10.78L418.8,585.11
				c-8.17-2.33-12.94-10.81-10.68-19.01l9.74-31.04L765.66,629.93z"/>
			<polygon class="st13" points="416.24,584.12 465.72,598.51 461.42,614.12 414.64,589.92 			"/>
			<polygon class="st13" points="691.26,663.34 740.74,677.73 736.44,693.34 689.67,669.14 			"/>
			<g>
				<g>
					
						<ellipse transform="matrix(0.9108 -0.4129 0.4129 0.9108 -184.2849 353.7984)" class="st1" cx="726.6" cy="603.36" rx="22.79" ry="22.79"/>
				</g>
				<path class="st13" d="M732.18,618.76c4.3-0.77,8.51-2.74,11.26-6.13c-0.94,4.1-4.01,7.64-7.93,9.16
					c-1.33,0.52-2.74,0.81-4.15,1.05c-1.49,0.25-3,0.45-4.51,0.39c-4.07-0.17-8-2.34-10.32-5.7c0.76,1.09,5.28,1.45,6.41,1.53
					C726.02,619.29,729.14,619.3,732.18,618.76z"/>
			</g>
			<g>
				<g>
					
						<ellipse transform="matrix(0.7897 -0.6136 0.6136 0.7897 -232.457 394.709)" class="st1" cx="459.42" cy="536.37" rx="22.79" ry="22.79"/>
				</g>
				<path class="st13" d="M465.01,551.77c4.3-0.77,8.51-2.74,11.26-6.13c-0.94,4.1-4.01,7.64-7.93,9.16
					c-1.33,0.52-2.74,0.81-4.15,1.05c-1.49,0.25-3,0.45-4.51,0.39c-4.07-0.17-8-2.34-10.32-5.7c0.76,1.09,5.28,1.45,6.41,1.53
					C458.85,552.31,461.96,552.31,465.01,551.77z"/>
			</g>
		</g>
	</g>
	<g>
		<polygon class="st14" points="329.44,250.86 334.25,236.76 330.88,228.02 322.96,227.18 321.46,236.86 319.56,235.45 
			316.13,236.38 318.83,245.55 319.88,250.98 		"/>
		<path class="st3" d="M268.12,328.13c2.66-1.46,5.29-3.04,8.07-4.35c7.88-3.71,15.66-7.62,23.34-11.73
			c4.7-2.51,9.52-5.23,12.68-9.53c1.79-2.43,2.96-5.24,4.07-8.04c5.89-14.79,10.76-29.98,14.56-45.44
			c-3.2-1.54-11.98-5.74-15.01-2.87c-1.02,0.97-1.59,2.32-2.14,3.62c-2.59,6.2-5.22,12.38-7.91,18.54
			c-3.01,6.88-6.11,13.79-10.46,19.91c-0.56,0.79-1.17,1.59-2,2.1c-0.89,0.54-1.95,0.7-2.98,0.85c-15.8,2.28-25.16-3.6-40.67,0.28
			c-3.5,0.84-13.16,11.56-15.34,14.42c-1.7,2.24-2.09,5.19-2.25,8c-0.22,3.72-0.11,7.62,1.6,10.93c1.99,3.85,5.96,6.42,10.16,7.49
			c4.2,1.08,8.63,0.82,12.92,0.17C260.91,331.86,264.54,330.1,268.12,328.13z"/>
	</g>
	<polygon id="XMLID_200_" class="st15" points="567.91,150.47 536.74,243.28 572.96,245.27 569.83,326.4 607.76,229.65 
		567.23,222.16 	"/>
	<polygon id="XMLID_199_" class="st15" points="666.68,247.16 615.33,282.31 623.62,296.93 584.88,336.73 639.8,302.12 
		632.97,283.11 	"/>
	<g>
		<g>
			<polygon class="st4" points="995.15,471.12 995.15,491.81 967.57,581.47 972.87,678.02 960.08,680.38 929.64,564.22 
				930.69,530.74 943.43,462.46 			"/>
			<polygon class="st4" points="973.27,495.62 1001.22,689.69 1014.2,690.6 1021.54,581.82 1038.79,478.38 			"/>
			<polygon class="st6" points="960.08,680.38 946.91,694.31 950.72,701.37 977.87,688.34 972.87,678.02 			"/>
			<polygon class="st6" points="1001.22,689.69 985,699.89 986.91,707.68 1016.47,701.84 1014.2,690.6 			"/>
		</g>
		<path class="st16" d="M978.04,316.81l38.42-9.6c0,0,17.45,23.59,26.37,83.28c8.85,59.23,6.65,147.21,6.65,147.21
			s-114.44-23.36-133.22-27.05l37.04-116.07L978.04,316.81z"/>
		<g>
			<polygon class="st14" points="881.46,383.15 867.28,378.85 868.85,372.7 879.22,373.5 878.61,370.25 890.3,375.41 889.53,382.01 
							"/>
			<polygon class="st16" points="990.56,330.55 953.41,375.02 886.93,372.33 886.06,385.52 963.85,406.08 1021.54,361.89 			"/>
		</g>
		<g>
			<path class="st14" d="M978.22,263.95c10.38,4.23,23.15-1.28,32.91,4.28c6.35,3.61,9.76,11.39,9.63,18.86
				c-0.06,3.48-0.84,7.05-2.8,9.89c-1.28,1.85-3.01,3.32-4.87,4.53c-2.49,1.61-5.27,2.72-8.14,3.34c0.64,2.58,1.5,5.09,2.59,7.51
				c-5.51,0.29-10.09,11.6-15.6,11.89c-0.17-3.17-1.27-17.36-1.44-20.52c-1.45-0.56-2.85-1.25-4.17-2.09
				c-7.97-5.08-12.72-15.04-11.75-24.66C975.03,272.47,976.62,268.17,978.22,263.95z"/>
			<polygon class="st6" points="979.87,268.03 1014,274.77 1012.24,301.95 1023.91,297.59 1032.45,254.96 986.38,238.92 
				962.48,244.2 959.5,256.28 973.54,274.19 			"/>
		</g>
	</g>
	<g>
		<g>
			<polygon class="st17" points="924.55,219.61 926.71,204.95 933.02,205.61 933.76,215.97 936.89,214.9 933.5,227.22 
				926.86,227.43 			"/>
			<polygon class="st16" points="992.63,319.78 943.18,289.58 936.05,223.43 922.88,224.52 913.99,304.48 966.19,355.04 			"/>
		</g>
	</g>
	<g>
		<g>
			<path class="st6" d="M922.75,364.23l-75.76,15.97c-1.63,0.34-3.23-0.7-3.58-2.33l-26.16-124.12c-0.34-1.63,0.7-3.23,2.33-3.58
				l75.76-15.97c1.63-0.34,3.23,0.7,3.58,2.33l26.16,124.12C925.43,362.29,924.38,363.89,922.75,364.23z"/>
			
				<rect x="833.2" y="247.89" transform="matrix(0.9785 -0.2062 0.2062 0.9785 -44.1083 186.0678)" class="st18" width="74.67" height="113.48"/>
			
				<rect x="879.17" y="365.33" transform="matrix(0.9785 -0.2062 0.2062 0.9785 -56.5538 190.0801)" class="st0" width="8.94" height="2.06"/>
		</g>
		<g class="st19">
			<path class="st6" d="M884.95,331.8l-0.62,4.13l-12.8-4.71l0.23-1.53l0.02,0c-0.01,0-0.01,0-0.02,0l-0.82,5.45
				c-0.43,2.87,1.56,5.54,4.45,5.96l2.75,0.4c2.89,0.42,5.59-1.56,6.02-4.44L884.95,331.8L884.95,331.8z"/>
			<path class="st20" d="M871.78,329.69l-0.02,0l-0.23,1.53l12.8,4.71l0.62-4.13l-12.5-1.94C872.22,329.82,872,329.76,871.78,329.69
				z"/>
			<path class="st21" d="M871.78,329.69l-0.02,0l-0.23,1.53l12.8,4.71l0.62-4.13l-12.5-1.94C872.22,329.82,872,329.76,871.78,329.69
				z"/>
			<path class="st22" d="M870.26,328.74c-0.24-0.23-0.45-0.5-0.62-0.78C869.81,328.25,870.02,328.51,870.26,328.74z"/>
			<path class="st22" d="M869.67,321.72l-0.55,3.61l0.72-3.83C869.78,321.57,869.73,321.65,869.67,321.72z"/>
			<path class="st22" d="M869.46,327.63c-0.11-0.23-0.2-0.47-0.26-0.72C869.26,327.15,869.35,327.4,869.46,327.63z"/>
			<path class="st22" d="M870.95,329.29c-0.18-0.12-0.36-0.25-0.52-0.39C870.59,329.05,870.76,329.18,870.95,329.29z"/>
			<path class="st6" d="M876.47,302.52l-4.25,5.6c-0.26,0.35-0.46,0.73-0.6,1.14c1.04,2.58,1.15,5.41,0.39,8.02l3.74,0.54
				c-0.24-0.81-0.32-1.67-0.19-2.56c0.49-3.21,3.5-5.43,6.73-4.96c3.23,0.47,5.45,3.46,4.97,6.66c-0.13,0.88-0.46,1.68-0.92,2.37
				l25.79,3.7l-5.56-24.62l-11.33-1.66c-2.63-0.38-4.05-3.42-2.78-5.93l8.56-16.95l-1.51-6.69c-2.42,0.58-4.56,2.27-5.77,4.7
				l-7.72,15.49l3.69,4.56L876.47,302.52z"/>
			<path class="st22" d="M872.46,329.86l12.5,1.94l0,0l30.21,4.7l0,0L872.46,329.86c-0.54-0.08-1.05-0.27-1.49-0.54
				c0.25,0.15,0.51,0.27,0.79,0.37c0.01,0,0.01,0,0.02,0C872,329.76,872.22,329.82,872.46,329.86z"/>
			<path class="st5" d="M895.24,296.76l11.33,1.66l-2.33-10.33c-1.31-1.13-2.61-2.26-3.92-3.39c-1.07-0.93-2.18-1.83-3.27-2.76
				l3.98-7.87c0.01-0.02,0.02-0.03,0.03-0.05l-0.03-0.14l-8.56,16.95C891.19,293.35,892.61,296.38,895.24,296.76z"/>
			<path class="st23" d="M897.05,281.94c1.09,0.93,2.2,1.83,3.27,2.76c1.3,1.13,2.61,2.26,3.92,3.39l-3.18-14.07
				c-0.01,0.02-0.02,0.03-0.03,0.05L897.05,281.94z"/>
			<path class="st24" d="M869.12,325.33L869.12,325.33c-0.08,0.54-0.05,1.07,0.08,1.57C869.07,326.41,869.04,325.87,869.12,325.33
				L869.12,325.33z"/>
			<path class="st24" d="M870.97,329.31c-0.01-0.01-0.02-0.01-0.02-0.02C870.96,329.3,870.96,329.3,870.97,329.31z"/>
			<path class="st24" d="M870.43,328.91c-0.06-0.05-0.12-0.11-0.17-0.16C870.31,328.8,870.37,328.85,870.43,328.91z"/>
			<path class="st6" d="M872.46,329.86l42.71,6.64l-3.04-13.46l-25.79-3.7c-1.23,1.84-3.46,2.93-5.8,2.58
				c-2.33-0.34-4.14-2-4.78-4.1l-3.74-0.54c-0.44,1.51-1.17,2.94-2.17,4.22l-0.72,3.83l0,0c-0.08,0.54-0.05,1.07,0.08,1.57
				c0.06,0.25,0.15,0.49,0.26,0.72c0.05,0.11,0.12,0.23,0.18,0.34c0.17,0.29,0.38,0.55,0.62,0.78c0.06,0.06,0.11,0.11,0.17,0.16
				c0.16,0.14,0.33,0.27,0.52,0.39c0.01,0.01,0.02,0.01,0.02,0.02C871.41,329.58,871.91,329.77,872.46,329.86z"/>
			<path class="st12" d="M872.46,329.86l42.71,6.64l-3.04-13.46l-25.79-3.7c-1.23,1.84-3.46,2.93-5.8,2.58
				c-2.33-0.34-4.14-2-4.78-4.1l-3.74-0.54c-0.44,1.51-1.17,2.94-2.17,4.22l-0.72,3.83l0,0c-0.08,0.54-0.05,1.07,0.08,1.57
				c0.06,0.25,0.15,0.49,0.26,0.72c0.05,0.11,0.12,0.23,0.18,0.34c0.17,0.29,0.38,0.55,0.62,0.78c0.06,0.06,0.11,0.11,0.17,0.16
				c0.16,0.14,0.33,0.27,0.52,0.39c0.01,0.01,0.02,0.01,0.02,0.02C871.41,329.58,871.91,329.77,872.46,329.86z"/>
			<path class="st1" d="M887.26,316.97c0.49-3.21-1.74-6.19-4.97-6.66c-3.23-0.47-6.24,1.75-6.73,4.96
				c-0.13,0.89-0.05,1.76,0.19,2.56c0.64,2.1,2.44,3.76,4.78,4.1c2.35,0.34,4.57-0.74,5.8-2.58
				C886.8,318.64,887.13,317.84,887.26,316.97z M884.28,320.54c-0.33,0.17-0.68,0.29-1.04,0.4c-0.38,0.11-0.76,0.21-1.15,0.24
				c-1.05,0.08-2.13-0.35-2.83-1.13c0.23,0.25,1.41,0.2,1.7,0.19c0.8-0.04,1.6-0.13,2.37-0.37c1.08-0.33,2.11-0.97,2.71-1.92
				C885.92,319.03,885.24,320.03,884.28,320.54z"/>
			<path class="st25" d="M883.33,319.87c-0.77,0.24-1.57,0.33-2.37,0.37c-0.29,0.01-1.47,0.06-1.7-0.19
				c0.7,0.78,1.78,1.22,2.83,1.13c0.39-0.03,0.77-0.13,1.15-0.24c0.36-0.11,0.71-0.22,1.04-0.4c0.96-0.51,1.64-1.51,1.76-2.59
				C885.43,318.9,884.41,319.54,883.33,319.87z"/>
			<path class="st21" d="M883.33,319.87c-0.77,0.24-1.57,0.33-2.37,0.37c-0.29,0.01-1.47,0.06-1.7-0.19
				c0.7,0.78,1.78,1.22,2.83,1.13c0.39-0.03,0.77-0.13,1.15-0.24c0.36-0.11,0.71-0.22,1.04-0.4c0.96-0.51,1.64-1.51,1.76-2.59
				C885.43,318.9,884.41,319.54,883.33,319.87z"/>
			<path class="st26" d="M847.93,325.32l3.33-2.66c-0.01-0.01-0.01-0.01-0.02-0.02L847.93,325.32z"/>
			<path class="st4" d="M850.02,306.07c0.4-0.32,0.81-0.61,1.23-0.89c0.32-0.32,0.66-0.63,1.03-0.92c5.36-4.29,13.2-3.45,17.49,1.86
				c0.29,0.36,0.55,0.73,0.8,1.11l5.9-4.71l13.24-10.58l-3.69-4.56l-3.17-3.92c-4.56-5.64-11.97-8.2-19.09-6.59l-12.94,5.03
				l-1.56,4.16l-5.45-0.22l0.64-1.46l-19.6-9.87l1.43,6.32l11.89,5.99l-8.93,7.13l8.86,39.22l9.79-7.82
				c-0.49-0.41-0.95-0.88-1.37-1.39C842.42,318.9,843.99,310.89,850.02,306.07z"/>
			<polygon class="st5" points="826.28,280.83 829.24,293.96 838.18,286.82 			"/>
			<polygon class="st21" points="847.89,325.36 847.93,325.32 847.89,325.36 			"/>
			<path class="st26" d="M850.35,321.65c-4.01-4.95-3.52-12.05,0.91-16.46c-0.42,0.28-0.83,0.57-1.23,0.89
				c-6.03,4.82-7.6,12.83-3.5,17.9c0.42,0.51,0.87,0.98,1.37,1.39l0.04-0.04l3.31-2.68C850.93,322.33,850.63,322,850.35,321.65z"/>
			<path class="st27" d="M850.35,321.65c-4.01-4.95-3.52-12.05,0.91-16.46c-0.42,0.28-0.83,0.57-1.23,0.89
				c-6.03,4.82-7.6,12.83-3.5,17.9c0.42,0.51,0.87,0.98,1.37,1.39l0.04-0.04l3.31-2.68C850.93,322.33,850.63,322,850.35,321.65z"/>
			<path class="st6" d="M872.01,317.28c0.76-2.61,0.65-5.44-0.39-8.02c-0.28-0.7-0.63-1.38-1.05-2.03c-0.24-0.38-0.51-0.75-0.8-1.11
				c-4.3-5.31-12.13-6.15-17.49-1.86c-0.36,0.29-0.7,0.6-1.03,0.92c-4.43,4.41-4.91,11.51-0.91,16.46c0.28,0.35,0.58,0.68,0.9,0.99
				c0.01,0.01,0.01,0.01,0.02,0.02c4.43,4.39,11.57,4.85,16.58,0.85c0.68-0.54,1.29-1.15,1.82-1.79c0.06-0.07,0.12-0.15,0.17-0.22
				C870.85,320.23,871.58,318.79,872.01,317.28z M866.17,317.39c-1.96,3.36-6.28,4.51-9.65,2.58c-3.37-1.93-4.52-6.22-2.57-9.58
				c1.96-3.36,6.28-4.51,9.65-2.58C866.98,309.74,868.13,314.03,866.17,317.39z"/>
			<path class="st1" d="M863.61,307.81c-3.37-1.93-7.7-0.78-9.65,2.58c-1.96,3.36-0.81,7.65,2.57,9.58c3.37,1.93,7.7,0.78,9.65-2.58
				C868.13,314.03,866.98,309.74,863.61,307.81z M864.32,318.29c-0.32,0.34-0.7,0.62-1.08,0.89c-0.36,0.25-0.74,0.49-1.14,0.67
				c-1.2,0.52-2.64,0.4-3.74-0.29c1.34,0.15,2.7-0.33,3.82-1.1c0.79-0.54,1.48-1.21,2.11-1.93c0.23-0.26,1.15-1.32,1.08-1.72
				C865.58,316.04,865.18,317.37,864.32,318.29z"/>
			<path class="st28" d="M864.28,316.53c-0.63,0.72-1.31,1.39-2.11,1.93c-1.12,0.76-2.48,1.24-3.82,1.1c1.1,0.69,2.55,0.8,3.74,0.29
				c0.41-0.18,0.78-0.42,1.14-0.67c0.38-0.27,0.76-0.55,1.08-0.89c0.86-0.92,1.26-2.25,1.04-3.48
				C865.43,315.21,864.5,316.27,864.28,316.53z"/>
			<path class="st21" d="M864.28,316.53c-0.63,0.72-1.31,1.39-2.11,1.93c-1.12,0.76-2.48,1.24-3.82,1.1c1.1,0.69,2.55,0.8,3.74,0.29
				c0.41-0.18,0.78-0.42,1.14-0.67c0.38-0.27,0.76-0.55,1.08-0.89c0.86-0.92,1.26-2.25,1.04-3.48
				C865.43,315.21,864.5,316.27,864.28,316.53z"/>
			<path class="st4" d="M849.26,286.06l1.56-4.16l2.27-6.05c1.95-5.2,5.26-9.79,9.57-13.31c1.12-0.92,2.03-1.64,2.36-1.85
				c1.11-0.71,5.68-1.59,5.68-1.59l1.68-4.06c0,0-4.13-1.06-8.38,1.13c-2.19,1.13-5.1,3.55-7.41,5.64
				c-2.42,2.19-4.35,4.86-5.66,7.83l-6.49,14.73l-0.64,1.46L849.26,286.06z"/>
		</g>
	</g>
	<g>
		<g>
			<g>
				<path class="st6" d="M989.15,109.23c-33.41,7.23-50.37-8.29-52.66-10.58c0,0-0.05-0.23-0.14-0.14
					c-0.09-0.09-0.14,0.14-0.14,0.14c-2.29,2.29-19.25,17.81-52.66,10.58c0,0-5.13,60.11,14.35,84.63
					c20.8,26.19,38.36,34.11,38.45,34.04c0.09,0.07,17.8-7.7,38.45-34.04C994.13,169.21,989.15,109.23,989.15,109.23z"/>
				<path class="st5" d="M984.27,115.41c-30.32,6.44-45.71-7.38-47.78-9.42c0,0-0.04-0.2-0.12-0.12c-0.08-0.08-0.12,0.12-0.12,0.12
					c-2.07,2.04-17.46,15.86-47.78,9.42c0,0-4.65,53.51,13.02,75.35c18.88,23.32,34.79,31.8,34.87,31.74
					c0.08,0.06,16.16-8.29,34.9-31.74C988.78,168.82,984.27,115.41,984.27,115.41z"/>
			</g>
		</g>
		<g>
			<path class="st0" d="M955.96,172.71l0.05,3.21c0.02,1.34,1.07,2.41,2.35,2.39l2.51-0.03c1.28-0.02,2.3-1.11,2.28-2.45l-0.05-3.23
				c-0.19,0.06-0.39,0.09-0.6,0.09L955.96,172.71z"/>
			<path class="st0" d="M916.28,172.81l0.06,3.63c0.02,1.34,1.07,2.41,2.35,2.39l2.51-0.03c1.28-0.02,2.3-1.11,2.28-2.45l-0.05-3.52
				l-6.76,0.02C916.53,172.84,916.4,172.83,916.28,172.81z"/>
			<path class="st0" d="M961.75,151.53l1.98-0.94c0.56-0.26,0.85-0.91,0.69-1.52c-0.12-0.47-0.48-0.84-0.94-0.95l-1.84-0.43
				c-0.29-0.07-0.59-0.03-0.85,0.11l-1.17,0.63l-3.14-11.26c-0.6-2.15-2.39-3.6-4.39-3.57l-25.17,0.33
				c-1.93,0.02-3.62,1.42-4.22,3.47l-3.42,11.73c-0.01-0.01-0.02-0.02-0.04-0.02l-1.48-0.75c-0.27-0.13-0.57-0.17-0.85-0.09
				l-1.83,0.48c-0.45,0.12-0.81,0.49-0.91,0.97c-0.14,0.62,0.17,1.26,0.74,1.5l2.01,0.88c0.18,0.08,0.38,0.11,0.58,0.1l0.68-0.05
				l-3.63,7.23c-0.17,0.33-0.25,0.7-0.24,1.07l0.13,8.75c0.02,1.09,0.78,2,1.78,2.18c0.12,0.02,0.25,0.04,0.38,0.04l6.76-0.02
				l32.54-0.11l6.55-0.02c0.21,0,0.41-0.03,0.6-0.09c0.9-0.28,1.55-1.15,1.54-2.18l-0.13-8.42c0-0.31-0.07-0.61-0.19-0.89
				l-3.47-8.07l0.38,0.02C961.37,151.65,961.57,151.61,961.75,151.53z M920.16,166.31c-1.75,0.02-3.18-1.44-3.21-3.26
				c-0.03-1.82,1.36-3.32,3.11-3.34c1.75-0.02,3.18,1.44,3.21,3.26C923.3,164.79,921.9,166.29,920.16,166.31z M952.9,150.37
				l-27.22,0.45c-1.42,0.02-2.43-1.34-1.97-2.66l3.09-8.97c0.28-0.81,1.05-1.37,1.93-1.38l21.31-0.35c0.91-0.01,1.72,0.56,1.99,1.41
				l2.83,8.87C955.25,149.03,954.28,150.35,952.9,150.37z M961.43,161.55c0.03,1.82-1.36,3.32-3.11,3.34
				c-1.75,0.02-3.18-1.44-3.21-3.26c-0.03-1.82,1.36-3.32,3.11-3.34C959.96,158.27,961.4,159.73,961.43,161.55z"/>
		</g>
	</g>
	<g>
		<g>
			<polygon class="st29" points="301.87,398.43 297.47,407.26 311.2,416.23 320.1,411.04 320.31,402.18 312.5,402.39 313.33,400.74 
				315.83,399.93 314.98,397.43 			"/>
		</g>
		<g>
			<g>
				<path class="st30" d="M218.94,296.9c1.82-2.73,4.18-5.04,7.09-6.57c1.54-0.81,3.24-1.4,4.99-1.42c1.84-0.02,3.64,0.59,5.28,1.42
					c21.16,10.68,22.13,45.26,22.31,65.54c0.12,12.97,18.12,20.13,27.67,26.9c4.4,3.12,18.85,10.48,18.9,15.35
					c0.01,1.03-5.65,12-5.44,12.08c-12.35-4.82-24.7-9.64-37.05-14.46c-9.12-3.56-18.73-5.48-27.78-9.39
					c-3.43-1.48-6.94-3.25-9.1-6.29c-1.68-2.36-2.38-5.26-3.04-8.08c-3.32-14.08-5.74-28.08-7.42-42.44
					c-0.84-7.18-1.82-14.48-0.63-21.61C215.37,304.04,216.77,300.17,218.94,296.9z"/>
			</g>
		</g>
	</g>
	<g>
		<path class="st3" d="M200.3,288.03c-0.18,0.02-0.37,0.03-0.55,0.05c-4.76,0.46-9.56,2.15-12.9,5.56c-1.7,1.73-2.96,3.84-4.09,5.99
			c-3.04,5.73-5.19,11.77-7.48,17.82c-6.65,17.59-11.93,35.71-15.8,54.11c-1.87,8.86-12.95,109.79-6.39,109.36
			c40.15-2.6,80.37-3.96,120.6-4.08c2.67-52.32,5.09-106.38-13.38-155.4c-2.87-7.62-6.32-15.19-11.73-21.27
			C237.02,287.17,216.51,286.52,200.3,288.03z"/>
		<g>
			<g>
				<g id="XMLID_198_">
					<polygon class="st6" points="228.24,680.8 228.24,687.72 245.98,696.6 254.86,687.72 245.98,678.85 244.84,678.85 
						244.55,680.8 					"/>
				</g>
				<g id="XMLID_197_">
					<polygon class="st6" points="184.53,678.85 183.3,678.85 174.43,687.72 183.3,696.6 201.05,687.72 201.05,680.8 184.73,680.8 
											"/>
				</g>
				<g>
					<g>
						<path class="st8" d="M265.26,469.61c-9.99-2.92-20.82-7.43-31.26-7.34c-1.11,0.01-2.22,0.04-3.33,0.07
							c-0.93,0.07-1.88,0.14-2.84,0.22c-6.99,0.56-14.85,1.31-23.06,2.31c-0.4,0.05-0.8,0.1-1.21,0.15
							c-10.49,2.28-17.31,3.18-21.73,3.41c-4.26,1.14-8.4,2.57-12.29,4.45c-1.94,0.94-3.74,1.99-5.47,3.1l-0.06,11.4l20.01,193.68
							h16.4v1.97h0.09l18.04-129.92l0.07-0.73l9.88,130.65h0.09v-1.97h16.48l20.91-145.48L265.26,469.61z"/>
					</g>
				</g>
			</g>
			<g>
				<g>
					<path class="st6" d="M231.54,236.93c2.1,4.24,2.98,9.04,2.94,13.79c-0.01,1.26,0,2.72,0.97,3.52c1.03,0.85,0,2.55,0.87,1.53
						c0.87-1.02,3.82-4.58,4.02-5.91c0.45-3.13,0.61-6.31,0.47-9.47c-0.12-2.75-0.53-5.64-2.18-7.82c-0.98-1.29-2.33-2.23-3.66-3.15
						c-1.93-1.33-3.92-2.67-6.18-3.22c-3.9-0.95-6.39,0.36-3.06,3.33C228.11,231.66,230.1,234.03,231.54,236.93z"/>
				</g>
				<g>
					<g>
						<path class="st14" d="M204.34,289.4c5.39,0.8,10.79,1.6,16.18,2.4c1.07-4.72,1.79-9.53,2.18-14.37
							c4.76-0.58,10.39-1.84,12.26-6.78c0.59-1.56,0.69-3.28,0.79-4.96c0.4-6.96,0.81-13.93,1.21-20.89
							c0.14-2.41,0.27-4.89-0.43-7.17c-1.23-4-4.72-6.53-8.2-8.18c-8.86-4.23-19.42-4.63-28.05,0.27c-2.3,1.31-4.49,3.02-5.89,5.44
							c-2.17,3.72-2.16,8.46-2.08,12.89c0.08,4.09,0.15,8.18,0.23,12.27c0.09,4.71,0.51,10.14,3.96,12.8
							c1.83,1.41,4.28,1.78,5.83,3.57C205.07,279.84,203.48,285.11,204.34,289.4z"/>
					</g>
				</g>
				<g>
					<path class="st6" d="M237.55,262.99c-0.01-1.3-0.37-5.11-2.41-2.83c-0.53,0.6-0.7,1.47-0.77,2.3
						c-0.07,0.83-0.08,1.68-0.38,2.45c-0.68,1.76-2.67,2.47-4.4,2.35c-0.69-0.05-1.39-0.2-1.98-0.59c-0.58-0.37-1.02-0.94-1.45-1.5
						c-1.05-1.36-2.1-2.72-3.14-4.07c-1.8-2.33-5.65-1.57-8.24-1.36c-2.99,0.24-6.01,1-8.54,2.86c-0.26,0.19-0.51,0.39-0.76,0.58
						c-0.61,0.48-1.23,0.96-1.92,1.26c-2.35,1.02-5.14-0.32-6.64-2.53c-0.69-1.01-1.31-2.3-2.45-2.53c-0.89-0.17-1.8,0.43-2.3,1.26
						c-0.5,0.83-0.68,1.84-0.79,2.82c-0.41,3.59-0.11,7.32,1.26,10.59c2.98,7.1,9.36,8.28,15.83,8.47c2.56,0.07,5.12,0.14,7.67,0.22
						c4.68,0.13,9.62,0.19,13.7-2.36c3.59-2.25,5.87-6.29,6.93-10.58C237.32,267.59,237.57,265.28,237.55,262.99z M219.97,271.91
						c-2.54,1.55-5.26,1.5-7.96,0.52c-1.15-0.42-0.55-2.38,0.6-1.96c2.24,0.81,4.38,0.91,6.5-0.38
						C220.17,269.43,221.03,271.26,219.97,271.91z"/>
				</g>
				<g>
					<path class="st6" d="M240.44,225.29c0.54-1.66,0.96-3.37,1.26-5.09c-1.61,0.48-3.34,0.54-4.98,0.17c0.05-1,0.09-2,0.14-3.01
						c0.03-0.83-11.02-2-11.92-2.12c-8.4-1.14-16.07-2.22-23.93,1.98c-6.71,3.59-11.18,9.24-12.57,16.83
						c-1.32,7.25,0.54,16.91,4.39,23.18c0.07-1.94-0.79-6.59-0.25-8.41c0.37-1.84,1.09-3.59,2.04-5.19c1.9-3.2,4.72-5.83,7.92-7.64
						c5.1-2.89,10.93-4.25,16.71-4.77c5.3-0.47,11.74-0.82,16.86,0.87c2.46,0.81,2.84,1.47,4.49-1.01c0.29-0.44,2.67-5.6,2.46-5.62
						C242.19,225.41,241.31,225.35,240.44,225.29z"/>
				</g>
			</g>
		</g>
	</g>
	<g>
		<g>
			<g>
				<path class="st15" d="M53.61,567.5l14.39-37.43l0.79-0.37c0.04-3.79,0.07-7.58,0.11-11.37c0.18-20,0.37-40,0.55-60.01
					c0.16-17.59-5.2-45.01,14.08-54.22l183.25-87.55c20.35-9.72,44.78-6.25,62.76,8.94l62.59,52.87l3.06-1.43l70.63-9.99
					c26.58,0.25,50.7,15.61,62.16,39.59l17.22,36.04L79.92,664.86l-24.5-51.28C48.52,599.13,47.86,582.46,53.61,567.5z"/>
				<path class="st5" d="M218.2,451.94L95.93,510.36l-4.91-81.66c-0.24-4.07,1.88-7.79,5.4-9.47l86.42-41.29L218.2,451.94z"/>
				<path class="st5" d="M203.75,367.95l70.04-33.46c14.84-7.09,32.65-4.55,45.76,6.52l47.27,39.93l-127.71,61.02L203.75,367.95z"/>
				<g class="st31">
					<path class="st32" d="M95.57,446.85c-1.21,1.65-2.42,3.3-3.63,4.94l-1.34-22.34c-0.24-4.07,1.88-7.79,5.4-9.47l29.94-14.3
						C115.9,419.46,105.68,433.11,95.57,446.85z"/>
					<path class="st32" d="M101,464.3c16.64-22.87,33.66-47.92,49.87-71.09l28.3-12.97c-11.36,25.71-28.67,52-43.85,75.48
						c-9.12,14.11-18.72,27.92-28.94,41.26c-3.35,4.37-7,8.63-10.66,12.92l-2.12-35.35C96.05,471.13,98.52,467.71,101,464.3z"/>
					<path class="st32" d="M246.95,401.7c6.52-10.61,13.62-20.91,20.86-31.03c7.34-10.25,14.81-20.59,23.08-30.12
						c2.73-3.14,5.54-6.2,8.34-9.26c7.27,1.38,14.28,4.64,20.31,9.73l0.46,0.39c-7.04,12.43-14.19,24.81-21.13,37.26
						c-10.26,18.43-23.41,34.95-35.9,51.9l-23.86,11.4l-6.41-13.41C237.44,419.59,241.64,410.34,246.95,401.7z"/>
				</g>
				<g>
					<path class="st21" d="M369.07,526.72c-1.41-1.89-2.64-3.94-3.69-6.12c-10.29-21.53,1.96-48.83,27.36-60.97
						c9.92-4.74,20.37-6.45,30.05-5.51c-14.09,10.78-24.15,25.2-30.51,40.84c-3.24,7.96-5.04,15.69-5.66,23.25L369.07,526.72z"/>
				</g>
				<g>
					<path class="st21" d="M128.14,641.83c-1.4-1.9-2.63-3.94-3.67-6.13c-10.29-21.53,1.47-48.6,26.27-60.45
						c9.68-4.63,19.92-6.24,29.42-5.21c-13.72,10.6-23.45,24.87-29.55,40.38c-3.1,7.9-4.8,15.57-5.33,23.09L128.14,641.83z"/>
				</g>
				<g>
					
						<ellipse transform="matrix(0.8817 -0.4718 0.4718 0.8817 -184.101 257.6485)" class="st6" cx="421.79" cy="495.99" rx="45.33" ry="45.33"/>
					<g>
						<g>
							
								<ellipse transform="matrix(0.1494 -0.9888 0.9888 0.1494 -131.6466 838.9434)" class="st1" cx="421.79" cy="495.99" rx="25.73" ry="25.73"/>
						</g>
						<path class="st21" d="M425.44,514.11c-4.6,1.78-9.81,2.35-14.46,0.7c3.31,3.4,8.35,5.01,13.02,4.18
							c1.59-0.28,3.11-0.83,4.61-1.42c1.59-0.63,3.16-1.33,4.58-2.27c3.82-2.55,6.34-6.96,6.6-11.55c-0.09,1.49-4.25,4.5-5.28,5.24
							C431.7,511.02,428.7,512.85,425.44,514.11z"/>
					</g>
				</g>
				<g>
					
						<ellipse transform="matrix(0.9888 -0.1493 0.1493 0.9888 -89.2486 33.7283)" class="st6" cx="180.09" cy="611.47" rx="45.33" ry="45.33"/>
					<g>
						<g>
							
								<ellipse transform="matrix(0.9995 -0.0301 0.0301 0.9995 -18.297 5.6889)" class="st1" cx="180.09" cy="611.47" rx="25.73" ry="25.73"/>
						</g>
						<path class="st21" d="M183.74,629.59c-4.6,1.78-9.81,2.35-14.46,0.7c3.31,3.4,8.35,5.01,13.02,4.18
							c1.59-0.28,3.11-0.83,4.61-1.42c1.59-0.63,3.16-1.33,4.58-2.27c3.82-2.55,6.34-6.96,6.6-11.55c-0.09,1.49-4.25,4.49-5.28,5.24
							C189.99,626.5,186.99,628.33,183.74,629.59z"/>
					</g>
				</g>
			</g>
			<path class="st33" d="M267.44,465.85l15.61-7.46c1.83-0.87,2.61-3.07,1.73-4.9l-1.4-2.93c-0.87-1.83-3.07-2.61-4.9-1.73
				l-15.61,7.46c-1.83,0.87-2.61,3.07-1.73,4.9l1.4,2.93C263.42,465.95,265.61,466.72,267.44,465.85z"/>
		</g>
		<polygon class="st8" points="399.08,396.14 437.64,360.41 455.51,379.69 468.21,339.25 497.36,355.24 505.35,340.66 
			464.92,327.97 448.93,357.12 434.35,349.12 384.51,388.15 		"/>
	</g>
	<g>
		<g>
			<polygon class="st14" points="177.73,419.94 168.41,423.17 171.94,439.19 181.92,441.71 188.28,435.53 182.55,430.21 
				184.3,429.61 186.65,430.79 187.79,428.4 			"/>
		</g>
		<g>
			<g>
				<path class="st3" d="M189.57,289.38c3.21-0.68,6.51-0.67,9.67,0.27c1.67,0.5,3.3,1.27,4.56,2.48c1.33,1.27,2.18,2.97,2.78,4.71
					c7.63,22.44-15.87,47.81-29.94,62.43c-9,9.35-1.15,27.06,0.93,38.58c0.96,5.3,6.13,20.67,2.75,24.19
					c-0.72,0.75-12.43,4.62-12.34,4.82c-5.45-12.09-10.89-24.17-16.34-36.26c-4.02-8.93-9.54-17.02-13.27-26.15
					c-1.41-3.46-2.68-7.18-2.1-10.87c0.45-2.86,1.98-5.42,3.48-7.9c7.49-12.38,15.55-24.07,24.41-35.51
					c4.43-5.72,8.83-11.61,14.67-15.88C182.02,291.98,185.73,290.19,189.57,289.38z"/>
			</g>
		</g>
	</g>
	<g>
		<path class="st8" d="M144.9,249.14c-1.35-5.98,1.83-11.23,7.47-12.51c5.98-1.35,10.77,2.11,12.12,8.08
			c1.31,5.81-1.49,11.16-7.47,12.51C151.21,258.54,146.21,254.95,144.9,249.14z M143.69,224.46l-20.32-79.18l15.94-3.6l15.67,80.23
			L143.69,224.46z"/>
	</g>
</g>
</svg>
