<?xml version="1.0" encoding="utf-8"?>
<!-- Generator: Adobe Illustrator 26.0.3, SVG Export Plug-In . SVG Version: 6.00 Build 0)  -->
<svg version="1.1" xmlns="http://www.w3.org/2000/svg" xmlns:xlink="http://www.w3.org/1999/xlink" x="0px" y="0px"
	 viewBox="0 0 1501.89 1122" style="enable-background:new 0 0 1501.89 1122;" xml:space="preserve">
<style type="text/css">
	.st0{fill:#FFFFFF;}
	.st1{opacity:0.12;fill:#606060;}
	.st2{fill:#8AAD9F;}
	.st3{fill:#DEC2A7;}
	.st4{fill:#EACDB0;}
	.st5{fill:#A1BDCC;}
	.st6{fill:#8C9498;}
	.st7{fill:#3A3029;}
	.st8{fill:#0A98C0;}
	.st9{fill:#514943;}
	.st10{fill:#CAB5A1;}
	.st11{fill:#9E6652;}
	.st12{fill:#59595B;}
	.st13{opacity:0.26;}
	.st14{fill:none;}
	.st15{fill:#5A8FB7;}
	.st16{fill:#C2969C;}
	.st17{fill:#754C3D;}
	.st18{fill:#BCAC98;}
	.st19{fill:#D3C2A4;}
	.st20{fill:#37454D;}
	.st21{fill:#4F3C22;}
	.st22{fill:#DACAAF;}
	.st23{fill:#F2D263;}
	.st24{fill:#AECCDC;}
	.st25{fill:#413E66;}
	.st26{fill:#2E4661;}
	.st27{fill:#FFFFF1;}
</style>
<g id="background">
	<g>
		<rect x="-0.06" class="st0" width="1502" height="1122"/>
	</g>
</g>
<g id="shadow">
	<path class="st1" d="M1283.77,880.8H324.46c-30.34,0-55.17,15.04-55.17,33.43l0,0c0,12.73,11.91,23.85,29.31,29.49h-84.48
		c-30.34,0-55.17,15.04-55.17,33.43l0,0c0,18.38,24.83,33.43,55.17,33.43h29.44c-8.22,5.84-13.21,13.4-13.21,21.63v13.37
		c0,18.38,24.83,33.43,55.17,33.43h945.04c30.34,0,55.17-15.04,55.17-33.43v-13.37c0-18.38-24.83-33.43-55.17-33.43l-64.26,0.74
		c4.89,0,12.84-2.34,18.17-7.04c9.35-8.25,9.76-20.8,5.19-31.19c-2.96-6.74-7.71-12.08-19.47-14.09l113.59,0.45
		c30.34,0,55.17-15.04,55.17-33.43l0,0C1338.94,895.84,1314.12,880.8,1283.77,880.8z"/>
</g>
<g id="object">
	<g>
		<polygon class="st2" points="786.52,521.63 791.72,591.38 813.59,603.88 832.33,587.22 806.7,515.19 		"/>
	</g>
	<g>
		<polygon class="st3" points="998.12,649.98 1011.41,662.18 1008.28,676.76 990.58,673.64 985.36,660.49 		"/>
	</g>
	<g>
		<polygon class="st4" points="753.31,454.99 755.4,470.61 748.78,480.79 738.04,479.21 736.65,461.24 751.23,453.95 		"/>
	</g>
	<g>
		<polygon class="st5" points="643.88,458.12 713.75,542.45 728.33,476.86 755.4,482.06 739.78,580.97 713.52,599.21 643.99,552.86 
					"/>
	</g>
	<g>
		<g>
			<g>
				<g>
					<polygon class="st6" points="701.51,650.85 705.13,805.58 678.34,1005.45 655.92,1005.72 639.57,821.78 606.7,638.04 					"/>
				</g>
				<g>
					<polygon class="st7" points="656.01,1003.05 656.16,1015.17 680.55,1027.01 692.53,1014.74 680.26,1002.76 					"/>
				</g>
			</g>
			<g>
				<polygon class="st7" points="579.71,1008.89 598.99,1025.28 594.17,1034.92 558.5,1027.21 558.5,1008.89 				"/>
			</g>
			<g>
				<polygon class="st6" points="623.75,711.72 607.73,861.69 586.58,1011.18 556.42,1009.75 557.52,854.67 539.36,710.83 
					582,690.97 				"/>
			</g>
		</g>
		<g>
			<path class="st5" d="M562.29,446.84l58.58-10.99c0,0,39.87,25.65,70.1,103.28c30.79,79.05,26.43,200.12,26.43,200.12
				s-161.2,2.58-187.61,3.2l15.37-167.46L562.29,446.84z"/>
		</g>
		<g>
			<g>
				<path class="st4" d="M602.13,447.51c-6.98-0.25-13.97-0.5-20.95-0.75c-0.42-5.56-0.39-11.15,0.08-16.7
					c-5.91-1.67-12.79-4.3-14.18-10.28c-0.44-1.89-0.23-3.85-0.02-5.78c0.86-7.95,1.72-15.91,2.59-23.86
					c0.3-2.75,0.62-5.58,1.95-8.01c2.34-4.26,7.27-6.36,11.99-7.5c12.05-2.89,25.5-1.09,35.45,6.3c2.65,1.96,5.08,4.37,6.39,7.4
					c2.01,4.67,1.07,10.02,0.09,15.01c-0.9,4.61-1.81,9.21-2.71,13.82c-1.04,5.3-2.64,11.35-7.54,13.62
					c-2.6,1.21-5.77,1.1-8.08,2.79C603.08,436.55,604.06,442.84,602.13,447.51z"/>
			</g>
			<g>
				<path class="st7" d="M665.09,364.64c-0.2-5.4-1.3-10.82-2.68-15.67c-2.38-8.34-12.59-11.52-21.26-11.59
					c-18.73-0.14-37.25-7.48-55.06,0.17c-10.18,4.37-24.11,6.14-33.2,11.98c-3.8,2.44-6.72,6.06-8.93,10
					c-7.65,13.64-6.56,31.71,2.69,44.32c2.07,2.83,4.5,5.38,7.04,7.81c5.25,5.02,11.54,11.23,18.43,12.77
					c-0.22-6.06-6.94-24.77-2.61-30.02c6.87-8.33,23.71-6.64,32.97-5.28c10.11,1.48,19.44,7.98,29.42,8.86
					c7.18,0.64,16.04-3.43,21.86-7.49C662.88,384.15,665.45,374.41,665.09,364.64z"/>
			</g>
		</g>
		<g>
			<path class="st0" d="M604.71,446.89l57.15,130.48l22.12,161.97l-81.86,1.72c0,0,9.41-119.99,6.03-135.65
				c-3.38-15.66-10.09-48.2-17.36-84.79c-1.67-8.43-13.9-73.05-13.98-72.66L604.71,446.89z"/>
		</g>
	</g>
	<g>
		<g>
			<polygon class="st8" points="863.21,462.94 854.03,460.57 836.49,470.61 786.52,591.38 802.13,610.13 844.82,554.94 			"/>
		</g>
		<g>
			<g>
				<polygon class="st9" points="939.9,1002.72 940.87,1012.32 923.46,1024.29 913.29,1015.87 921.52,1005.09 938.93,993.12 				"/>
			</g>
			<g>
				<polygon class="st10" points="939.47,709.18 942.42,738.33 916.3,838.51 940.55,999.5 922.7,1005.66 875.63,848.49 
					868.16,802.77 868.43,705.98 				"/>
			</g>
		</g>
		<g>
			<g>
				<polygon class="st10" points="802.18,741.67 839.72,1011.42 856.79,1011.42 859.86,838.51 890.92,717.15 				"/>
			</g>
			<g>
				<polygon class="st9" points="856.69,1009.29 856.69,1018.98 838.24,1028.67 829.01,1018.98 838.24,1009.29 				"/>
			</g>
		</g>
		<g>
			<path class="st8" d="M943.38,626.4c-9.71-56.3-24.74-110.94-30.18-168.28c-14.36,0-34.19-6.67-49.14-2.7l0,0
				c0,0-0.25,0.06-0.72,0.21c-5.43,1.59-10.19,4.63-13.75,10.03c-0.04,0.06-0.08,0.12-0.11,0.19c-5.32,5.83-11.43,14.83-17.15,28.71
				c-14.58,35.4-72.88,243.63-73.92,297.77c0.18,0.04,0.36,0.09,0.54,0.13c12.27,3.82,25.65,6.68,39.59,8.8
				c0.01,0,0.03,0.01,0.03,0.01h0.01c40.77,6.21,86.4,6.15,123.51,5.52c4.9-0.08,56.83,1.61,56.1-1.75
				C965.3,745.76,953.69,686.19,943.38,626.4z"/>
		</g>
		<g>
			<polygon class="st8" points="910.93,460.72 925.68,469.8 961.43,567.44 1000.99,647.61 983.29,662.18 931.24,589.3 
				900.52,490.91 			"/>
		</g>
		<g>
			<path class="st11" d="M839.34,368.9c0,0-11.06,9.05-5.86,42.37c5.21,33.32,2.08,55.18,2.08,55.18s11.45,5.21,19.78,0
				c8.33-5.21,11.45-6.25,8.33-19.78c-3.12-13.54-9.37-78.09-9.37-78.09L839.34,368.9z"/>
		</g>
		<g>
			<path class="st11" d="M866.78,380.16c-12.65,3.46-22.6,15.19-23.99,28.25c-6.91-6.45-10.44-16.35-9.17-25.73
				s7.31-17.97,15.69-22.34c7.84,4.17,13.92,11.54,16.52,20.04L866.78,380.16z"/>
		</g>
		<g>
			<path class="st4" d="M841.05,397.13c6.53-34.56,49.64-28.59,62.01-0.6c7.03,15.91,5.39,47.01-14.4,52.22
				c-0.3,3.06-0.7,8.79-3.03,10.84c-2.53,2.22-10.5,0.1-13.62-0.62c-0.87-0.2-1.77-0.45-2.4-1.08c-0.79-0.79-0.92-2.9-0.93-5.24
				c-2.29-0.16-4.64-0.6-7.03-1.39c-10.03-3.3-17.29-12.59-20.29-22.73C838.35,418.4,839.09,407.51,841.05,397.13z"/>
		</g>
		<g>
			<path class="st11" d="M850.14,360.25c0,0-4.16,18.74,19.78,23.95c23.95,5.21,39.5,23.95,35.37,43.73
				c-4.13,19.78-21.83,34.36-12.46,39.56c9.37,5.21,43.73,0,43.73,0s20.82-69.76-7.29-99.95
				C901.16,337.34,860.55,336.3,850.14,360.25z"/>
		</g>
	</g>
	<g>
		<g>
			<g>
				<path class="st12" d="M768.99,64.32c0-3.4,0-6.8,0-10.2l-4.7-9.61c-1.17-1.33-3.63-1.27-4.71,0.1l-3.93,9.51v10.2
					c-3.7,0-9.74,2.9-9.74,6.48s3,6.48,6.71,6.48h3.03v345.76c0,19.51-10.31,35.74-25.13,35.39c-11.48-0.27-21.49-10.03-23.18-25.96
					c-0.37-3.53-3.39-6.24-7.06-6.24h-0.27c-4.24,0-7.56,3.58-7.04,7.65c2.93,22.66,20.91,38.87,37.98,38.87
					c13.34,0,24.27-6.18,30.65-17.32c7.89-13.79,7.38-28.96,7.38-44.1c0-14.34,0-28.68,0-43.02c0-20.02,0-40.04,0-60.06
					c0-22.83,0-45.65,0-68.48c0-22.76,0-45.52,0-68.28c0-19.82,0-39.63,0-59.45c0-11.59,0-23.17,0-34.76h2.08
					c3.7,0,6.71-2.9,6.71-6.48S772.69,64.32,768.99,64.32z"/>
			</g>
			<g class="st13">
				<polygon points="768.99,258.15 755.51,244.14 755.51,221 768.99,221 				"/>
			</g>
		</g>
		<g>
			<g>
				<path class="st14" d="M864.06,290.49c0.53,0.25,1.05,0.51,1.57,0.77c0.75-0.26,1.5-0.51,2.26-0.77h-2.4H864.06z"/>
			</g>
			<g>
				<path class="st8" d="M663.24,288.48l2.4-14.8c8.33-51.27,28.03-100.01,57.66-142.67l37.44-53.91
					c-91.16,3.86-169.33,57.91-207.58,135.24c-11.67,23.6-19.61,49.36-23.09,76.53c19.73-5.9,42.57-9.28,67.02-9.28
					C621,279.58,643.56,282.82,663.24,288.48z"/>
			</g>
			<g>
				<path class="st8" d="M859.08,258.72l6.42,31.77h2.4c20.86-6.9,45.57-10.91,72.18-10.91c26.52,0,51.38,3.98,72.49,10.84
					c-4.21-34.69-15.72-67.12-32.95-95.72c-42.54-70.61-119.95-117.84-208.4-117.84c-2.61,0-5.2,0.06-7.78,0.14l29.91,43.74
					C830.01,165.84,846.84,211.53,859.08,258.72z"/>
			</g>
			<g>
				<path class="st15" d="M665.64,273.68l-2.4,14.8c0.22,0.06,0.43,0.13,0.65,0.19c25.24-11.22,59.84-17.66,98.04-17.66
					c40.23,0,76.54,7.14,102.13,19.48h1.43l-6.42-31.77c-12.23-47.19-29.07-92.88-65.74-137.99L763.42,77
					c-0.89,0.03-1.79,0.06-2.68,0.1L723.3,131C693.67,173.66,673.97,222.41,665.64,273.68z"/>
			</g>
			<g>
				<path class="st0" d="M663.24,288.48l-0.08,0.51c0.24-0.11,0.49-0.21,0.73-0.32C663.67,288.6,663.45,288.54,663.24,288.48z"/>
			</g>
		</g>
	</g>
	<g>
		<polygon class="st4" points="730.41,476.86 723.79,465.12 724.16,446.66 730.41,448.75 732.49,458.12 743.94,468.53 
			740.57,479.21 		"/>
	</g>
	<g>
		<polygon class="st4" points="730.61,461.72 732.11,449.63 744.43,440.47 752.87,447.01 750.91,457.07 		"/>
	</g>
	<g>
		<polygon class="st5" points="562.67,446.66 538.88,466.05 479.37,573.68 510.61,613.25 530.39,607 577.24,502.89 		"/>
	</g>
	<g>
		<polygon class="st4" points="568.91,590.34 576.2,606.93 576.2,668.54 565,669.47 549.13,616.26 		"/>
	</g>
	<g>
		<polygon class="st4" points="592.86,580.97 604.31,591.38 618.89,651.77 609.52,656.98 585.57,609.08 568.91,595.55 
			572.04,580.97 		"/>
	</g>
	<g>
		<path class="st16" d="M501.1,490.07c0,0-8.33,2.65-11.98,9.95s-13.38,38.92-8.51,60.81c4.86,21.89,7.3,49.86,54.73,59.59
			c23.11,2.43,19.46-17.03,36.49-21.89c17.03-4.86,33.24-2.03,25.13-28.38c-8.11-26.35-26.35-28.78-42.16-56.76
			C538.98,485.42,521.6,476.47,501.1,490.07z"/>
	</g>
	<g>
		<polygon class="st16" points="495.24,493.13 459.59,514.34 431.48,524.75 434.6,537.24 463.76,535.16 492.91,522.67 		"/>
	</g>
	<g>
		<polygon class="st16" points="530.39,482.06 560.58,486.23 582.32,472.88 587.65,479.98 568.91,500.8 547.05,507.05 		"/>
	</g>
	<g>
		<g>
			<path class="st17" d="M511.72,429.58c0,0,20.02,7.81,22.16,25.62c0,0,9.53-11.69,1.86-23.48c-7.68-11.8-12.05-16.15-23.63-10.84
				C500.52,426.2,511.72,429.58,511.72,429.58z"/>
		</g>
		<g>
			<path class="st4" d="M531.61,445.51c-7.69-25.57-39.76-17.62-46.86,4.49c-4.04,12.58-0.32,35.92,15.04,38.27
				c0.47,2.29,1.23,6.58,3.16,7.94c2.09,1.47,7.93-0.76,10.23-1.55c0.64-0.22,1.3-0.48,1.72-1.01c0.53-0.66,0.46-2.26,0.29-4.03
				c1.72-0.3,3.45-0.83,5.19-1.61c7.31-3.29,12.05-10.89,13.5-18.78C535.35,461.35,533.93,453.19,531.61,445.51z"/>
		</g>
		<g>
			<path class="st17" d="M517.28,435.55c-7.02,11.42-21.23,15.1-27.87,26.15c0,0-4.34,7.23,0.17,21.28c0,0-14.9,3.85-24.7-9.73
				c-9.8-13.58-0.93-46.36-0.93-46.36s15.03-16.74,39.55-16.25c8.32,0.17,16.73,4.61,16.93,14
				C520.51,428.67,519.28,432.3,517.28,435.55z"/>
		</g>
	</g>
	<g>
		<g>
			<path class="st18" d="M478.4,992.13c0,0,1.19,9.8,13.19,9.96s16.89,8.23,5.89,8.08c-11-0.15-24.09,1.95-28.45-6.25
				C464.68,995.73,475.16,986.31,478.4,992.13z"/>
		</g>
		<g>
			<path class="st19" d="M441.53,948.35c0,0-4.28,0.92-6.39,8.89c-2.11,7.97-51.93-5.71-69.09,6.05
				c-17.16,11.77-19.39,21.73-21.55,39.71c-4.55,38,63.54,33.87,86.66,25.19c23.12-8.68,62.17-12.15,51.74-53.3
				C480.91,973.86,441.53,948.35,441.53,948.35z"/>
		</g>
		<g>
			<path class="st20" d="M486.22,971.06l-3.43,2.7c0,0-17.04,5.51-36.38-16.33c-7.61-11.58-5.17-13.52-5.17-13.52l4.33,0.96
				C445.57,944.87,453.56,970.09,486.22,971.06z"/>
		</g>
		<g>
			<path class="st21" d="M469.99,911.41c0,0,1.7-2.6,6.54-2.7c4.83-0.11,12.18,7.81,13.96,8.46c1.78,0.64,6.07,1.7,1.75,3.33
				C487.92,922.12,472.1,916.31,469.99,911.41z"/>
		</g>
		<g>
			<path class="st22" d="M453.32,921.97c0,0,7.68-10.53,19-10.6c6.69-0.05,12.69,2.76,17.71,7.04c2.56,2.18,4.57,4.81,6.97,7.12
				c1.59,1.53,3.58,2.23,5.13,3.91c3.67,3.96,5.42,11.09,4,16.3c-1.42,5.21,4.49,20.5-12.95,24.24
				c-17.44,3.74-40.55-6.79-45.47-15.84C442.79,945.07,438.38,935.9,453.32,921.97z"/>
		</g>
		<g>
			<path class="st21" d="M456.16,923.25c0,0-5.18-3.14-9.52-1c-4.33,2.14-7.77,1.37-7.66,6.2c0.11,4.83-0.71,16.92,5.06,20.63
				c5.77,3.71,4.42-6.21,7.36-9.64C454.34,936.03,459.31,924.73,456.16,923.25z"/>
		</g>
		<g>
			<path class="st19" d="M478.55,994.93c0,0,0.94,14,7.93,15.09c6.99,1.1,23.89,8.33,20.83,12.29c-3.05,3.96-8-0.11-13-0.18
				c-5-0.07-19.57,2.01-31.74-2.8c-11.44-1.44-16.64,3.66-16.64,3.66L478.55,994.93z"/>
		</g>
		<g>
			<path class="st18" d="M352.57,984.3c-1.72-0.51-10.87-3.03-11.23-13.78c-0.37-10.75,6.7-19.49,17.47-19.29
				c10.77,0.2,10.57,9.95,8.34,11.38c-2.23,1.44-15.39,3.02-13.48,14.85C355.15,982.52,352.57,984.3,352.57,984.3z"/>
		</g>
	</g>
	<g>
		<path class="st23" d="M494.99,493.52c0,0,1.04,13.54,8.33,13.54s22.74-6.37,24.99-9.37c3.12-4.16-2.77-13.02-2.77-13.02l4.86-2.59
			c0,0,34.36,43.73,16.66,55.18c-17.7,11.45-41.65,18.74-48.93,4.16c-7.29-14.58-7.76-44.7-7.76-44.7L494.99,493.52z"/>
	</g>
	<g>
		<polygon class="st7" points="577.24,667.39 586.61,674.68 583.49,678.84 566.83,675.72 564.75,668.43 		"/>
	</g>
	<g>
		<polygon class="st7" points="608.48,654.89 617.85,648.13 626.18,647.61 628.26,653.85 610.56,660.1 		"/>
	</g>
	<g>
		<polygon class="st24" points="479.45,573.19 515.02,568.82 599.51,585.38 599.27,604.97 511.03,613.7 483.68,604.74 		"/>
	</g>
	<g>
		<polygon class="st3" points="599.49,586.95 612.25,590.67 618.77,607.84 610.56,617.41 607.44,603.88 599.3,602.95 		"/>
	</g>
	<g>
		<polygon class="st4" points="431.82,526.1 416.9,525.79 416.9,528.91 428.36,535.16 426.27,537.24 428.36,538.29 434.14,535.41 		
			"/>
	</g>
	<g>
		<polygon class="st4" points="582.88,473.83 585.57,468.53 592.86,467.49 595.98,472.69 593.9,478.94 587.54,479.6 		"/>
	</g>
	<g>
		<g>
			<polygon class="st25" points="1079.08,718.41 1038.48,710.08 1016.61,673.64 1006.2,681.97 1021.82,730.9 1056.18,751.72 			"/>
		</g>
		<g>
			<polygon class="st26" points="1043.68,889.16 1043.68,999.52 1060.34,999.52 1070.75,932.88 1080.12,881.87 			"/>
		</g>
		<g>
			<polygon class="st26" points="1080.12,877.7 1086.37,925.6 1094.7,1002.64 1111.36,1001.6 1111.36,942.25 1119.69,881.87 			"/>
		</g>
		<g>
			<path class="st25" d="M1072.31,716.84c0,0-17.7-3.12-24.99,23.95c-7.29,27.07-27.07,106.2-28.11,147.84
				c-1.04,41.65,26.03,14.58,58.3,19.78c32.28,5.21,58.83,5.73,58.83-13.01S1147.8,717.36,1072.31,716.84z"/>
		</g>
		<g>
			<g>
				<g>
					<path class="st4" d="M1062.15,663.04c14.74-26,47.77-9.36,50.03,16.54c1.29,14.73-8.57,39.29-25.92,38.04
						c-1.08,2.38-2.98,6.88-5.42,7.88c-2.64,1.09-8.47-2.8-10.78-4.24c-0.64-0.4-1.3-0.85-1.63-1.53c-0.42-0.85,0.06-2.58,0.69-4.47
						c-1.8-0.75-3.56-1.76-5.27-3.05c-7.16-5.4-10.45-14.87-10.08-23.85C1054.15,679.4,1057.72,670.85,1062.15,663.04z"/>
				</g>
			</g>
			<g>
				<path class="st17" d="M1082.73,656.28c0,0,23.59,5.9,23.59,15.73c0,14.78,0.98,24.69,0,33.48l16.71-9.89l9.83-27.52
					c0,0-1.97-22.61-13.76-26.54c-11.79-3.93-36.37-7.86-36.37-7.86l-18.67,5.9l-13.76-0.98l4.76,41.28
					C1055.05,679.87,1061.11,650.39,1082.73,656.28z"/>
			</g>
		</g>
		<g>
			<polygon class="st25" points="1090.53,720.49 1119.69,730.9 1145.72,795.45 1166.54,842.3 1155.09,849.59 1121.77,802.74 			"/>
		</g>
		<g>
			<polygon class="st4" points="1155.09,849.59 1162.37,860 1166.54,855.84 1179.03,855.84 1166.54,842.3 			"/>
		</g>
		<g>
			<polygon class="st6" points="1043.68,999.52 1034.31,1008.89 1038.48,1015.14 1057.22,1008.89 1057.22,999.52 			"/>
		</g>
		<g>
			<polygon class="st6" points="1097.47,1002.47 1100.95,1016.18 1112.4,1020.34 1118.65,1017.22 1108.95,1001.75 			"/>
		</g>
	</g>
	<g>
		<polygon class="st4" points="1016.61,673.64 1006.2,666.35 993.71,669.47 995.79,676.76 1007.41,681 		"/>
	</g>
	<g>
		<polygon class="st3" points="1005.16,680.18 1009.32,671.81 1000.99,667.65 989.23,670.24 991.62,675.72 		"/>
	</g>
	<g>
		<g>
			<polygon class="st25" points="894.56,779.72 617.7,815.92 592.25,621.25 720.6,526.15 869.1,585.04 			"/>
		</g>
		<g>
			<path class="st26" d="M937.98,569.52c-23.78-9.41-47.56-18.82-71.35-28.22c-38.46-15.21-76.91-30.43-115.37-45.64
				c-9.29-3.68-18.52-7.62-27.91-11.04c-5.95-2.17-11.57-1.24-16.53,2.49c-3.17,2.38-6.28,4.86-9.41,7.29
				c-30.25,23.42-60.5,46.85-90.75,70.27c-24.54,19-49.43,37.64-73.66,57.04c-0.4,0.32-0.81,0.63-1.22,0.95
				c-6.15,4.76-7.34,14.08-2.57,20.23c4.78,6.17,14.05,7.36,20.23,2.57c19.91-15.41,39.81-30.83,59.72-46.24
				c31.58-24.45,63.16-48.9,94.74-73.36c5.11-3.95,10.21-7.91,15.32-11.86c21.56,8.53,43.12,17.06,64.68,25.59
				c38.76,15.33,77.52,30.67,116.28,46c8.87,3.51,17.74,7.02,26.62,10.53c7.24,2.86,15.82-0.4,18.89-7.69
				C948.65,581.33,945.24,572.39,937.98,569.52z"/>
		</g>
		<g>
			
				<rect x="647.58" y="669.96" transform="matrix(0.9916 -0.1297 0.1297 0.9916 -89.6195 94.5923)" class="st27" width="68.08" height="131.15"/>
		</g>
		<g>
			<g>
				
					<rect x="754.34" y="657.61" transform="matrix(0.9916 -0.1297 0.1297 0.9916 -80.7923 105.8972)" class="st27" width="37.03" height="31.58"/>
			</g>
			<g>
				
					<rect x="802.4" y="651.33" transform="matrix(0.9916 -0.1297 0.1297 0.9916 -79.5715 112.0766)" class="st27" width="37.03" height="31.58"/>
			</g>
			<g>
				
					<rect x="759.94" y="700.46" transform="matrix(0.9916 -0.1297 0.1297 0.9916 -86.3013 106.9856)" class="st27" width="37.03" height="31.58"/>
			</g>
			<g>
				
					<rect x="808.01" y="694.18" transform="matrix(0.9916 -0.1297 0.1297 0.9916 -85.0806 113.165)" class="st27" width="37.03" height="31.58"/>
			</g>
		</g>
	</g>
	<g>
		<polygon class="st4" points="808.78,518.15 802.33,508.94 785.34,507.05 775.91,521.2 774.02,534.41 788.17,537.24 802.96,517.74 
					"/>
	</g>
</g>
</svg>
