<?xml version="1.0" encoding="utf-8"?>
<!-- Generator: Adobe Illustrator 26.0.3, SVG Export Plug-In . SVG Version: 6.00 Build 0)  -->
<svg version="1.1" xmlns="http://www.w3.org/2000/svg" xmlns:xlink="http://www.w3.org/1999/xlink" x="0px" y="0px"
	 viewBox="0 0 1000 800" style="enable-background:new 0 0 1000 800;" xml:space="preserve">
<style type="text/css">
	.st0{fill:#FFFFFF;}
	.st1{fill:#F1F2F2;}
	.st2{fill:#0A98C0;}
	.st3{opacity:0.12;}
	.st4{fill:#3B455A;}
	.st5{fill:#8EC3CB;}
	.st6{fill:#474EBB;}
	.st7{opacity:0.17;}
	.st8{fill:#DBE8EB;}
	.st9{fill:#EFBFA5;}
	.st10{fill:#BCBEC0;}
	.st11{fill:#C1796B;}
	.st12{fill:#3A332D;}
	.st13{fill:#3E3D3B;}
	.st14{fill:#E1CFB5;}
	.st15{fill:#413E66;}
	.st16{fill:#CCD2D9;}
	.st17{opacity:0.13;}
	.st18{fill:#A0A2A5;}
	.st19{opacity:0.26;}
	.st20{fill:#040909;}
	.st21{fill:#F7F7F7;}
	.st22{opacity:0.05;}
	.st23{fill:#BEC6CC;}
	.st24{opacity:0.47;}
	.st25{fill:#C0C4C9;}
	.st26{opacity:0.32;}
	.st27{fill:#E0E0E0;}
</style>
<g id="background">
	<rect x="0" class="st0" width="1000" height="800"/>
</g>
<g id="shadow">
	<path class="st1" d="M936.34,646.3H159.81c-24.56,0-44.66,9.18-44.66,20.4l0,0c0,7.77,9.64,14.56,23.72,18H70.49
		c-24.56,0-44.66,9.18-44.66,20.4l0,0c0,11.22,20.1,20.4,44.66,20.4h23.83c-6.65,3.56-10.69,8.18-10.69,13.2v8.16
		c0,11.22,20.1,20.4,44.66,20.4h764.98c24.56,0,44.66-9.18,44.66-20.4v-8.16c0-11.22-20.1-20.4-44.66-20.4l-52.01,0.45
		c3.96,0,10.4-1.43,14.71-4.3c7.57-5.03,7.9-12.69,4.2-19.03c-2.4-4.11-6.24-7.37-15.76-8.6l91.94,0.28
		c24.56,0,44.66-9.18,44.66-20.4l0,0C981,655.48,960.9,646.3,936.34,646.3z"/>
</g>
<g id="object">
	<g>
		<g>
			<g>
				<path class="st2" d="M324.28,92.22c-18.5,2.12-39.48,16.37-41.87,32.99c-8.54-14.46-38.36-18.5-56.27-13.42
					C178.87,125.21,173.2,182,200.7,214c14.8,17.22,33.91,31.06,54.1,42.88c16.91,9.9,59.39,29.59,59.48,29.48
					c0.13,0.07,31.91-34.31,43.78-49.91c14.18-18.62,26.58-38.69,33.7-60.25C405,136.14,373.09,86.63,324.28,92.22z"/>
			</g>
		</g>
		<g class="st3">
			<g>
				<path d="M383.32,182.6c-9.11,16.83-20.29,33.15-33.03,47.79c-12.32,14.15-27.44,27.35-45.56,34.35
					c-8.7,3.36-17.58,4.89-26.31,4.62c17.66,8.79,36.71,17.59,36.77,17.51c0.13,0.07,31.91-34.31,43.78-49.91
					c14.18-18.62,26.58-38.69,33.7-60.25c2.31-6.98,3.24-14.24,2.95-21.45C392.3,164.64,388.1,173.78,383.32,182.6z"/>
			</g>
		</g>
		<g>
			<g>
				<path class="st0" d="M379.51,167.53c-12.52,2.81-25.03,5.62-37.55,8.42c-7.82-15.61-15.64-31.23-23.46-46.84
					c-1.13-2.26-4.64-1.38-4.95,0.98c-4.05,30.67-8.1,61.35-12.16,92.02c-0.23,1.78-0.47,3.55-0.7,5.33
					c-10.37-17.61-20.73-35.23-31.1-52.84c-1.66-2.82-3.33-5.65-4.99-8.47c-1-1.7-4.16-1.83-4.81,0.35
					c-3,10.15-5.99,20.29-8.99,30.44c-14.08,2.78-28.16,5.57-42.23,8.35c-3.31,0.65-2.35,5.49,0.96,4.84
					c14.61-2.89,29.22-5.78,43.82-8.67c0.85-0.17,1.74-0.81,1.98-1.64c2.57-8.69,5.13-17.39,7.7-26.08
					c10.64,18.07,21.27,36.14,31.91,54.21c1.66,2.82,3.33,5.65,4.99,8.47c1.25,2.12,4.63,1.49,4.95-0.98
					c4.05-30.67,8.1-61.35,12.16-92.02c0.19-1.47,0.39-2.93,0.58-4.4c6.83,13.65,13.67,27.3,20.51,40.95
					c0.47,0.95,1.72,1.53,2.83,1.29c13.17-2.95,26.34-5.91,39.51-8.86C383.75,171.63,382.81,166.79,379.51,167.53z"/>
			</g>
		</g>
	</g>
	<g>
		<g>
			<path class="st4" d="M753.13,164.66L753.13,164.66c-0.25,0.54-0.9,0.78-1.44,0.52l-42.21-19.7c-0.54-0.25-0.78-0.9-0.52-1.44l0,0
				c0.25-0.54,0.9-0.78,1.44-0.52l42.21,19.7C753.15,163.48,753.38,164.12,753.13,164.66z"/>
		</g>
		<g>
			<path class="st5" d="M760.62,165.02l-2.36,5.05l-22.53-10.52c-1.39-0.65-2-2.31-1.35-3.7l0,0c0.65-1.39,2.31-2,3.7-1.35
				L760.62,165.02z"/>
		</g>
		<g>
			<g>
				<g>
					<path class="st6" d="M942.87,245.35l-3.21,6.11l-27.13-14.23l-9.7,18.49l27.13,14.23l-3.21,6.11c-1.3,2.47-0.34,5.52,2.13,6.82
						c2.47,1.3,5.52,0.34,6.82-2.13l16.11-30.71c1.3-2.47,0.34-5.52-2.13-6.82C947.22,241.93,944.17,242.88,942.87,245.35z"/>
				</g>
				<g class="st3">
					<polygon points="918.34,263.85 928.04,245.37 935.29,249.17 920.33,264.89 					"/>
				</g>
			</g>
			<g>
				<path class="st4" d="M934.75,232.58l-23.08,43.99c-0.71,1.35-2.39,1.88-3.74,1.17l-10.67-5.59l25.65-48.9l10.67,5.59
					C934.93,229.55,935.46,231.22,934.75,232.58z"/>
			</g>
			<g>
				<g>
					<path class="st5" d="M932.59,210.06c-2.26-1.01-4.92,0.04-6.07,2.23l-1.88,3.59c-1.17,2.24-3.93,3.1-6.17,1.92l-123.35-64.7
						c-1.49-0.78-3.2-1.01-4.84-0.66l-35.31,7.57c-0.67,0.14-1.24,0.58-1.55,1.18l-3.66,7.02c-0.31,0.6-0.34,1.32-0.08,1.94
						l13.9,33.19c0.65,1.54,1.81,2.81,3.29,3.58l123.36,64.71c2.24,1.17,3.1,3.93,1.92,6.17l-1.88,3.59
						c-1.15,2.19-0.5,4.97,1.61,6.26c2.32,1.41,5.3,0.56,6.54-1.8l36.4-69.39C936.07,214.11,935.07,211.17,932.59,210.06z"/>
				</g>
				<g class="st7">
					<path class="st8" d="M795.31,160.2c-1.42-0.74-3.01-1.05-4.49-0.86l-31.99,3.99c-0.61,0.08-1.1,0.4-1.35,0.88l-2.91,5.59
						c-0.25,0.48-0.23,1.07,0.05,1.61l14.94,28.46c0.69,1.32,1.85,2.45,3.26,3.19l117.68,61.73L795.31,160.2z"/>
				</g>
				<g>
					<g>
						<path class="st4" d="M832.91,220.65l-8.23,15.68l-3.01-1.58l8.23-15.68c0.08-0.16,0.27-0.22,0.43-0.13l2.45,1.28
							C832.93,220.31,832.99,220.5,832.91,220.65z"/>
					</g>
					<g>
						<path class="st4" d="M790.91,198.62l-8.23,15.68l-3.01-1.58l8.23-15.68c0.08-0.16,0.27-0.22,0.43-0.13l2.45,1.28
							C790.93,198.28,790.99,198.47,790.91,198.62z"/>
					</g>
					<g>
						<path class="st4" d="M874.9,242.68l-8.23,15.68l-3.01-1.58l8.23-15.68c0.08-0.16,0.27-0.22,0.43-0.13l2.45,1.28
							C874.93,242.34,874.99,242.53,874.9,242.68z"/>
					</g>
					<g>
						<path class="st4" d="M849.58,239.27l-4.17,7.94l-2.47-1.29l4.17-7.95c0.07-0.13,0.22-0.18,0.35-0.11l2.01,1.05
							C849.59,238.98,849.64,239.14,849.58,239.27z"/>
					</g>
					<g>
						<path class="st4" d="M807.58,217.24l-4.17,7.94l-2.47-1.29l4.17-7.94c0.07-0.13,0.22-0.18,0.35-0.11l2.01,1.05
							C807.6,216.95,807.65,217.11,807.58,217.24z"/>
					</g>
				</g>
			</g>
		</g>
	</g>
	<g>
		<g>
			<g>
				<g>
					<g>
						<polygon class="st2" points="412.65,516.97 407.45,588.09 390.25,705.82 377.02,705.82 368.66,597.19 364.96,509.3 						"/>
					</g>
				</g>
				<g>
					<g>
						<polygon class="st4" points="377.09,704.25 377.09,711.4 391.4,718.56 398.55,711.4 391.4,704.25 						"/>
					</g>
				</g>
			</g>
		</g>
		<g>
			<g>
				<g>
					<polygon class="st2" points="318.93,500.22 323.96,599.9 335.47,714.33 349.02,714.33 360.04,605.91 376.13,491.79 					"/>
				</g>
			</g>
			<g>
				<g>
					<polygon class="st4" points="348.95,712.72 348.95,720.05 334.29,727.37 326.96,720.05 334.29,712.72 					"/>
				</g>
			</g>
		</g>
		<g>
			<g>
				<g>
					<path class="st9" d="M365.12,340.39c-4.62-0.45-9.25-0.9-13.87-1.36c-0.05-3.7,0.2-7.41,0.74-11.08
						c-3.85-1.35-8.31-3.38-8.99-7.4c-0.21-1.27,0-2.57,0.22-3.83c0.9-5.24,1.8-10.48,2.7-15.72c0.31-1.81,0.64-3.68,1.62-5.23
						c1.73-2.73,5.08-3.92,8.26-4.48c8.11-1.42,16.96,0.33,23.26,5.63c1.68,1.41,3.19,3.11,3.93,5.17c1.14,3.18,0.3,6.69-0.56,9.96
						c-0.79,3.02-1.58,6.04-2.36,9.05c-0.91,3.47-2.22,7.42-5.56,8.72c-1.77,0.69-3.87,0.49-5.48,1.52
						C366.2,333.15,366.59,337.37,365.12,340.39z"/>
				</g>
			</g>
			<g>
				<g>
					<path class="st4" d="M397.58,286.8c0.41-4.28,0.62-7.82-0.26-12.01c-0.52-2.46-3.66-10.19-2.7-12.37
						c-1.79,3.79-6.6,4.83-10.77,5.25c-15.6,1.56-33.02-2.3-47.37,5.71c-2.62,1.46-4.71,3.75-6.34,6.27
						c-5.64,8.73-5.65,20.76-0.04,29.51c1.26,1.96,2.77,3.76,4.35,5.47c3.28,3.54,7.2,7.92,11.7,9.23
						c0.1-4.03-3.58-16.72-0.49-20.02c4.34-4.64,12.22-3.73,17.85-2.93c7.23,1.03,14.27,0.96,21.57,0.11
						c2.35-0.27,4.74-0.56,6.92-1.47c5.22-2.18,5.04-7.04,5.51-11.99C397.53,287.31,397.55,287.06,397.58,286.8z"/>
				</g>
			</g>
		</g>
		<g>
			<g>
				<g>
					<g>
						<polygon class="st9" points="273.43,280.79 271.75,272.18 276.17,265.83 275.3,264.21 273.26,265.2 275.42,258.88 
							273.5,253.81 266.53,251.97 259.67,254.9 258.58,262.02 261.69,270 263.48,281.89 						"/>
					</g>
				</g>
			</g>
			<g>
				<g>
					<polygon class="st10" points="274.53,274.72 261.31,273.89 267.21,346.03 323.34,375.71 336.27,340.67 291.9,320.27 					"/>
				</g>
			</g>
		</g>
		<g>
			<g>
				<g>
					<g>
						<polygon class="st9" points="425.96,249.45 426.41,240.69 421.14,235.03 421.77,233.3 423.93,233.99 420.9,228.04 
							422.08,222.75 428.73,219.94 435.93,221.87 438.02,228.77 436.07,237.11 435.97,249.13 						"/>
					</g>
				</g>
			</g>
			<g>
				<g>
					<polygon class="st10" points="424.02,243.59 436.99,240.91 438.02,290.81 432.92,329.38 399.75,378.06 372.59,338.77 
						404.12,315.6 					"/>
				</g>
			</g>
		</g>
		<g>
			<g>
				<polygon class="st10" points="376.1,336.82 332.28,338.68 310.16,422.87 291.9,539.58 432.92,543.01 399.75,378.06 				"/>
			</g>
		</g>
	</g>
	<g>
		<g>
			<g>
				<g>
					<polygon class="st11" points="593.4,306.7 591.79,298.29 596.13,292.11 595.28,290.52 593.29,291.48 595.42,285.32 
						593.57,280.36 586.76,278.54 580.06,281.37 578.97,288.32 581.97,296.12 583.68,307.74 					"/>
				</g>
			</g>
			<g>
				<polygon class="st6" points="593.85,297.87 580.61,309.12 582.49,366.89 604.75,382.4 647.3,376.95 641.63,340.39 
					606.09,347.23 				"/>
			</g>
		</g>
		<g>
			<g>
				<g>
					<polygon class="st4" points="729.47,700.52 731.13,708.16 717.94,719.03 708.85,713.01 714.61,703.76 727.8,692.89 					"/>
				</g>
				<g>
					<polygon class="st10" points="683.35,465.79 698.06,499.72 699.45,595.2 729.71,697.89 715.64,704.13 653.89,584.89 
						646.86,547.12 644.07,467.57 					"/>
				</g>
			</g>
			<g>
				<g>
					<polygon class="st10" points="612.1,473.39 610.94,573.45 629.79,702.46 644.29,702.46 653.45,583.42 673.29,464.38 					"/>
				</g>
				<g>
					<polygon class="st12" points="644.21,700.73 644.21,708.57 628.53,716.41 620.69,708.57 628.53,700.73 					"/>
				</g>
			</g>
		</g>
		<g>
			<path class="st6" d="M640.65,337.9l38.51-1.43c0,0,23.04,20.22,34.95,72.75c12.12,53.49-2.24,130.49-2.24,130.49
				s-103.32-13.77-120.27-15.9l25.85-105.61L640.65,337.9z"/>
		</g>
		<g>
			<g>
				<path class="st11" d="M654.45,341.84c4.5-0.44,8.99-0.88,13.49-1.32c0.05-3.6-0.19-7.21-0.72-10.78
					c3.75-1.31,8.08-3.28,8.74-7.2c0.21-1.23,0-2.5-0.22-3.73c-0.87-5.1-1.75-10.2-2.62-15.3c-0.3-1.76-0.62-3.58-1.58-5.09
					c-1.68-2.65-4.94-3.82-8.04-4.36c-7.89-1.38-16.5,0.32-22.62,5.48c-1.63,1.37-3.11,3.03-3.83,5.03
					c-1.11,3.09-0.29,6.51,0.54,9.69c0.77,2.94,1.53,5.87,2.3,8.81c0.88,3.38,2.16,7.22,5.41,8.49c1.73,0.67,3.77,0.48,5.33,1.48
					C653.39,334.8,653.02,338.9,654.45,341.84z"/>
			</g>
			<g>
				<path class="st4" d="M610.51,290.88c-0.09-3.5,0.4-7.03,1.1-10.22c1.2-5.48,7.66-7.94,13.26-8.33
					c12.08-0.84,23.74-6.32,35.54-2.09c6.74,2.42,15.8,3,21.9,6.4c2.55,1.42,4.58,3.64,6.16,6.1c5.48,8.5,5.5,20.2,0.04,28.71
					c-1.23,1.91-2.69,3.65-4.23,5.32c-3.19,3.45-7,7.71-11.38,8.98c-0.1-3.92,3.49-16.26,0.48-19.48
					c-4.77-5.1-15.56-3.34-21.49-2.09c-6.46,1.36-12.23,5.93-18.63,6.9c-4.61,0.7-10.49-1.57-14.4-3.96
					C612.72,303.37,610.67,297.19,610.51,290.88z"/>
			</g>
		</g>
		<g>
			<path class="st0" d="M651.27,342.67l-40.49,161.95l-3.32,21.24l50.44,6.64c0,0-1.99-77.55-1.33-87.89
				c0.66-10.34,8.14-32.7,9.29-56.8c0.66-13.94,5.09-38.97,1.99-47.12L651.27,342.67z"/>
		</g>
	</g>
	<g>
		<g>
			<polygon class="st4" points="116.53,705.87 116.32,708.03 115.63,715.23 101.05,721.48 94.8,713.8 102.44,707.08 103.14,706.78 
				103.23,707.67 			"/>
		</g>
		<g>
			<path class="st11" d="M117.27,705.76l-0.74,0.1h-0.78l-12.52,1.81L91.6,585.25l-1.42-5.74c10.9,0.16,23.86,0.32,36.92,0.43
				L117.27,705.76z"/>
		</g>
		<g>
			<path class="st11" d="M175.55,579.87l-2.68,31.81l-26.91,82.47l-13.15-1.75l-0.21,1.61l-0.07-0.01l9.69-84.99l-8.29-29.03
				C149.17,580.08,164.1,580.08,175.55,579.87z"/>
		</g>
		<g>
			<polygon class="st4" points="145.96,694.15 146.78,694.26 152.8,702.52 144.84,708.91 131.84,699.73 132.6,694.02 145.44,695.73 
							"/>
		</g>
		<g>
			<polygon class="st13" points="145.96,694.15 145.44,695.73 132.6,694.02 132.81,692.41 			"/>
		</g>
		<g>
			<path class="st5" d="M84.37,394.92c-1.69,7.96-7.99,13.8-14.14,19.32c4.54-11.64,9.25-21.9,13.77-30.75
				C84.82,387.29,85.18,391.1,84.37,394.92z"/>
		</g>
		<g>
			<path class="st10" d="M61.58,579.03c0,0,11.89,0.24,28.6,0.48c10.9,0.16,23.86,0.32,36.92,0.42c2.27,0.02,4.55,0.03,6.82,0.05
				c15.26,0.09,30.18,0.09,41.63-0.11c8.65-0.15,15.32-0.42,18.64-0.84l-27.91-144.38l-0.11-0.45l-7.42-30.22l-10.83-44.07
				l-26.99-12.86c-2.88-0.46-5.47-1.77-7.7-3.67l-0.98-0.47c0.31,1.24,0.69,2.39,1.15,3.43c0.19,0.42,0.38,0.83,0.59,1.21
				c2.25,4.1,5.73,7.96,5.64,12.63c-0.02,0.87-0.16,1.72-0.38,2.56c-0.39,1.52-1.03,3-1.59,4.48c-5.99,15.69,0.6,33.4,10.34,46.66
				c4.99,6.79,11.58,12.68,14.42,20.61c0.49,1.36,0.79,2.82,0.93,4.3c0.66,7.15-2.7,14.93-9.59,16.1c-1.62,0.27-3.34,0.17-4.83,0.86
				c-5.09,2.36-2.89,10.7-6.65,14.86c-2.43,2.69-6.54,2.78-10.17,2.68c-1.19-0.03-2.44-0.09-3.43-0.74
				c-2.12-1.38-1.91-4.45-2.54-6.9c-1.13-4.44-5.56-7.35-10.03-8.33c-4.47-0.98-9.11-0.46-13.69-0.45
				c-5.72,0.01-11.57-0.84-16.61-3.54c-1.98-1.06-3.82-2.44-5.38-4.06C51.42,504.41,61.58,579.03,61.58,579.03z"/>
		</g>
		<g>
			<path class="st11" d="M112.11,342.35c-2.53-10.96,0.21-28.27,7.54-34.73c2.88-2.54,6.17-3,9.84-3.03
				c1.74-0.01,2.32,0.44,3.21,0.28c2.73,3.51,4.56,7.8,4.23,11.85c-0.28,3.41-2.25,6.01-2.41,9.68c-0.31,6.67-9.85,13.37-6.19,19.99
				c-2.62,0.85-5.1,1.03-7.41,0.66l-7.7-3.67C112.84,343.06,112.47,342.71,112.11,342.35z"/>
		</g>
		<g>
			<path class="st14" d="M120.93,347.05c-2.88-0.46-5.47-1.77-7.7-3.67L120.93,347.05z"/>
		</g>
		<g>
			<path class="st11" d="M134.52,326.4c0.16-3.66,2.12-6.27,2.41-9.68c0.34-4.05-1.49-8.34-4.23-11.85c0.4-0.07,0.87-0.26,1.53-0.68
				c1.31-0.82,2.49-2.96,3.1-4.7c3.4,2.15,5.88,6.04,6.56,11.97c0.74,6.44,0.73,13.23-1.48,19.67c-2.21,6.44-6.92,12.5-13.03,14.89
				c-0.36,0.14-0.71,0.26-1.06,0.38C124.67,339.77,134.21,333.07,134.52,326.4z"/>
		</g>
		<g>
			<path class="st4" d="M55.67,440.23c0.58,3.42,2.35,6.52,4.77,9.03c0.19-1.18,0.39-2.35,0.61-3.52c-0.21,1.16-0.41,2.33-0.61,3.52
				c1.57,1.62,3.4,3,5.38,4.06c5.04,2.7,10.89,3.54,16.61,3.54c4.58-0.01,9.22-0.53,13.69,0.45c4.47,0.98,8.9,3.89,10.03,8.33
				c0.62,2.45,0.42,5.52,2.54,6.9c0.99,0.65,2.25,0.7,3.43,0.74c3.62,0.1,7.73,0.01,10.17-2.68c3.76-4.16,1.57-12.5,6.65-14.86
				c1.49-0.69,3.21-0.59,4.83-0.86c6.88-1.16,10.25-8.95,9.59-16.1c-0.14-1.48-0.44-2.94-0.93-4.3
				c-2.84-7.93-9.43-13.82-14.42-20.61c-9.74-13.26-16.33-30.97-10.34-46.66c0.56-1.48,1.2-2.96,1.59-4.48
				c0.22-0.84,0.36-1.69,0.38-2.56c0.09-4.68-3.39-8.53-5.65-12.63c-0.21-0.38-0.41-0.79-0.59-1.21c-0.45-1.03-0.83-2.19-1.15-3.43
				c-0.05-0.19-0.09-0.37-0.14-0.56c-6.91-6.89-9.68-19.69-5.13-29.26c0.26-0.54,0.53-1.08,0.82-1.6c-0.29,0.52-0.56,1.05-0.82,1.6
				c-4.55,9.57-1.78,22.37,5.13,29.26c-2.53-10.96,0.21-28.27,7.54-34.73c2.88-2.54,6.17-3,9.84-3.03c1.74-0.01,2.32,0.44,3.21,0.28
				c0.4-0.07,0.87-0.26,1.53-0.68c1.31-0.82,2.49-2.96,3.1-4.7c3.4,2.15,5.88,6.04,6.56,11.97c0.74,6.44,0.73,13.23-1.48,19.67
				c-2.21,6.44-6.92,12.5-13.03,14.89c-0.36,0.14-0.71,0.26-1.06,0.38c0.3,0.55,0.69,1.1,1.19,1.65c3.35,3.68,8.71,4.54,13.65,5.17
				c0.6,0.08,1.23,0.15,1.79-0.07c0.93-0.36,1.4-1.43,1.41-2.42c0.01-0.99-0.35-1.95-0.62-2.9c-2.87-9.98,2.21-21.38,3.06-31.44
				c0.85-10.04-1.23-20.97-9.29-27.76c-1.37,0.38-2.7,0.89-3.96,1.52c-0.13-0.17-0.26-0.33-0.39-0.49
				c-11.67-14.01-28.14-2.03-37,8.67c-7.31,8.82-13.4,18.95-16.19,30.14c-2.61,10.47-3.48,25.85-2.38,36.55
				c0.64,6.25,3.12,12.38,4.42,18.49c0.81,3.81,1.18,7.61,0.36,11.43c-1.69,7.96-7.99,13.8-14.14,19.32
				c-0.56,1.44-1.12,2.89-1.67,4.37c-0.55,1.48-1.1,2.97-1.65,4.49c-0.35,0.98-0.69,1.97-1.02,2.99c0.33-1.01,0.67-2.01,1.02-2.99
				c0.55-1.52,1.1-3.02,1.65-4.49c0.55-1.48,1.11-2.93,1.67-4.37c-0.85,0.76-1.7,1.52-2.53,2.28
				C60.85,422.75,54.11,431.1,55.67,440.23z M117.02,301.55c0.91-0.6,1.84-1.14,2.79-1.62
				C118.86,300.41,117.93,300.95,117.02,301.55z"/>
		</g>
	</g>
	<g>
		<g>
			<g>
				<g>
					<polygon class="st9" points="801.79,522.06 858.66,501.14 846.94,600.77 853.73,686.73 854.33,692.2 854.33,692.2 
						854.33,692.2 843.16,692.49 843.16,692.49 843.16,692.49 817.11,612.03 803.85,530.45 803.85,530.45 					"/>
				</g>
				<g>
					<polygon class="st4" points="843.16,692.49 854.79,692.2 857.77,702.01 857.47,702.1 857.55,702.11 838.31,713.51 
						829.16,714.52 828,704.07 830.47,702.26 					"/>
				</g>
			</g>
			<g>
				<g>
					<polygon class="st9" points="763.05,523.77 780.52,698.36 791.76,700.01 802.69,602.76 822.29,511.02 					"/>
				</g>
				<g>
					<polygon class="st4" points="780.15,698.32 765.24,706.77 766.63,713.81 793.28,709.79 791.71,699.65 					"/>
				</g>
			</g>
			<g>
				<g>
					<g>
						<path class="st10" d="M736.39,566.61c-3.6-2.5-3.68-6.85-3.67-11.21c0.01-8.18,1.48-16.55,3.36-24.5
							c3.57-14.92,7.62-32.88,9.4-52.21c4.6-49.96,20.38-83.48,20.38-83.48l5.09-13.57c1.01-1.77,2.06-3.51,3.16-5.23
							c6.36-9.98,17.4-26.93,29.2-29.71c0.25-0.06,0.49-0.11,0.74-0.17c12.41-2.72,28.32-1.46,39.54,4.57
							c2.13,1.15,4.02,2.67,5.9,4.19c5.49,4.42,9.96,6.82,12.32,13.56c2.05,5.85,2.53,12.24,3.66,18.31
							c2.3,12.33,3.67,24.8,5.51,37.2c3.44,23.25,6.37,46.58,10.05,69.79c1.9,11.95,3.81,23.92,4.7,35.99
							c0.79,10.67,10.42,21.51,15.83,31.08c1.88,3.33-25.16,11.95-27.58,12.52c-11.22,2.61-23.15,1.94-34.72,2
							c-25.34,0.11-50.69-0.67-75.98-2.34c-8.4-0.56-18.76-2.16-26.21-6.34C736.84,566.91,736.6,566.76,736.39,566.61z"/>
					</g>
				</g>
				<g>
					<path class="st0" d="M817.97,345.16c0,0,14.28-3.85,16.25,28.36c1.97,32.21,5.26,113.72,9.86,136.07
						c4.6,22.35,11.5,66.19,11.5,66.19l-43.71,1.52l-49.96-3.94c0,0,17.09-31.55,19.72-53.9c2.63-22.35-1.97-106.49,9.2-138.04
						S804.35,345.73,817.97,345.16z"/>
				</g>
				<g>
					<g>
						<polygon class="st10" points="753.36,416.9 730.57,413.38 730.57,393.75 785.57,351.82 803.32,346.56 794.78,369.57 						"/>
					</g>
				</g>
			</g>
			<g>
				<g>
					<g>
						<path class="st4" d="M798.06,319.64c-2.16,6.49,0.97,13.4,3.71,19.31c2.43,5.24,3.28,8.69-2.9,10.1
							c-3.48,0.8-9.66,2.28-12.71-0.38c-2.31-2.02-1.01-8.25,0.11-10.73c0.86-1.89,3.13-2.85,3.94-4.77
							c0.33-0.79,0.38-1.67,0.39-2.52c0.05-3.5-0.44-7-1.43-10.35c-0.68-2.28-1.59-4.51-1.79-6.88c-0.3-3.43,2.13-7.43,3.4-10.58
							c2.37-5.86,10.63-13.73,17.54-9.13c1.57,1.05,2.49,2.82,3.26,4.55c0.46,1.03,0.89,2.11,0.91,3.24c0.05,4.5-4.06,5.26-6.9,7.4
							C802.09,311.55,799.44,315.5,798.06,319.64z"/>
					</g>
					<g>
						<path class="st9" d="M811.21,344.95c-6-1.41-10.68-6.45-12.94-12.18c-2.25-5.73-2.37-12.09-1.75-18.22
							c2.07-20.39,27.44-19.08,36.03-3.45C840.04,324.72,828.64,349.05,811.21,344.95z"/>
					</g>
				</g>
				<g>
					<path class="st9" d="M811.21,342.75c0.1,2.32,0.2,4.65,0.3,6.97c0.01,0.34,0.04,0.71,0.28,0.96c0.27,0.28,0.71,0.28,1.09,0.27
						c1.89-0.07,3.79-0.13,5.68-0.2c0.94-0.03,1.91-0.07,2.74-0.52c1.81-0.97,2.18-3.43,1.9-5.46c-0.29-2.03-1.02-4.08-0.59-6.09
						c-3.91,1.93-7.62-2.43-11.53-0.5L811.21,342.75z"/>
				</g>
			</g>
			<g>
				<path class="st4" d="M819.39,279.2c6.66,2.26,10.93,9,17.43,11.69c3.73,1.54,8.14,1.74,11.18,4.39
					c6.82,5.94,1.34,18.4,6.94,25.5c1.16,1.48,2.73,2.59,3.9,4.06c2.52,3.18,2.85,7.51,3.08,11.56c0.05,0.91,0.06,1.9-0.1,2.82
					c-0.88,9.35-14.45,8.75-19.84,8.16c-5.92-0.66-3.94-3.94-3.94-3.94l0.21-0.26c0.57-3.8-0.99-7.84-3.98-10.26
					c-1.11-0.9-2.42-1.61-3.2-2.8c-1.75-2.68-0.08-6.22-0.34-9.41c-1.04-12.84-22.58-10.09-28.66-19.23
					C794.63,290.26,806.81,274.93,819.39,279.2z"/>
			</g>
		</g>
	</g>
	<g>
		<g>
			<g>
				<polygon class="st9" points="872.35,261.61 864.11,250.07 859.02,253.38 862.92,262.53 859.79,262.98 868.05,272 873.8,269.27 
									"/>
			</g>
		</g>
		<g>
			<g>
				<polygon class="st10" points="837.44,360.08 880.58,325.23 864.57,272 880.48,265.52 910.15,335.72 866.94,390.22 				"/>
			</g>
		</g>
	</g>
	<g>
		<polygon class="st9" points="778.5,420.17 791.39,418.04 790.72,412.49 781.57,412 782.47,409.23 771.67,412.4 771.59,418.26 		
			"/>
	</g>
	<g>
		<g>
			<polygon class="st10" points="743.5,399.33 743.43,400.45 774.97,410.1 774.21,421.72 730.57,410.52 			"/>
		</g>
	</g>
	<g>
		<g>
			<g>
				<g>
					<g>
						<g>
							<path class="st15" d="M671.72,720.2H546.65c-9.88,0-17.89-8.01-17.89-17.89v-84.79c0-9.88,8.01-17.89,17.89-17.89h125.08
								c9.88,0,17.89,8.01,17.89,17.89v84.79C689.61,712.19,681.6,720.2,671.72,720.2z"/>
						</g>
						<g>
							<path class="st15" d="M644.41,593.07c0-7.71,0-15.41,0-23.12c0-2.09-1.99-3.86-4.34-3.86c-18.27,0-36.53,0-54.8,0
								c-2.61,0-5.23,0-7.84,0c-2.34,0-4.34,1.77-4.34,3.86c0,7.69,0,15.38,0,23.06c-3.51,0.1-6.32,3.02-6.32,6.61l0,0h21.25l0,0
								c0-3.57-2.78-6.47-6.26-6.61c0-6.4,0-12.8,0-19.2c16.82,0,33.64,0,50.46,0c1.17,0,2.33,0,3.5,0c0,6.4,0,12.79,0,19.19h-0.43
								c-3.59,0-6.51,2.96-6.51,6.62l0,0h21.25l0,0C650.05,596.27,647.59,593.51,644.41,593.07z"/>
						</g>
					</g>
				</g>
				<g>
					<path class="st0" d="M646.47,647.79c-8.71,0-17.42,0-26.13,0c-0.82,0-1.63,0-2.45,0c0-6.45,0-12.91,0-19.36
						c0-3.24,0-6.48,0-9.72c0-1.08-0.9-2-1.96-2c-5.41,0-10.83,0-16.24,0c-1.06,0-1.96,0.91-1.96,2c0,8.86,0,17.73,0,26.59
						c0,0.83,0,1.66,0,2.49c-6.34,0-12.69,0-19.03,0c-3.18,0-6.36,0-9.55,0c-1.06,0-1.96,0.91-1.96,2c0,5.51,0,11.02,0,16.52
						c0,0.61,0.22,1.08,0.56,1.4c0.32,0.36,0.78,0.6,1.4,0.6c8.71,0,17.42,0,26.13,0c0.82,0,1.63,0,2.45,0c0,6.45,0,12.91,0,19.36
						c0,3.24,0,6.48,0,9.72c0,1.08,0.9,2,1.96,2c5.41,0,10.83,0,16.24,0c0.6,0,1.06-0.23,1.37-0.57c0.35-0.32,0.59-0.79,0.59-1.42
						c0-8.86,0-17.73,0-26.59c0-0.83,0-1.66,0-2.49c6.34,0,12.69,0,19.03,0c3.18,0,6.36,0,9.55,0c1.06,0,1.96-0.91,1.96-2
						c0-5.51,0-11.02,0-16.52C648.43,648.71,647.53,647.79,646.47,647.79z"/>
				</g>
			</g>
		</g>
	</g>
	<g>
		<g>
			<g>
				<g>
					<g>
						<path class="st4" d="M320.11,397.63c4.41,20.35,24.43,33.27,44.7,28.87c20.27-4.4,33.13-24.46,28.71-44.81
							c-4.41-20.35-24.43-33.27-44.7-28.87C328.55,357.23,315.7,377.29,320.11,397.63z"/>
					</g>
					<g>
						<path class="st16" d="M331.59,395.14c3.03,13.99,16.79,22.87,30.72,19.85c13.93-3.02,22.77-16.81,19.74-30.8
							c-3.03-13.99-16.79-22.87-30.72-19.85C337.39,367.37,328.55,381.16,331.59,395.14z"/>
					</g>
					<g>
						
							<rect x="367.85" y="403.66" transform="matrix(-0.9772 0.2121 -0.2121 -0.9772 835.6418 837.8237)" class="st15" width="10.06" height="120.16"/>
					</g>
					<g>
						<path class="st4" d="M348.58,392.4c1.04,4.79,5.75,7.83,10.52,6.79c4.77-1.04,7.79-5.76,6.76-10.54
							c-1.04-4.79-5.75-7.83-10.52-6.79C350.56,382.9,347.54,387.62,348.58,392.4z"/>
					</g>
					<g class="st17">
						<path d="M353.61,398.62l6.21,28.62c0,0-5.77,0.32-9.04-0.37l1.26-29.16L353.61,398.62z"/>
					</g>
				</g>
				<g>
					<g>
						<path class="st15" d="M552.98,489.37c-2.19,0.39-4.06,2.27-6.48,2.04c0.54,3.45-0.68-4.57-0.35-1.08
							c0.45,4.66,0.74,9.35,0.85,14.04c0.06,2.66,0.07,5.33,0.01,7.99c-0.01,0.46-0.11,2.96-0.02,1.07
							c-0.03,0.7-0.06,1.41-0.09,2.11c-0.07,1.36-0.15,2.71-0.25,4.07c-0.44,5.9-1.21,11.81-2.41,17.69
							c-0.61,2.99-1.34,5.97-2.19,8.93c-0.45,1.55-0.93,3.1-1.46,4.65c-0.22,0.66-0.46,1.32-0.69,1.97
							c-0.04,0.12-0.12,0.32-0.18,0.48c-0.05,0.12-0.1,0.25-0.14,0.37c-2.3,5.69-5.08,11.27-8.73,16.59
							c-0.45,0.65-0.91,1.29-1.38,1.93c0.49-0.67-0.74,0.96-0.99,1.26c-0.9,1.11-1.85,2.21-2.83,3.28
							c-2.06,2.24-4.31,4.34-6.71,6.37c0.46-0.4-1.44,1.12-1.79,1.38c-0.69,0.5-1.38,0.99-2.1,1.47c-1.29,0.87-2.62,1.71-3.98,2.5
							c-0.92,0.54-1.86,1.05-2.81,1.55c-0.32,0.17-0.65,0.33-0.96,0.5c-0.03,0.02-0.06,0.03-0.09,0.05
							c-0.03,0.01-0.06,0.03-0.1,0.04c-1.54,0.68-3.06,1.38-4.64,2c-1.99,0.78-4.01,1.48-6.08,2.11c-0.87,0.27-1.74,0.52-2.62,0.76
							c-0.39,0.11-0.79,0.21-1.18,0.31c-0.03,0.01-0.05,0.01-0.08,0.02c-4.23,0.88-8.42,1.69-12.73,2.12
							c-1.23,0.12-2.46,0.21-3.69,0.3c-0.08,0.01-0.16,0.01-0.24,0.01c0.02,0-0.05,0-0.15,0.01c-0.28,0.01-0.55,0.03-0.83,0.04
							c0.2-0.01,0.36-0.02,0.49-0.03c-0.17,0.01-0.36,0.01-0.48,0.01c-1.85,0.01-3.7,0.01-5.54-0.08c-1.97-0.1-3.93-0.27-5.87-0.51
							c-0.82-0.1-1.62-0.24-2.44-0.35c-0.02,0-0.04-0.01-0.05-0.01c-0.04-0.01-0.08-0.02-0.12-0.03c-0.35-0.08-0.7-0.14-1.05-0.21
							c-3.46-0.72-6.81-1.69-10-2.87c-0.48-0.18-3.44-1.44-1.58-0.6c-0.69-0.31-1.38-0.61-2.06-0.93c-1.44-0.67-2.84-1.39-4.21-2.15
							c-2.77-1.53-5.36-3.22-7.85-5.01c-0.19-0.14-0.45-0.34-0.57-0.43c-0.38-0.3-0.77-0.6-1.14-0.91c-0.57-0.46-1.13-0.93-1.68-1.4
							c-1.18-1-2.32-2.03-3.43-3.08c-2.37-2.25-4.58-4.59-6.66-7.01c-1.11-1.29-2.17-2.6-3.21-3.92c-0.29-0.37-1.35-1.8-0.76-0.99
							c-0.42-0.58-0.85-1.16-1.26-1.75c-7.27-10.25-12.75-21.31-17.15-32.6c-1.01-2.59-1.96-5.21-2.86-7.83
							c-0.24-0.69-0.46-1.39-0.7-2.08c-0.02-0.07-0.04-0.12-0.06-0.17c-0.03-0.08-0.06-0.18-0.1-0.32c-0.37-1.2-0.75-2.39-1.11-3.59
							c-1.24-4.15-2.35-8.32-3.32-12.52c-0.9-3.86-1.75-7.75-2.3-11.68c-1.1-7.72-16.71-5.5-15.61,2.21
							c0.04,0.27,0.09,0.54,0.13,0.82c0.79,5.9,2.3,11.74,3.84,17.5c2.94,10.99,6.65,21.85,11.43,32.34
							c10.44,22.9,26.93,47.12,56.28,57.73c30.74,11.12,71.18,1.31,92.67-20.78c20.3-20.88,25.26-48.16,26.03-72.65
							c0.37-11.8,1.6-12.3-0.4-23.93C559.42,489.68,555.82,488.86,552.98,489.37z M492.62,595.8
							C493.7,595.52,493.02,595.7,492.62,595.8L492.62,595.8z M539.64,553.51C539.62,553.57,539.62,553.58,539.64,553.51
							L539.64,553.51z"/>
					</g>
				</g>
				<g>
					<g>
						<path class="st2" d="M555.73,251.03c11.24-1.88,22.48-3.77,33.72-5.65c2.4-0.4,4.78,1.3,5.18,3.71
							c4.3,25.68,8.6,51.37,12.9,77.05c0.61,3.62,1.21,7.25,1.82,10.87c0.96,5.73-7.91,7.23-8.87,1.49
							c-4.3-25.68-8.6-51.37-12.9-77.05c-0.36-2.14-0.72-4.28-1.08-6.42c-9.76,1.64-19.52,3.27-29.28,4.91
							C551.51,260.89,550.01,251.99,555.73,251.03z"/>
					</g>
					<g>
						<g>
							<path class="st4" d="M545.17,266.24l10.24-1.72l-2.98-17.81l-10.24,1.72c-4.15,0.69-6.95,4.62-6.25,8.76l0.47,2.8
								C537.1,264.14,541.02,266.94,545.17,266.24z"/>
						</g>
						<g>
							<path class="st16" d="M554.26,266.14l8.68-1.45c4.79-0.8,8.03-5.34,7.22-10.13l-0.54-3.24c-0.8-4.79-5.34-8.02-10.13-7.22
								l-8.67,1.45L554.26,266.14z"/>
						</g>
					</g>
				</g>
				<g>
					<g>
						<path class="st2" d="M467.68,265.17c-11.24,1.88-22.48,3.77-33.72,5.65c-2.4,0.4-4.09,2.78-3.69,5.2
							c4.3,25.68,8.6,51.37,12.9,77.05c0.61,3.62,1.21,7.25,1.82,10.87c0.96,5.73,9.83,4.25,8.87-1.49
							c-4.3-25.68-8.6-51.37-12.9-77.05c-0.36-2.14-0.72-4.28-1.07-6.42c9.76-1.64,19.52-3.27,29.28-4.91
							C474.89,273.12,473.4,264.21,467.68,265.17z"/>
					</g>
					<g>
						<g>
							<path class="st4" d="M482.62,276.11l-10.24,1.72l-2.98-17.81l10.24-1.71c4.15-0.7,8.07,2.1,8.77,6.25l0.47,2.8
								C489.57,271.5,486.77,275.42,482.62,276.11z"/>
						</g>
						<g>
							<path class="st16" d="M474,278.98l-8.67,1.45c-4.79,0.8-9.33-2.43-10.13-7.22l-0.54-3.24c-0.8-4.79,2.43-9.32,7.22-10.13
								l8.68-1.45L474,278.98z"/>
						</g>
					</g>
				</g>
				<g class="st17">
					<path d="M546.53,498.36c0,0,0.64,5.52,1.07,11.93l15.02-9.68l-1.04-6.64L546.53,498.36z"/>
				</g>
				<g>
					<g>
						<path class="st15" d="M612.55,337.19c3.66,16.01,5.3,32.69,5.86,49.07c0.99,29.06-1.68,61.36-18.9,85.83
							c-18.22,25.9-54.71,36.91-83.74,23.25c-27.71-13.05-44.54-42.04-55.72-69.38c-5.13-12.53-9.29-25.48-12.75-38.56
							c-1.81-6.86-3.61-13.82-4.74-20.83c-0.05-0.32-0.12-0.65-0.17-0.97c-1.54-9.17,12.66-11.56,14.2-2.38
							c0.78,4.66,1.83,9.29,2.93,13.89c1.19,5,2.5,9.98,3.92,14.92c0.41,1.43,0.84,2.86,1.27,4.28c0.57,1.89-0.34-1.04,0.18,0.58
							c0.26,0.83,0.52,1.65,0.78,2.48c1.01,3.13,2.06,6.24,3.17,9.34c4.82,13.48,10.63,26.69,18.02,38.96
							c0.47,0.78,0.95,1.56,1.43,2.33c-0.9-1.46,0.3,0.47,0.62,0.95c1.04,1.59,2.11,3.16,3.22,4.7c2.08,2.9,4.27,5.72,6.61,8.43
							c1.09,1.26,2.21,2.5,3.36,3.71c0.54,0.57,1.09,1.13,1.64,1.68c0.37,0.37,0.74,0.73,1.11,1.09c0.3,0.3,1.52,1.4,0.16,0.17
							c2.53,2.29,5.16,4.46,7.95,6.42c1.31,0.92,2.65,1.79,4.02,2.61c0.65,0.39,1.31,0.75,1.96,1.13c-1.77-1.02,1.04,0.52,1.5,0.74
							c3.02,1.45,6.17,2.65,9.39,3.56c0.32,0.09,0.66,0.17,0.98,0.27c1.67,0.51-1.56-0.29,0.16,0.04c0.76,0.15,1.51,0.32,2.26,0.45
							c1.8,0.32,3.61,0.55,5.43,0.7c1.7,0.14,3.39,0.16,5.09,0.18c0.45,0,1.75-0.08-0.01,0.01c0.37-0.02,0.74-0.03,1.11-0.06
							c1.13-0.09,2.25-0.17,3.37-0.29c3.93-0.45,7.73-1.35,11.55-2.33c0.34-0.09,1.36-0.44-0.21,0.07c0.45-0.15,0.89-0.29,1.34-0.44
							c0.79-0.27,1.57-0.56,2.35-0.86c1.85-0.72,3.67-1.52,5.44-2.42c1.41-0.71,2.75-1.52,4.13-2.3c1.54-0.88-1.27,0.92,0.17-0.11
							c0.28-0.2,0.57-0.38,0.85-0.57c0.84-0.58,1.67-1.18,2.47-1.8c1.2-0.92,2.36-1.89,3.49-2.91c0.62-0.56,1.23-1.13,1.82-1.72
							c0.36-0.35,2.54-2.71,1.17-1.17c2.21-2.5,4.27-5.11,6.11-7.89c0.83-1.26,1.62-2.54,2.38-3.85c0.24-0.41,1.5-2.8,0.59-1.03
							c0.46-0.9,0.93-1.81,1.37-2.73c2.99-6.26,5.16-12.84,6.88-19.55c0.09-0.34,0.17-0.68,0.25-1.03c-0.41,1.68-0.1,0.44-0.01,0.02
							c0.17-0.78,0.34-1.55,0.5-2.33c0.38-1.82,0.71-3.65,1.02-5.49c0.58-3.51,1.04-7.03,1.4-10.57c0.7-6.96,1-13.96,0.99-20.96
							c0-1.61-0.02-3.22-0.05-4.82c-0.02-0.83-0.04-1.67-0.06-2.5c0.06,2.24-0.03-0.72-0.05-1.27c-0.13-3.17-0.32-6.33-0.56-9.49
							c-0.43-5.57-1.01-11.14-1.75-16.68c-0.86-6.47-2.06-12.85-3.24-19.27c-0.06-0.31-0.13-0.62-0.2-0.93
							c-0.87-3.81,2.23-7.7,5.91-8.31C608.29,330.58,611.67,333.37,612.55,337.19L612.55,337.19z"/>
					</g>
				</g>
			</g>
			<g>
				<g>
					<g>
						<path class="st18" d="M481.91,612.9l-0.01-0.05c0.44-0.11,0.65-0.17,0.67-0.17l0,0l0.03,0l0.01,0.03c0,0.01,0,0.02-0.02,0.03
							v0c0,0-0.01,0-0.02,0C482.49,612.76,482.32,612.8,481.91,612.9z"/>
					</g>
					<g>
						<polygon class="st18" points="535.73,564.54 535.68,564.52 535.7,564.46 535.75,564.48 						"/>
					</g>
					<g>
						<path class="st18" d="M541.98,472.4l0-0.06c0.13-0.01,0.22-0.02,0.25-0.02l0,0.06L541.98,472.4z"/>
					</g>
					<g>
						<path class="st18" d="M556.09,475.62l-0.02-0.05c0.11-0.03,0.46-0.15,0.48-0.15l0.03,0l0.01,0.03c0,0.01,0,0.02-0.02,0.03v0
							c0,0,0,0-0.01,0C556.5,475.5,556.38,475.54,556.09,475.62z"/>
					</g>
					<g>
						<path class="st18" d="M591.8,431.74L591.8,431.74L591.8,431.74l-0.05-0.01c0,0,0,0,0-0.01c0-0.01,0-0.01,0-0.02
							c0.02-0.08,0.04-0.18,0.08-0.33c0-0.02,0.01-0.04,0.01-0.05l0.05-0.21c0,0,0-0.01,0-0.01l0.05,0.01
							c-0.03,0.1-0.05,0.19-0.07,0.27C591.86,431.5,591.83,431.62,591.8,431.74z"/>
					</g>
					<g>
						<path class="st18" d="M591.77,431.87l-0.05-0.01c0,0,0-0.02,0.01-0.05l0,0l0,0v0l0.05,0.01
							C591.77,431.85,591.77,431.87,591.77,431.87z"/>
					</g>
				</g>
				<g>
					<path class="st18" d="M542.2,477.99l0-0.06l0.04,0c0.24-0.01,0.34-0.02,0.35-0.02l0,0.06c-0.04,0-0.08,0-0.12,0.01
						C542.4,477.99,542.3,477.99,542.2,477.99L542.2,477.99L542.2,477.99z"/>
				</g>
			</g>
		</g>
	</g>
	<g>
		<g>
			<g>
				<g>
					
						<rect x="153.42" y="374.92" transform="matrix(0.9869 0.1613 -0.1613 0.9869 80.384 -31.1881)" class="st4" width="157.76" height="209.28"/>
				</g>
				<g class="st19">
					<polygon class="st20" points="150.65,563.13 152.98,563.51 289.79,590.22 318.1,394.31 311.41,395.09 					"/>
				</g>
				<g>
					
						<rect x="161.57" y="381.6" transform="matrix(0.9869 0.1613 -0.1613 0.9869 80.2014 -31.2333)" class="st21" width="141.85" height="193.62"/>
				</g>
				<g class="st22">
					<polygon points="177.46,370.57 278.15,387.03 163.53,454.81 					"/>
				</g>
				<g>
					<g class="st3">
						<rect x="217" y="381.82" transform="matrix(0.9869 0.1613 -0.1613 0.9869 65.2872 -34.9291)" width="61.61" height="5.75"/>
					</g>
					<g>
						<g>
							<path class="st23" d="M269.01,367.63l-0.94-0.15l0.1-0.63c0.97-5.96-3.82-11.7-10.7-12.82l-9.07-1.48
								c-6.88-1.12-13.25,2.79-14.22,8.75l-0.1,0.63l-0.94-0.15c-6.88-1.12-13.25,2.79-14.22,8.75l-1.97,12.05l60.8,9.94l1.97-12.05
								C280.68,374.49,275.89,368.75,269.01,367.63z M259.04,366.25l-16.02-2.62c-1.64-0.27-2.76-1.82-2.49-3.45
								c0.27-1.63,1.82-2.74,3.46-2.47l16.02,2.62c1.64,0.27,2.76,1.82,2.49,3.45C262.23,365.41,260.67,366.52,259.04,366.25z"/>
						</g>
					</g>
				</g>
			</g>
			<g class="st24">
				<g>
					<path class="st25" d="M208.49,431.23c-6.85-1.12-13.7-2.24-20.55-3.36c-0.58-0.09-1.15,0.31-1.24,0.89
						c-1.11,6.81-2.23,13.62-3.34,20.43c-0.09,0.58,0.32,1.14,0.9,1.24c6.85,1.12,13.7,2.24,20.55,3.36
						c0.31,0.05,0.57-0.02,0.77-0.17c0.01-0.01,0.03-0.02,0.04-0.03c0.01-0.01,0.02-0.01,0.02-0.01c0.21-0.15,0.36-0.37,0.42-0.68
						c1.11-6.81,2.23-13.62,3.34-20.43C209.48,431.9,209.07,431.33,208.49,431.23z M204.08,451.49c-6.14-1-12.27-2.01-18.41-3.01
						c1-6.1,1.99-12.2,2.99-18.3c6.14,1,12.28,2.01,18.41,3.01C206.08,439.29,205.08,445.39,204.08,451.49z"/>
				</g>
				<g>
					<path class="st25" d="M202.32,469.01c-6.85-1.12-13.7-2.24-20.55-3.36c-0.58-0.09-1.15,0.31-1.24,0.89
						c-1.11,6.81-2.22,13.62-3.34,20.43c-0.09,0.58,0.32,1.14,0.9,1.24c6.85,1.12,13.7,2.24,20.55,3.36
						c0.31,0.05,0.57-0.02,0.77-0.17c0.01-0.01,0.03-0.02,0.04-0.03c0.01-0.01,0.02-0.01,0.02-0.02c0.2-0.14,0.36-0.36,0.41-0.68
						c1.11-6.81,2.22-13.62,3.34-20.43C203.31,469.67,202.9,469.11,202.32,469.01z M197.91,489.27c-6.14-1-12.27-2.01-18.41-3.01
						c1-6.1,1.99-12.2,2.99-18.3c6.14,1,12.27,2.01,18.41,3.01C199.91,477.07,198.91,483.17,197.91,489.27z"/>
				</g>
				<g>
					<path class="st25" d="M196.15,506.79c-6.85-1.12-13.7-2.24-20.55-3.36c-0.58-0.09-1.15,0.31-1.24,0.89
						c-1.11,6.81-2.22,13.62-3.34,20.43c-0.09,0.58,0.32,1.14,0.9,1.24c6.85,1.12,13.7,2.24,20.55,3.36
						c0.31,0.05,0.57-0.02,0.77-0.17c0.01-0.01,0.03-0.02,0.04-0.03c0.01-0.01,0.02-0.01,0.02-0.02c0.2-0.14,0.36-0.36,0.41-0.68
						c1.11-6.81,2.22-13.62,3.34-20.43C197.14,507.45,196.73,506.88,196.15,506.79z M191.74,527.04c-6.14-1-12.27-2.01-18.41-3.01
						c1-6.1,1.99-12.2,2.99-18.3c6.14,1,12.28,2.01,18.41,3.01C193.74,514.84,192.74,520.94,191.74,527.04z"/>
				</g>
			</g>
			<g>
				<polygon class="st15" points="193.6,436.74 198.58,435.94 200.44,441.07 225.65,428.58 228.19,429.53 198.45,446.64 				"/>
			</g>
			<g>
				<polygon class="st15" points="185.56,475.19 190.54,474.4 192.4,479.52 217.61,467.04 220.15,467.99 190.41,485.09 				"/>
			</g>
			<g>
				<polygon class="st15" points="179.29,510.88 184.27,510.08 186.13,515.21 211.34,502.72 213.88,503.67 184.14,520.78 				"/>
			</g>
			<g class="st26">
				
					<rect x="206.68" y="523.1" transform="matrix(0.9869 0.1613 -0.1613 0.9869 88.3863 -32.3423)" class="st5" width="73.47" height="10.35"/>
			</g>
			<g class="st26">
				
					<rect x="213.22" y="483.09" transform="matrix(0.9869 0.1613 -0.1613 0.9869 82.0196 -33.9204)" class="st5" width="73.47" height="10.35"/>
			</g>
			<g class="st26">
				
					<rect x="219.75" y="443.08" transform="matrix(0.9869 0.1613 -0.1613 0.9869 75.6515 -35.4981)" class="st5" width="73.47" height="10.35"/>
			</g>
		</g>
	</g>
	<g>
		<g>
			<path class="st27" d="M809.05,506.6l-70.59,17.13c-26.11,6.33-52.35-9.44-58.61-35.24v0c-6.26-25.8,9.83-51.85,35.93-58.18
				l70.42-17.09L809.05,506.6z"/>
		</g>
		<g>
			<path class="st2" d="M811.54,506l79.37-19.42c23.99-5.82,38.72-29.99,32.9-53.98l-1.59-6.56c-5.82-23.99-29.99-38.71-53.97-32.89
				l-79.38,19.42L811.54,506z"/>
		</g>
		<g>
			<g>
				<path class="st4" d="M769.91,458.56c-5.98,1.45-11.96,2.9-17.94,4.35c-0.56,0.14-1.12,0.27-1.68,0.41
					c-1.04-4.3-2.09-8.61-3.13-12.91c-0.52-2.16-1.05-4.32-1.57-6.48c-0.17-0.72-0.94-1.18-1.67-1c-3.72,0.9-7.43,1.8-11.15,2.71
					c-0.73,0.18-1.2,0.94-1.02,1.66c1.43,5.91,2.87,11.82,4.3,17.73c0.13,0.55,0.27,1.11,0.4,1.66c-4.35,1.06-8.71,2.11-13.06,3.17
					c-2.18,0.53-4.37,1.06-6.55,1.59c-0.73,0.18-1.2,0.94-1.02,1.66c0.89,3.67,1.78,7.34,2.67,11.02c0.1,0.41,0.33,0.68,0.61,0.84
					c0.27,0.19,0.63,0.27,1.06,0.17c5.98-1.45,11.96-2.9,17.94-4.35c0.56-0.14,1.12-0.27,1.68-0.41c1.04,4.3,2.09,8.61,3.13,12.91
					c0.52,2.16,1.05,4.32,1.57,6.48c0.17,0.72,0.94,1.18,1.67,1c3.72-0.9,7.43-1.8,11.15-2.7c0.41-0.1,0.69-0.33,0.85-0.61
					c0.19-0.27,0.28-0.63,0.17-1.05c-1.43-5.91-2.87-11.82-4.3-17.73c-0.13-0.55-0.27-1.11-0.4-1.66c4.35-1.06,8.71-2.11,13.06-3.17
					c2.18-0.53,4.37-1.06,6.55-1.59c0.73-0.18,1.2-0.94,1.02-1.66c-0.89-3.67-1.78-7.34-2.67-11.02
					C771.4,458.84,770.64,458.38,769.91,458.56z"/>
			</g>
		</g>
	</g>
	<g>
		<g>
			<polygon class="st11" points="613.66,428.1 604.64,430.95 597.29,426.99 595.66,428.12 596.97,430.18 589.93,428.64 
				584.73,431.31 583.61,439.02 587.58,446 595.35,446.31 603.53,442 616.05,438.63 			"/>
		</g>
		<g>
			<path class="st6" d="M605.99,428.73c14.02-3.29,28.03-6.57,42.05-9.86c3.77-0.88,7.69-1.07,11.46-1.99
				c5.52-1.33,7.03-1.8,7.8-7.06c2.25-15.25-0.61-31.07,1.69-46.09c5.54-0.55,10.88-1.86,16.53-1.79c9.23,0.12,8.43,6.47,8.95,13.54
				c0.62,8.39,0.98,16.8,1.04,25.21c0.05,6.97,2.35,37.2-7.89,39.41c-7.34,1.61-81.27,5.54-81.24,7.06
				C606.36,446.56,605.99,428.73,605.99,428.73z"/>
		</g>
	</g>
	<g>
		<g>
			<path class="st11" d="M202.99,455.14c1.76-0.55,14.82,2.73,13.95,3.87c-0.94,1.25-2.12,2.23-3.31,3.3
				c3.72,2.27,15.37,6.22,7.06,10.44c-3.6,1.83-13.19-0.74-16.03-3.18c-0.06-0.06-0.13-0.11-0.19-0.17l-4.62-12.35
				C200.55,456.25,201.51,455.6,202.99,455.14z"/>
		</g>
		<g>
			<path class="st10" d="M147.95,419.25l51.83,37.64l0.06,0.16l4.62,12.35l1.2,3.21c-27.91-3.62-30.34-11.04-56.69-22.43
				L147.95,419.25z"/>
		</g>
	</g>
</g>
</svg>
