<?xml version="1.0" encoding="utf-8"?>
<!-- Generator: Adobe Illustrator 26.0.3, SVG Export Plug-In . SVG Version: 6.00 Build 0)  -->
<svg version="1.1" xmlns="http://www.w3.org/2000/svg" xmlns:xlink="http://www.w3.org/1999/xlink" x="0px" y="0px"
	 viewBox="0 0 1122 800" style="enable-background:new 0 0 1122 800;" xml:space="preserve">
<style type="text/css">
	.st0{fill:#FFFFFF;}
	.st1{opacity:0.1;fill:#606060;}
	.st2{fill:#998675;}
	.st3{fill:#BDD1D0;}
	.st4{fill:#AEC1BF;}
	.st5{fill:#CAD8D7;}
	.st6{fill:#FFD880;}
	.st7{fill:#363636;}
	.st8{fill:#2E4661;}
	.st9{fill:#BCBEC0;}
	.st10{fill:#FFFFF1;}
	.st11{fill:#534741;}
	.st12{fill:#EACDB0;}
	.st13{fill:#A16652;}
	.st14{fill:#52665B;}
	.st15{fill:#514943;}
	.st16{fill:#426362;}
	.st17{clip-path:url(#SVGID_00000153689833564000953590000005362242218438645678_);}
	.st18{clip-path:url(#SVGID_00000154386668734851542390000018224532916108788394_);fill:#A6CAA2;}
	.st19{clip-path:url(#SVGID_00000154386668734851542390000018224532916108788394_);fill:#A3CEDF;}
	.st20{clip-path:url(#SVGID_00000154386668734851542390000018224532916108788394_);fill:#FFFFFF;}
	.st21{clip-path:url(#SVGID_00000154386668734851542390000018224532916108788394_);fill:#F4EBE1;}
	.st22{clip-path:url(#SVGID_00000154386668734851542390000018224532916108788394_);fill:#F2D263;}
	.st23{opacity:0.1;}
	.st24{fill:#DACAAF;}
	.st25{fill:#37454D;}
	.st26{fill:#4F3C22;}
	.st27{opacity:7.000000e-02;}
	.st28{fill:#413E66;}
	.st29{opacity:0.12;}
	.st30{fill:#A3CEDF;}
	.st31{opacity:5.000000e-02;}
	.st32{fill:#066598;}
	.st33{fill:#0A98C0;}
	.st34{opacity:0.57;fill:#FFFFFF;}
	.st35{fill:#B4E1EF;}
	.st36{opacity:0.2;}
	.st37{fill:#35383F;}
</style>
<g id="Background">
	<rect class="st0" width="1122" height="800"/>
</g>
<g id="shadow">
	<path class="st1" d="M1037.1,610.7H194.2c-26.7,0-48.5,9.5-48.5,21.2l0,0c0,8.1,10.5,15.1,25.7,18.7H97.2
		c-26.7,0-48.5,9.5-48.5,21.2l0,0c0,11.7,21.8,21.2,48.5,21.2h25.9c-7.2,3.7-11.6,8.5-11.6,13.7v8.5c0,11.7,21.8,21.2,48.5,21.2
		h830.4c26.7,0,48.5-9.5,48.5-21.2v-8.5c0-11.7-21.8-21.2-48.5-21.2l-56.5,0.5c4.3,0,11.3-1.5,16-4.5c8.2-5.2,8.6-13.2,4.6-19.8
		c-2.6-4.3-6.8-7.7-17.1-8.9l99.8,0.3c26.7,0,48.5-9.5,48.5-21.2l0,0C1085.6,620.3,1063.7,610.7,1037.1,610.7z"/>
</g>
<g id="object">
	<g>
		<path class="st2" d="M297,638.1v59.4c0,1.9,1.6,3.5,3.5,3.5h5.9c1.7,0,3.1-1.2,3.4-2.8c2-9.8,9.7-43.1,25.7-57.5
			c2.3-2.1,0.8-6-2.4-6h-32.6C298.6,634.7,297,636.2,297,638.1z"/>
		<path class="st2" d="M871.8,640.1v55.5c0,3-2.4,5.4-5.4,5.4H864c-2.6,0-4.8-1.8-5.3-4.3c-2.2-10.6-9.1-38.2-22.4-53
			c-3.1-3.5-0.7-9,4-9h26.1C869.3,634.7,871.8,637.1,871.8,640.1z"/>
		<path class="st3" d="M876.2,580.4H280.1c-9.1,0-16.5-7.4-16.5-16.5v-169c0-9.1,7.4-16.5,16.5-16.5h596.1c9.1,0,16.5,7.4,16.5,16.5
			v169C892.7,573,885.3,580.4,876.2,580.4z"/>
		<rect x="263.6" y="510.8" class="st4" width="629.1" height="47.5"/>
		<path class="st3" d="M894,647.4H265.6c-4.2,0-7.5-3.4-7.5-7.5v-10.3c0-4.2,3.4-7.5,7.5-7.5H894c4.2,0,7.5,3.4,7.5,7.5v10.3
			C901.6,644,898.2,647.4,894,647.4z"/>
		<path class="st5" d="M890.2,623.8H269.4c-6.3,0-11.4-5.1-11.4-11.4v-53c0-6.3,5.1-11.4,11.4-11.4h620.7c6.3,0,11.4,5.1,11.4,11.4
			v53C901.6,618.7,896.5,623.8,890.2,623.8z"/>
		<path class="st3" d="M906,561.5h-8.9c-6.6,0-12-5.4-12-12V444.2c0-6.6,5.4-12,12-12h8.9c6.6,0,12,5.4,12,12v105.3
			C918,556.1,912.6,561.5,906,561.5z"/>
		<path class="st3" d="M251.6,578.6h-8.9c-6.6,0-12-5.4-12-12V461.3c0-6.6,5.4-12,12-12h8.9c6.6,0,12,5.4,12,12v105.3
			C263.6,573.2,258.2,578.6,251.6,578.6z"/>
		<path class="st6" d="M556.3,502.9c-0.8-9-3.5-19.6-3.8-23.1c-1.2-14.5-3.1-28.8-3.7-43.3c-0.9-20.9,0.5-42.5,2.4-63.3
			c1.1-12.1,3.9-18.9-11.3-21c-11.9-1.6-23.9,1.1-35.8,1.6c-19,0.8-37.9,2.2-56.9,2.9c-27,0.9-54.1-0.5-81.1-1.7
			c-13.8-0.6-27.6-1.2-41.4-1.4c-9.2-0.1-18.6-2.2-27.8-1c-15.3,1.9-9.2,14-7.6,25.5c3.9,28.7,6.5,57.6,8.1,86.5
			c0.4,8.2,0.8,16.5,0.3,24.7c-0.4,6.2-5,17.9-2,23.5c4.3,8.1,23.7,5.9,31.7,6.2c20.4,0.8,40.9,1.2,61.3,1.5c31,0.4,62-0.2,92.9-1.8
			c23.3-1.2,47.1-2.9,70.4-1.9C556.4,517.1,557,510.6,556.3,502.9z"/>
		<path class="st6" d="M835.9,502.9c-0.8-9-3.3-19.6-3.6-23.1c-1.2-14.5-2.9-28.8-3.5-43.3c-0.8-20.9,0.5-42.5,2.2-63.3
			c1-12.1,3.8-18.9-10.7-21c-11.3-1.6-22.7,1.1-34,1.6c-18,0.8-36,2.2-54,2.9c-25.7,0.9-51.4-0.5-77.1-1.7
			c-13.1-0.6-26.2-1.2-39.4-1.4c-8.8-0.1-17.6-2.2-26.4-1c-14.6,1.9-8.7,14-7.2,25.5c3.7,28.7,6.2,57.6,7.7,86.5
			c0.4,8.2,0.7,16.5,0.3,24.7c-0.3,6.2-4.8,17.9-1.9,23.5c4.1,8.1,22.6,5.9,30.1,6.2c19.4,0.8,38.8,1.2,58.3,1.5
			c29.4,0.4,58.9-0.2,88.3-1.8c22.2-1.2,44.8-2.9,66.9-1.9C836.1,517.1,836.6,510.6,835.9,502.9z"/>
	</g>
	<g>
		<g>
			<polygon class="st7" points="521.2,694.9 514.6,720.6 521.8,731.1 533.6,724.1 540.3,701.9 535.2,685.2 			"/>
			<polygon class="st7" points="573.8,690 567.1,715.8 574.4,726.2 586.1,719.2 592.8,697 587.8,680.3 			"/>
			<path class="st8" d="M563.3,523.7c-2.1-6.6-5.1-16.5-11.5-19.1c-13.4-5.5-28-10.3-41.8-6.2c-9.4,2.8-17.8,9.8-22.9,19.1
				c-3.9,7-6,15.3-6,23.5c0,7.9,3.8,14.5,5.6,22.1c11.1,45.8,22.2,91.5,33.4,137.3l18.9-2.8l1.2-140.4
				C548,549.4,567.4,536.8,563.3,523.7z"/>
			<path class="st8" d="M621,545.1c0.7-5,1.1-10,1.2-14.8c0.1-3.9-0.1-7.9-1.4-11.4c-1.4-4-4.1-7.1-7-9.9
				c-10.2-9.7-23.6-14.4-36.8-11c-5.9,1.5-11.4,4.5-16.5,8.1c-5.9,4.1-11.4,9-15.8,15.2c-0.4,0.6-0.9,1.3-0.7,2
				c0.1,0.5,0.5,0.9,0.9,1.3c7.3,6.9,13,16,16.6,26c4.3,12.2,4.2,24.1,4.7,37c0.6,15.1,1.1,30.2,1.7,45.3
				c0.8,20.9,1.6,41.8,2.3,62.8l21.4,2.8c3.8-19.3,7.5-38.5,11.3-57.8c5.3-27.1,10.6-54.1,15.8-81.2
				C619.6,554.8,620.4,550,621,545.1z"/>
		</g>
		<path class="st8" d="M650.8,501c0.4-5-1.1-10.2-2.7-15c-2.7-8.2-6-16.5-11.9-22.8c-12.4-13.4-27.2-9.7-43.2-9.9
			c-11.8-0.2-23.5,0.7-35.2,2.5c-9.7,1.5-23.7,2.4-31.5,8.5c-9.8,7.6-18.9,16.3-27,25.8c-9.7,11.5-21.1,31.8-1.9,40.5
			c3.7,1.7,7.9,1.7,12,1.3c12.6-1,24.8-4.9,37.4-6.5c12.5-1.6,26.2-0.7,36.4,6.8c7,5.2,13.8,13.7,22.3,11.8c6-1.4,8.5-7.3,12.8-10.9
			c6.3-5.2,14.1-8.9,20.6-14.2c4.6-3.7,9.2-8,11-13.7C650.4,503.8,650.7,502.4,650.8,501z"/>
	</g>
	<path class="st9" d="M660.9,488.6c-0.3,7.2-1,14.4-2.2,21.7c-0.5,2.9-1.1,5.9-3.3,7.8c-3.4,3-9,1.7-12.5-1.3
		c-3.5-3-5.6-7.2-8.5-10.7c-10.2-12.3-28.1-14.2-44-15.2c-11.7-0.7-23.4-1.4-35-2.2c-10.7-0.7-21.5-1.3-31.9,1.2
		c-19.9,4.8-38,20.9-58.1,17.2c-0.8-0.1,10.4-12.3,11.6-13.2c6.3-5.2,5.7-5.9,5.7-14.7c0-16.8,0.8-33.7,2.3-50.5
		c2.8-30.6,15.1-56.9,24.2-85.9c4.6-14.4,8.7-29,15-42.8c4.9-10.7,13.7-26.5,24.5-31.4c3.6-1.7,7.7-1.9,11.6-2.2
		c12-0.7,24-1.4,35.9-2.2c4.4-0.3,8.9-0.5,12.9,1.3c6,2.7,9.5,9.3,12.5,15.5c13.6,27.7,22.4,57.8,27.6,88.9
		c3.6,21.8,4.7,44,7.9,65.4C659.7,453.5,661.5,470.9,660.9,488.6z"/>
	<path class="st10" d="M578.2,344.5c-0.3,8.3,0.7,16.6,1.8,24.8c3.1,23.4,7.8,46.6,12.6,69.7c2.4,11.8,4.9,23.5,7.3,35.3
		c1.1,5.5,1.3,12.6,3.6,17.7c0.3,0.7,7.4,7.6,4.4,8.3c-23.6,5.7-48.3-11.5-72-6c-12,2.8-24.2,11.2-35.5,6.5
		c-1.4-0.6-2.8-1.4-3.5-2.8c-1-1.9-0.2-4.2,0.5-6.2c3.7-10.1,8.2-19.6,8.5-30.3c0.3-11,1.2-22.1,2.9-33c3.1-19.2,9.6-37.3,16-55.3
		c11.9-33.2,23.8-66.5,35.7-99.7c0.6-1.8,1.3-3.6,2.5-4.9c1.4-1.6,3.4-2.1,5.3-2.6c9.2-2.2,19.5-4.2,28.8-2.8
		c2.4,10.2-5.8,28.4-8.9,38C584.1,315.3,578.8,329.3,578.2,344.5z"/>
	<g>
		<path class="st11" d="M551.7,191.4c-3.1,6.1-4.4,13.1-4.3,19.9c0,1.8,0,3.9-1.4,5.1c-1.5,1.2,0,3.7-1.3,2.2
			c-1.3-1.5-5.6-6.6-5.9-8.6c-0.7-4.5-0.9-9.1-0.7-13.7c0.2-4,0.8-8.2,3.2-11.3c1.4-1.9,3.4-3.2,5.4-4.6c2.8-1.9,5.8-3.9,9.1-4.7
			c5.7-1.4,9.4,0.5,4.5,4.8C556.7,183.8,553.8,187.2,551.7,191.4z"/>
		<g>
			<path class="st12" d="M591.7,267.3c-7.9,1.2-15.9,2.3-23.8,3.5c-1.6-6.8-2.6-13.8-3.2-20.8c-7-0.8-15.3-2.7-18-9.8
				c-0.9-2.3-1-4.7-1.2-7.2c-0.6-10.1-1.2-20.1-1.8-30.2c-0.2-3.5-0.4-7.1,0.6-10.4c1.8-5.8,6.9-9.4,12.1-11.8
				c13-6.1,28.6-6.7,41.3,0.4c3.4,1.9,6.6,4.4,8.7,7.9c3.2,5.4,3.2,12.2,3.1,18.7c-0.1,5.9-0.2,11.8-0.3,17.8
				c-0.1,6.8-0.7,14.7-5.8,18.5c-2.7,2-6.3,2.6-8.6,5.2C590.6,253.5,593,261.1,591.7,267.3z"/>
		</g>
		<path class="st11" d="M544,239c1.6,6.2,4.9,12,10.2,15.3c6,3.7,13.3,3.6,20.1,3.4c3.8-0.1,7.5-0.2,11.3-0.3
			c9.5-0.3,18.9-2,23.3-12.2c2-4.7,2.5-10.1,1.9-15.3c-0.2-1.4-0.4-2.9-1.2-4.1c-0.7-1.2-2.1-2.1-3.4-1.8c-1.7,0.3-2.6,2.2-3.6,3.7
			c-2.2,3.2-6.3,5.1-9.8,3.7c-1-0.4-1.9-1.1-2.8-1.8c-0.4-0.3-0.7-0.6-1.1-0.8c-3.7-2.7-8.2-3.8-12.6-4.1c-3.8-0.3-9.5-1.4-12.1,2
			c-1.5,2-3.1,3.9-4.6,5.9c-0.6,0.8-1.3,1.6-2.1,2.2c-0.9,0.6-1.9,0.8-2.9,0.8c-2.6,0.2-5.5-0.9-6.5-3.4c-0.4-1.1-0.4-2.3-0.6-3.5
			c-0.1-1.2-0.4-2.5-1.1-3.3c-3-3.3-3.5,2.2-3.5,4.1C542.8,232.4,543.2,235.8,544,239z M570,239.4c3.1,1.9,6.3,1.7,9.6,0.6
			c1.7-0.6,2.6,2.2,0.9,2.8c-4,1.4-8,1.5-11.7-0.8C567.1,241.1,568.4,238.4,570,239.4z"/>
		<path class="st11" d="M538.6,174.6c-0.8-2.4-1.4-4.9-1.8-7.4c2.4,0.7,4.9,0.8,7.3,0.2c-0.1-1.4-0.1-2.9-0.2-4.3
			c-0.1-1.2,16.2-2.9,17.5-3.1c12.4-1.7,23.6-3.2,35.2,2.9c9.9,5.2,16.5,13.4,18.5,24.3c1.9,10.5-0.8,24.5-6.5,33.5
			c-0.1-2.8,1.2-9.5,0.4-12.2c-0.5-2.7-1.6-5.2-3-7.5c-2.8-4.6-6.9-8.4-11.7-11.1c-7.5-4.2-16.1-6.2-24.6-6.9
			c-7.8-0.7-17.3-1.2-24.8,1.3c-3.6,1.2-4.2,2.1-6.6-1.5c-0.4-0.6-3.9-8.1-3.6-8.1C536,174.8,537.3,174.7,538.6,174.6z"/>
	</g>
	<g>
		<path class="st13" d="M499.3,384.1c7.3-13.8,11.3-28.8,18-43.2c4.2-9,8.8-17.7,13.6-26.4c1.3-2.4,12.8-25.2,14.3-24.9
			c-5.9-1.1-12.2,0.6-17.7,3.6c-5.5,3-10.4,7.2-15.2,11.3c-3.3,2.8-6.6,5.7-9.9,8.5c-1.5,1.3-3,2.6-4.3,4.2c-1.6,2-2.6,4.4-3.6,6.7
			c-5.3,12.1-11,24-15.9,36.3c-4,10-11.3,23.8-7.3,34.8c2,5.6,4.8,9,11.4,7.5c5.1-1.2,8.7-5.7,11.6-10
			C496.2,389.7,497.9,386.9,499.3,384.1z"/>
	</g>
	<g>
		<g>
			<polygon class="st14" points="350.7,682.6 350.2,691.3 366.2,712.9 376.4,713.7 381.4,703.9 371.1,685.3 355.8,672.8 			"/>
			<path class="st12" d="M363.5,701.8c0.1,0.2,0.3,0.4,0.5,0.5c0.4,0.1,0.7,0,1.1-0.2c2.7-1.4,5.4-2.8,8.1-4.2
				c0.7-0.3,1.4-0.7,1.6-1.4c0.2-0.7-0.2-1.4-0.6-2c-3-4.8-6.2-9.5-9.4-14.2c-4.8,1-10.1,1.6-14.7,3.2
				C352.3,689.8,359.3,696.4,363.5,701.8z"/>
		</g>
		<g>
			<polygon class="st14" points="419.5,675.9 419,684.6 434.9,706.2 445.1,707 450.2,697.2 439.9,678.6 424.5,666.1 			"/>
			<path class="st12" d="M432.2,695.2c0.1,0.2,0.3,0.4,0.5,0.5c0.4,0.1,0.7,0,1.1-0.2c2.7-1.4,5.4-2.8,8.1-4.2
				c0.7-0.3,1.4-0.7,1.6-1.4c0.2-0.7-0.2-1.4-0.6-2c-3-4.8-6.2-9.5-9.4-14.2c-4.8,1-10.1,1.6-14.7,3.2
				C421.1,683.1,428.1,689.7,432.2,695.2z"/>
		</g>
		<g>
			<path class="st15" d="M290.7,476.2c0,0-7.5,39.9,15.3,57.9s43.3,23.3,43.3,23.3l1.3,125.3l18.7-0.2L402.6,545l-43.2-83.9
				L290.7,476.2z"/>
			<polygon class="st15" points="411.8,457.2 452.2,540.3 436.8,677.8 419.5,677.5 398.5,540.3 349.5,463.8 			"/>
		</g>
		<g>
			<g>
				<g>
					<path class="st12" d="M361.2,274.9c7.3,0.7,14.5,1.4,21.8,2.1c1.1-6.4,1.8-12.9,2-19.5c6.3-1.1,13.8-3.2,16-9.9
						c0.7-2.1,0.7-4.5,0.7-6.7c0.1-9.4,0.2-18.8,0.2-28.1c0-3.2,0-6.6-1-9.6c-1.9-5.3-6.7-8.4-11.5-10.4
						c-12.1-5.1-26.3-4.9-37.5,2.3c-3,1.9-5.8,4.4-7.5,7.7c-2.7,5.1-2.3,11.5-1.9,17.5c0.4,5.5,0.7,11,1.1,16.5
						c0.4,6.3,1.3,13.6,6.1,16.9c2.5,1.8,5.8,2.1,8,4.4C361.6,262,359.8,269.2,361.2,274.9z"/>
				</g>
				<path class="st11" d="M391,202.7c0.3,0.5,0.6,1,0.8,1.6c1.1,2.9,0.4,6.2,1.5,9.1c1.6,4.6,7.1,7.3,8,12.1c0.7,3.9-1.9,7.7-2,11.7
					c-0.2,4.4,2.7,8.4,2.3,12.8c-0.3,3.7-2.6,9-4.8,12.1c0.7-0.9,6.9-0.7,8.5-1.7c2.5-1.6,2.7-2.5,3.4-5.1c0.7-2.6,0.1-5.1,1.2-7.8
					c1.3-3.3,4.2-5.7,5.1-9.2c1.3-4.7-1.3-9.7-1.2-14.6c0.2-7.4,6.5-14.5,4-21.5c-1.4-4.1-5.5-6.7-7.8-10.4
					c-1.8-2.8-2.5-6.1-3.7-9.2c-1.2-3.1-3.3-6.1-6.5-7c-1.8-0.5-3.7-0.2-5.5-0.5c-3.1-0.5-5.8-2.6-8.8-3.6
					c-4.3-1.4-11.8,3.1-14.3,6.8c-2.4,3.7-1.1,6.7,1.5,9.9C377.1,193.4,387.4,196.7,391,202.7z"/>
			</g>
			<path class="st11" d="M329.2,182.4c-2.5,1.9-5.7,3.4-8,5.6c-4.5,4.4-5.3,11.3-5.3,17.6c0,5.6-2.4,10.6-1.7,16.5
				c0.5,3.9,2.2,7.9,5.5,10.1c4,2.8,10.3,3.2,12.1,7.7c2,4.9-3,11.3,0.2,15.6c1.8,2.4,5.2,2.6,7.7,4.2c2.8,1.7,4.3,4.9,6,7.7
				c1.7,2.8,4.3,5.6,7.6,5.6c0-5,0.1-9-2.1-13.5c-1.3-2.6-5-7.5-2.3-10.4c1.7-2.4,5.9-3.3,6-6.3c0-1.4-1-2.6-1.8-3.7
				c-3.1-4.5-3.5-10.5-1.5-15.6c1.9-5.1,6-9.1,10.9-11.6c5.7-2.9,4.7-4.2,6.3-9.7c1.4-5.1,4.3-6.3,8.8-8.2c4-1.7,5.3-2.8,6.8-6.6
				c1-2.8,2.3-6.2,0.7-9.2c-1.3-2.4-3.6-4.2-5.9-5.8c-4.7-3.4-9.9-7-15.7-6.5c-3.2,0.3-6.2,1.9-9.4,2.1c-2.1,0.2-4.3-0.3-6.4-0.3
				c-3.7-0.1-7.5,1.1-10.4,3.4c-3,2.3-2.8,4.6-4.4,7.7C331.8,180.2,330.6,181.4,329.2,182.4z"/>
			<path class="st11" d="M341.8,161.7c0.5-3.5,0.1-8-3.3-9.1c-1.8-0.6-3.9,0.1-5.8-0.2c-4-0.7-5.5-5.6-7.7-9.1
				c-0.3-0.5-0.7-1.1-1.3-1.3c-0.8-0.3-1.7,0-2.6,0.1c-4,0.6-7.1-3.3-10.9-4.7c-4.7-1.7-10.5,1.3-11.9,6.2c-0.5,2-0.4,4.1-0.9,6.1
				c-2.1,8.1-13.8,11.7-13.9,20c-0.1,5.6,5.5,10.9,3.5,16.2c-1.3,3.4-5.6,5.7-5,9.3c0.4,2.3,2.8,3.8,5.1,3.7
				c2.3-0.1,4.4-1.4,6.1-2.9c2.7-2.5,4.8-5.6,7.4-8.2c2.6-2.6,6.1-4.7,9.7-4.4c3.5,0.4,6.8,3.1,10.3,2.4c2.8-0.5,4.8-3.1,7.6-3.8
				c2.6-0.7,5.3,0.3,7.9,0.4c2.7,0.1,5.9-1.3,5.9-4c0-0.6-0.2-1.3,0-1.9c0.5-1.7,3.5-1.7,4-3.4c-1.4-2.1-3.4-1.3-4.4-4.1
				C340.9,166.7,341.5,163.8,341.8,161.7z"/>
		</g>
		<path class="st16" d="M376,269.2c8.7-1.2,17.5-2.7,24.8,0.4c6.2,2.7,6.1,10.5,7.4,16.4c11.1,47.1,15.1,94.8,19.1,142.8
			c0.9,10.8,1.8,21.7,2.7,32.5c0.6,7.3,1.2,14.6,1.5,21.9c-1.6,1.4-3.6-1.2-4.7-3c-1.7-2.7-4.5-4.3-7.4-5.7
			c-15.1-7.3-32.2-9.8-48.9-9.6c-16.8,0.2-33.4,3-49.9,5.8c-6,1-12.2,2.2-16.9,5.9c-2.9,2.3-5.1,5.5-7.4,8.4c-1.4,1.7-3,3.4-5.1,3.7
			c-2.8,0.4-5.4-1.8-6.3-4.5c-1-2.6-0.7-5.5-0.4-8.3c3.6-32.2,10.3-64.3,21.7-94.5c5.9-15.7,9.4-32.7,14.6-48.7
			c5.2-15.7,10.6-31.4,16.1-47c0-0.1,0-0.1,0.1-0.2c2-5.7,2.8-11.4,7.3-16c6.1-6.3,9-1.3,15.8,0C365,270.5,370.5,270,376,269.2z"/>
		<g>
			<path class="st12" d="M418,415.9c-0.1,0.2-0.2,0.4-0.3,0.5c-3.7,5.9-8.8,10.9-14.8,14.5c-0.3,0.2-0.6,0.4-0.9,0.4
				c-0.4,0-0.7-0.1-1.1-0.2c-3.3-1.2-6.8-2.4-9.3-4.9c-0.7-0.7-1.4-1.8-1.1-2.8c0.2-0.7,0.9-1.1,1.5-1.4c1-0.6,3.8-1.6,4.1-2.7
				c0.4-1.2-1-1.8-1.8-2.4c0.6-1.5,1.2-3,1.9-4.5c0.4-0.9,1-3.6,1.7-4.2c0,0,12-8.3,12-8.3l9.6,5.3
				C419.2,408.5,419.5,413.1,418,415.9z"/>
			<path class="st16" d="M429.2,284.4c1.2,1.7,2.2,3.6,3.1,5.6c3.1,7,4.7,14.6,7.6,21.7c3.1,7.6,5.5,15.8,8.1,23.6
				c2.9,8.6,6.1,17.6,5,26.8c-0.3,2-2,3.8-3.1,5.5c-2.5,3.9-5,7.7-7.5,11.6c-6.1,9.4-12.3,18.9-18.4,28.3c-2.2,3.4-4.4,6.8-6.6,10.2
				c0,0-20.8-5.7-20.8-5.7c6.8-15.7,13.6-31.3,20.4-47c1.2-2.9,2.7-5.7,3.8-8.7c1.7-4.8-3.8-12-5.9-16.6
				c-7.2-15.6-14.1-31.3-20.6-47.2c-1.2-3-2.5-6-3.3-9.2c-0.4-1.7-0.7-3.6-0.1-5.2c0.9-2.3,3.4-3.5,5.7-4.4
				C409.7,269.1,421.9,273.6,429.2,284.4z"/>
		</g>
		<g>
			<path class="st12" d="M241.9,261.4c-0.1-0.2-0.2-0.4-0.3-0.6c-2.6-6.5-3.6-13.5-3-20.5c0-0.3,0.1-0.7,0.2-1
				c0.2-0.3,0.5-0.6,0.8-0.8c2.9-2,5.9-4.1,9.4-4.6c1-0.2,2.3-0.1,2.9,0.8c0.4,0.6,0.4,1.4,0.3,2.1c-0.1,1.1-0.9,4-0.2,4.9
				c0.7,1,2.1,0.2,3-0.1c0.8,1.4,1.7,2.7,2.5,4.1c0.5,0.8,2.4,2.9,2.4,3.9c0,0-0.3,14.6-0.3,14.6l-9.9,4.7
				C247.3,266.7,243.4,264.2,241.9,261.4z"/>
			<path class="st16" d="M334.8,332.5c-5.7,2.7-12.1,4.4-18.2,5.7c-12,2.4-24.2,3.5-36.4,3.3c-2.2,0-4.6-0.1-6.5-1.2
				c-6.1-3.4-8.9-18.5-11.3-24.8c-1.7-4.3-3.3-8.6-5-12.9c-4-10.5-8.1-21-12.1-31.5c-1.5-3.8-2.9-7.6-4.4-11.4
				c0,0,16.9-13.5,16.9-13.5c-0.7,0.5,21.6,36.4,23.6,39.8c6.7,11.4,9.8,21.7,26,15.8c6.8-2.5,12.5-7.3,18-12
				c6.8-5.9,13.6-11.7,20.4-17.6c0.9-0.8,2-1.7,3.2-1.7c1.5,0,2.7,1.2,3.6,2.4c3.6,5.1,3.7,11.8,3.7,18c0,9-0.1,18.5-4.3,26.5
				C348.2,324.3,342,329.1,334.8,332.5z"/>
		</g>
	</g>
	<g>
		<polygon class="st0" points="613.8,310.6 539.6,343.1 474.2,311.3 472.5,310.5 393.2,341.7 393.2,530.3 472.7,504.1 531.8,528.9 
			610,505 682.3,527 682.8,335.4 		"/>
		<g>
			<defs>
				<polygon id="SVGID_1_" points="614.5,313.7 613.9,313.4 539.6,346 473,313.7 472.4,313.4 395.8,343.5 395.8,526.6 472.8,501.3 
					531.9,526.1 610,502.3 679.6,523.5 680.1,337.3 				"/>
			</defs>
			<clipPath id="SVGID_00000007402850985027526390000013142719393451105206_">
				<use xlink:href="#SVGID_1_"  style="overflow:visible;"/>
			</clipPath>
			<g style="clip-path:url(#SVGID_00000007402850985027526390000013142719393451105206_);">
				<g>
					<defs>
						
							<rect id="SVGID_00000000208830016968673670000003633782294799003547_" x="425.1" y="253.2" transform="matrix(1.939604e-02 -0.9998 0.9998 1.939604e-02 105.1553 943.6998)" width="217.2" height="330.1"/>
					</defs>
					<use xlink:href="#SVGID_00000000208830016968673670000003633782294799003547_"  style="overflow:visible;fill:#F4EBE1;"/>
					<clipPath id="SVGID_00000121248701610425446970000003200712668770939580_">
						<use xlink:href="#SVGID_00000000208830016968673670000003633782294799003547_"  style="overflow:visible;"/>
					</clipPath>
					<polygon style="clip-path:url(#SVGID_00000121248701610425446970000003200712668770939580_);fill:#A6CAA2;" points="671.1,311 
						648.1,435.3 570.6,400.7 589.4,299.9 					"/>
					<path style="clip-path:url(#SVGID_00000121248701610425446970000003200712668770939580_);fill:#A3CEDF;" d="M429,319.6
						c-4.6,10.2-7.2,21.2-10.9,31.7c-6.7,19.2-16.9,36.9-27.6,54.2c-6.3,10.2-12.7,20.3-19.4,30.3c-3.2,4.9-6.5,9.8-8,15.5
						c-2.9,11,1.5,22.5,5.9,33c3.2,2.1,7.8,1,10.7-1.4c3-2.5,4.7-6.1,6.4-9.6c13.2-27.9,25.1-56.3,35.9-85.2
						c10.7-28.6,23.8-59.6,28.8-89.7C440.2,291.2,432.2,312.6,429,319.6z"/>
					<path style="clip-path:url(#SVGID_00000121248701610425446970000003200712668770939580_);fill:#FFFFFF;" d="M682.8,297.6
						c-4.6,0-9.2,0.2-13.7,0.3l-47,251.9l13.2,2.5L682.8,297.6z"/>
					<path style="clip-path:url(#SVGID_00000121248701610425446970000003200712668770939580_);fill:#FFFFFF;" d="M596.3,293.9
						c-2.2-0.2-4.5-0.4-6.7-0.6l-46.7,250.5l6.6,1.2L596.3,293.9z"/>
					<polygon style="clip-path:url(#SVGID_00000121248701610425446970000003200712668770939580_);fill:#FFFFFF;" points="
						709.3,460.3 402.1,320.9 396.3,327.6 713.5,472.3 					"/>
					<path style="clip-path:url(#SVGID_00000121248701610425446970000003200712668770939580_);fill:#A6CAA2;" d="M403.5,356
						c-3.1,7.9-6.8,16.4-14.1,20.7c-8.6,5-19.5,2.6-28.9-0.9c-6.6-2.5-13.7-6-16.2-12.7c-2.4-6.3,0.2-13.4,2.7-19.7
						c5.7-14,11.4-28.1,17.2-42.1c0.8-1.9,1.6-3.9,3-5.4c2.4-2.6,6.1-3.4,9.6-3.9c11.5-1.8,43-7.2,46.2,8.7c1.5,7.5-4.5,17.4-7.1,24
						C411.7,335.2,407.6,345.6,403.5,356z"/>
					<polygon style="clip-path:url(#SVGID_00000121248701610425446970000003200712668770939580_);fill:#FFFFFF;" points="
						580.9,348.4 475.9,308.2 461.2,308.2 580.7,355.2 					"/>
					<polygon style="clip-path:url(#SVGID_00000121248701610425446970000003200712668770939580_);fill:#FFFFFF;" points="521,331.7 
						508.1,369.1 514.4,371.9 529.6,335.1 					"/>
					<polygon style="clip-path:url(#SVGID_00000121248701610425446970000003200712668770939580_);fill:#FFFFFF;" points="
						648.2,482.8 697.1,503.6 696.9,515.5 646.7,491.1 					"/>
					<polygon style="clip-path:url(#SVGID_00000121248701610425446970000003200712668770939580_);fill:#FFFFFF;" points="
						673.3,348.3 700.2,357.7 699.8,365.1 670.1,355 					"/>
					<polygon style="clip-path:url(#SVGID_00000121248701610425446970000003200712668770939580_);fill:#FFFFFF;" points="664,392.4 
						707.6,402.2 707.1,409.5 658.9,399.1 					"/>
					<polygon style="clip-path:url(#SVGID_00000121248701610425446970000003200712668770939580_);fill:#FFFFFF;" points="
						511.6,380.2 446.1,525.3 434.6,524.9 503.1,376.3 					"/>
					<polygon style="clip-path:url(#SVGID_00000121248701610425446970000003200712668770939580_);fill:#FFFFFF;" points="
						482.5,421.1 437.1,403.9 387.6,524 396.1,524.2 441.4,416.3 559,474.2 562,467.1 					"/>
					<polygon style="clip-path:url(#SVGID_00000121248701610425446970000003200712668770939580_);fill:#FFFFFF;" points="602,419.7 
						573.1,535 586.3,535.3 613.6,419.9 					"/>
					<polygon style="clip-path:url(#SVGID_00000121248701610425446970000003200712668770939580_);fill:#F4EBE1;" points="
						650.7,301.2 631.5,363.6 602.4,346.8 606.7,302.2 					"/>
					
						<rect x="329.5" y="470.9" transform="matrix(0.8554 0.5179 -0.5179 0.8554 320.0306 -182.0092)" style="clip-path:url(#SVGID_00000121248701610425446970000003200712668770939580_);fill:#F2D263;" width="313" height="22.7"/>
				</g>
			</g>
		</g>
		<polygon class="st23" points="611.5,500.9 679.6,521.6 680.1,338.6 615.5,315.3 		"/>
		<polygon class="st23" points="473.8,499.9 532.9,524.7 540.5,347.9 473.3,315.3 		"/>
	</g>
	<g>
		<g>
			<path class="st24" d="M753.4,489.3c0.1,2.2,0,4.4-0.3,6.6c-0.5,4.1-1.8,8.3-5,11.1c-1.3,1.2-3,2.1-3.8,3.7
				c-1.7,3.1,0.7,6.8,3.4,9.2c9,7.8,22,10.1,34.2,9.5c3.7-0.2,7.5-0.6,11-1.9c6.8-2.4,12.1-7.8,15.2-13.9c3.2-6.1,4.4-13,4.8-19.8
				c0.6-9.7-0.5-19.6-3.5-29c-2-6-4.8-11.8-9.3-16.4c-2.9-3-6.5-5.5-10.6-6.9c-4-1.4-8.3-1.1-12.5-1.8c-6-0.9-12.5-1-18.4,0.3
				c-5.2,1.2-13,3.1-13.9,8.8c-0.4,2.4,0.1,4.9,0.7,7.3C748.4,467.1,752.9,478.1,753.4,489.3z"/>
			<path class="st24" d="M746.6,498.7c0,0-11.4,2.3-13.6,13.3c-1.2,5.7-0.1,14.2-2.7,19.4c-1.4,2.6-3.9,4.2-5.8,6.4
				c-1.4,1.5-4.9,3.3-5.5,5.2c-0.4,1,0.2,2.2,0.9,3c5.6,6.9,11.8,1.6,15.1-4.1c2.6-4.3,4.9-13.1,10-15.2c8-3.3,12.9,1.3,18.7-1.4
				c5.7-2.7,4.5-24.7,4.5-24.7l-22.4-2.7L746.6,498.7z"/>
			<path class="st24" d="M772.8,512.6c-1,0.5-1.9,1.1-2.7,1.8c-4.5,3.7-7.6,8.2-7.3,14.2c0.3,5.8,3.4,13.8,2.1,19.5
				c-0.4,0.2-2.7,5.2-3.1,6c-1.2,2-2.3,3.4-3.9,5.1c-0.5,0.5-0.9,1-1.2,1.5c-1,1.8-0.2,4.2,1.6,5.1c9.7,4.8,13.2-6,14.9-13
				c0.8-3.3,1.3-6.7,2.7-9.8c1.9-4.4,4.7-6.2,8.7-8.6c2.3-1.4,4.4-3.2,6.4-5c2.6-2.4,5.1-4.9,7.3-7.6c1.5-1.8,2.8-3.9,3-6.3
				c0.3-5.6-5.9-6.7-10-6.1C785.1,510.1,778.2,509.8,772.8,512.6z"/>
			<g>
				<path class="st25" d="M741.7,438.5l1.2,4.1c0,0,10.6,13.8,38.4,6.4c12.6-5.4,9.5-7.5,9.5-7.5l-1.7-2.3
					C789.1,439.1,768.5,455.5,741.7,438.5z"/>
				<g>
					<path class="st24" d="M735.4,425.1c0,1.6-0.1,3-0.1,4.3c-0.1,1.2-0.1,2.3,0.2,3.5c0.3,1,0.9,1.8,1.5,2.6c2.5,3,6.2,4.8,9.6,6.6
						c3.5,1.8,6.7,4.4,10.6,5.1c6.2,1.1,12.6,0.8,18.7-0.9c6.3-1.8,11.2-5.5,16.7-9.1c1-0.6,2-1.3,2.6-2.3c0.7-1.1,0.9-2.5,1.1-3.8
						c1.1-10.9-0.7-22.1-5.2-32.1c-0.7-1.6-1.6-3.3-3.2-4.1c-1-0.5-2.1-0.5-3.2-0.6c-7.4-0.3-14.9-0.5-22.3-0.5
						c-4.4,0-12.2-1.5-16.3-0.1C735.8,397.1,735.5,414.5,735.4,425.1z"/>
					<path class="st26" d="M732.9,392.7c-0.9,7-0.2,11.2-0.1,18.3c3.9-1.1,7.1-3.6,10.2-6.1c2.3-1.9,13.1-9.6,10.6-12.4
						c-0.8-0.9-7.1-1.7-8.4-2C741.6,389.6,736.7,392.2,732.9,392.7z"/>
					<path class="st26" d="M794.5,416.4c0.3,1.4,2.9-2.5,2.9-2.5c1-1.6,1.8-3.3,2.5-4.9c1.6-3.5,2.9-7.2,3.7-10.9
						c0.1-0.3,0.1-0.6,0.1-0.9c-0.1-0.4-0.4-0.7-0.7-1c-2.9-2.6-14.1-7.1-17.5-3.2c-0.9,1-1,2-2.2,2.8c3.9,1.6,4.9,2.9,6.7,6.7
						C792.1,407,793.6,411.6,794.5,416.4z"/>
					<g class="st27">
						<path class="st26" d="M772.2,398.5c-1.8,3.2-1.9,6.8-0.4,10.1c0.5,1.1,2.1,0.2,1.6-0.9c-1.2-2.7-1.1-5.6,0.4-8.2
							C774.4,398.4,772.8,397.4,772.2,398.5z"/>
						<path class="st26" d="M761.7,397.3c-0.9-0.8-2.3,0.5-1.4,1.3c2.2,2.1,3.3,5,2.8,8.1c-0.2,1.2,1.6,1.7,1.8,0.5
							C765.5,403.6,764.4,399.9,761.7,397.3z"/>
						<path class="st26" d="M768.1,394.5c-0.1-1.2-2-1.3-1.9,0c0.1,1.5,0.2,2.9,0.3,4.4c0.1,1.2,2,1.3,1.9,0
							C768.3,397.5,768.2,396,768.1,394.5z"/>
					</g>
				</g>
			</g>
			<path class="st26" d="M803.1,512c1.4-2.2,5.1-1.9,6.9,0.1s2.1,4.9,2,7.5c-0.1,3.3-0.9,7.2-4,8.5c-1.1,0.5-2.2,0.5-3.4,0.5
				c-1.9-0.1-3.9-0.5-5.4-1.6c-2.7-1.9-3.8-5.9-2.4-9c1.4-3.1,5.1-4.8,8.4-4L803.1,512z"/>
		</g>
		<g>
			<g>
				<g>
					<path class="st0" d="M669.9,412.9c0,0,0.2,0.2,0.3,0.3C670.2,413.1,669.9,412.8,669.9,412.9z"/>
					<polygon class="st0" points="669.3,412.3 669.4,412.4 669.1,412.1 					"/>
					<path class="st0" d="M669.3,412.3C668.8,411.8,669.4,412.3,669.3,412.3l-0.2-0.2l0.4,0.4C669.4,412.4,669.2,412.1,669.3,412.3z
						"/>
					<path class="st0" d="M670.3,413.3C670.1,413.1,670.2,413.1,670.3,413.3C670.3,413.2,670.3,413.2,670.3,413.3
						C670.3,413.3,670.3,413.3,670.3,413.3z"/>
					<path class="st0" d="M670.3,413.3C670.3,413.3,670.5,413.4,670.3,413.3L670.3,413.3z"/>
					<path class="st0" d="M670.2,413.1l0.2,0.2c0.1,0.1,0.1,0.1,0.2,0.2C670.5,413.4,670.4,413.3,670.2,413.1z"/>
					<path class="st0" d="M669.9,412.8L669.9,412.8C670,412.9,670,412.9,669.9,412.8z"/>
					<path class="st0" d="M670.1,413l-0.1-0.1C669.9,412.8,669.7,412.7,670.1,413C669.9,412.8,670,412.9,670.1,413z"/>
					<path class="st0" d="M670,413c-0.1-0.1-0.2-0.2-0.3-0.3C669.7,412.7,670.1,413,670,413z"/>
					<path class="st0" d="M668.8,411.8l-0.1-0.1L668.8,411.8C668.8,411.7,669,411.9,668.8,411.8z"/>
					<path class="st0" d="M670.5,413.4c-0.1-0.1-0.3-0.3-0.4-0.4l0.1,0.1C670.2,413.2,670.3,413.2,670.5,413.4z"/>
					<path class="st0" d="M670.1,413l-0.2-0.2C669.9,412.8,670,412.9,670.1,413z"/>
					<polygon class="st0" points="669.4,412.3 669.7,412.6 669.3,412.3 					"/>
					<polygon class="st0" points="670.5,413.4 670.7,413.6 670.4,413.3 					"/>
					<path class="st0" d="M670.4,413.4c0.2,0.2,0.3,0.3,0.4,0.4C670.8,413.8,670.7,413.6,670.4,413.4
						C670.6,413.5,670.6,413.5,670.4,413.4z"/>
					<path class="st0" d="M670.3,413.2c0,0,0.1,0.1,0.2,0.2C670.5,413.4,670.4,413.3,670.3,413.2z"/>
					<path class="st0" d="M669.9,412.9c0.1,0.1,0.2,0.2,0.3,0.3L669.9,412.9C669.9,412.9,669.9,412.9,669.9,412.9z"/>
					<path class="st0" d="M669.9,412.9L669.9,412.9C670,412.9,670,412.9,669.9,412.9C670,412.9,670,412.9,669.9,412.9z"/>
					<path class="st0" d="M669.9,412.9C669.9,412.9,669.9,412.9,669.9,412.9C669.9,412.8,669.9,412.8,669.9,412.9z"/>
					<path class="st0" d="M669.6,412.5c-0.2-0.2-0.3-0.3-0.6-0.6C669.2,412.2,669.4,412.3,669.6,412.5z"/>
					<path class="st0" d="M669.6,412.5L669.6,412.5c0,0,0.1,0.1,0.2,0.2L669.6,412.5z"/>
					<polygon class="st0" points="669.5,412.4 669.6,412.5 669.6,412.5 					"/>
					<path class="st0" d="M670.1,413c-0.1-0.1-0.1-0.1-0.2-0.2c-0.1-0.1-0.1-0.1-0.1-0.1C669.9,412.8,670.1,413,670.1,413z"/>
					<path class="st0" d="M670,412.9C670,412.9,670,412.9,670,412.9C669.9,412.9,669.9,412.9,670,412.9z"/>
					<path class="st0" d="M669.9,412.8C669.9,412.8,669.9,412.8,669.9,412.8C669.9,412.8,669.9,412.8,669.9,412.8L669.9,412.8z"/>
					<path class="st0" d="M669.8,412.7c-0.1-0.1,0,0,0.1,0.1C669.8,412.8,669.8,412.7,669.8,412.7
						C669.8,412.7,669.7,412.7,669.8,412.7z"/>
					<path class="st0" d="M670.2,413.1c-0.1-0.1-0.1-0.1-0.2-0.2C670.1,413,670.3,413.2,670.2,413.1z"/>
					<path class="st0" d="M670,413C670,413,670,413,670,413C670.1,413,670.1,413,670,413z"/>
					<path class="st0" d="M670,413c0,0-0.1-0.1-0.2-0.2C669.9,412.8,669.9,412.8,670,413C670,412.9,670,412.9,670,413z"/>
					<path class="st0" d="M668.1,411c0.3,0.3,0.5,0.5,0.2,0.2c0.2,0.2,1,1,1.5,1.5c-0.1-0.1-0.2-0.2-0.4-0.4
						c-0.1-0.1-0.3-0.3-0.6-0.6c-0.1-0.1,0.1,0.1,0.2,0.2C668.8,411.7,668.7,411.6,668.1,411l0.3,0.3
						C668.3,411.2,668.2,411.1,668.1,411z"/>
					<path class="st0" d="M669.8,412.7L669.8,412.7c0.1,0.1,0.2,0.2,0.4,0.4C670.1,413,670,412.9,669.8,412.7L669.8,412.7
						L669.8,412.7z"/>
					<path class="st0" d="M669.9,412.8c-0.3-0.3-0.4-0.4-0.7-0.7c0,0,0.2,0.2,0.4,0.4C669.4,412.4,669.7,412.6,669.9,412.8
						C669.9,412.8,669.9,412.8,669.9,412.8c0.1,0.1,0.1,0.1,0.2,0.2c0,0,0,0,0,0l0,0c0,0,0,0,0,0c0,0-0.1-0.1,0,0c0,0,0,0,0,0
						C669.9,412.9,669.9,412.8,669.9,412.8c0.1,0.1,0.1,0.1,0.1,0.1c0,0,0,0,0,0c0,0,0,0,0,0L669.9,412.8
						C669.8,412.7,669.8,412.7,669.9,412.8z"/>
					<path class="st0" d="M668.4,411.4C668.5,411.4,668.5,411.4,668.4,411.4C668.5,411.4,668.4,411.4,668.4,411.4z"/>
					<path class="st0" d="M668.6,411.5c0,0,0.2,0.2,0.1,0.1c-0.1-0.1-0.1-0.1-0.2-0.2c0.1,0.1,0.2,0.2,0.3,0.3l0,0
						c0.1,0.1,0.4,0.4,0.5,0.5C669,412,668.9,411.8,668.6,411.5z"/>
					<path class="st0" d="M669.2,412.1L669,412l-0.2-0.2l0.1,0.1C668.9,411.8,669.1,412,669.2,412.1z"/>
					<polygon class="st0" points="670,413 670.3,413.3 669.9,412.8 					"/>
					<polygon class="st0" points="670,412.9 670.3,413.2 670.1,413 					"/>
					<path class="st0" d="M666.9,409.7L666.9,409.7C666.8,409.6,666.8,409.6,666.9,409.7z"/>
					<path class="st0" d="M666.8,409.6l0.1,0.1C666.9,409.7,666.8,409.7,666.8,409.6z"/>
					<path class="st0" d="M670,412.9c0.2,0.2,0.6,0.6,0.3,0.3L670,412.9C670.1,413,670.1,412.9,670,412.9z"/>
					<path class="st0" d="M668.3,411.2C668.3,411.1,668.3,411.1,668.3,411.2c0,0,0.1,0.1,0.2,0.2
						C668.5,411.3,668.4,411.2,668.3,411.2z"/>
					<path class="st0" d="M667.2,410l0.2,0.2C667.3,410.1,667.2,410,667.2,410z"/>
					<path class="st0" d="M666.6,409.4l-0.3-0.3C666.3,409.1,666.4,409.2,666.6,409.4z"/>
					<path class="st0" d="M669.9,412.8c0.1,0.1,0.2,0.2,0.2,0.2C669.9,412.8,669.7,412.6,669.9,412.8z"/>
					<path class="st0" d="M669.9,412.7c-0.1-0.1-0.1-0.1-0.2-0.2C669.7,412.5,669.8,412.6,669.9,412.7z"/>
					<path class="st0" d="M670.1,413C670.1,413,670,412.9,670.1,413C670.1,413,670.1,413,670.1,413
						C670.2,413.1,670.3,413.2,670.1,413z"/>
					<path class="st0" d="M666.8,409.6C666.9,409.6,666.9,409.6,666.8,409.6C666.8,409.6,666.8,409.5,666.8,409.6z"/>
					<path class="st0" d="M669.7,412.4C669.7,412.4,669.7,412.4,669.7,412.4C669.7,412.4,669.7,412.4,669.7,412.4z"/>
					<path class="st0" d="M670.1,413C670.2,413.1,670.2,413.1,670.1,413L670.1,413z"/>
					<path class="st0" d="M669,411.9c0,0-0.1-0.1-0.1-0.1C668.9,411.9,669,411.9,669,411.9z"/>
					<path class="st0" d="M668.3,411.2L668.3,411.2C668.3,411.2,668.3,411.2,668.3,411.2z"/>
					<path class="st0" d="M670,412.9C670,413,670.1,413,670,412.9C670.1,413,670,413,670,412.9z"/>
					<path class="st0" d="M670.1,413.1C670.1,413,670.1,413,670.1,413.1C670.2,413.1,670.2,413.1,670.1,413.1z"/>
					<path class="st0" d="M670.1,413C670.1,413,670.1,413,670.1,413C670.1,413,670.1,413,670.1,413C670.1,413,670.1,413,670.1,413z"
						/>
					<path class="st0" d="M667.6,410.3C667.6,410.3,667.6,410.3,667.6,410.3C667.5,410.2,667.5,410.3,667.6,410.3z"/>
					<polygon class="st0" points="667.1,409.9 667.1,409.9 667.1,409.9 					"/>
					<path class="st0" d="M666.9,409.7c0.4,0.4,0.3,0.3,0.2,0.2l0.8,0.8L666.9,409.7z"/>
					<path class="st0" d="M666.8,409.6l-0.3-0.3c-0.4-0.4-0.3-0.3-0.6-0.6C666.8,409.6,666,408.8,666.8,409.6L666.8,409.6
						c-0.1-0.1-0.1-0.1-0.1-0.1c-0.4-0.4,0.6,0.6,0.5,0.5C667.1,409.9,667,409.8,666.8,409.6l0.3,0.3c0,0-0.2-0.2-0.2-0.2l0.1,0.1
						l0,0c0.1,0.1,0.4,0.4,0.4,0.4c-0.1-0.1-0.1-0.1-0.2-0.2l0.2,0.2c-0.2-0.2-0.5-0.5-0.4-0.4C666.1,408.9,667.2,410,666.8,409.6
						l-0.2-0.2c-0.5-0.5-0.3-0.3-0.6-0.6c0.2,0.2,0.8,0.8,1,1c-0.1-0.1-0.1-0.1,0.1,0.1C666.7,409.5,666.8,409.6,666.8,409.6
						l-0.4-0.4c0.1,0.1,0.3,0.3,0.5,0.5c0,0-0.4-0.4-0.6-0.6c-0.1-0.1,0.5,0.5,0.6,0.6c-0.2-0.2,0,0,0.3,0.3
						C667,409.8,666.9,409.7,666.8,409.6l0.3,0.4c0,0-0.1-0.1-0.2-0.2c0.1,0.1,0.4,0.4,0.5,0.5c0.5,0.5-0.7-0.7-0.2-0.1
						c-0.1-0.1-0.3-0.3-0.4-0.4c0.3,0.3,0.2,0.2,0.7,0.7l-0.3-0.3c0.3,0.3,0.7,0.7,1,1c0.2,0.2,0.3,0.3,0.3,0.3l0.2,0.2
						c-0.1-0.1-0.2-0.2-0.4-0.4c0,0,0.1,0.1,0.1,0.1c-0.2-0.2-0.4-0.4-0.6-0.6c0.1,0.1,0.2,0.2,0.3,0.3c-0.3-0.3-0.5-0.5-0.8-0.8
						c0,0,0.1,0.1,0.1,0.1c-0.1-0.1-0.1-0.1-0.2-0.2c0,0,0,0,0.2,0.2l-0.5-0.5l0.2,0.2l-0.3-0.3c0.5,0.5,1.2,1.2,1.3,1.4
						c-0.3-0.3-0.6-0.6-1-1c0.4,0.4-0.2-0.2-0.1-0.1c0,0-0.2-0.2-0.3-0.3l0.4,0.4c-0.3-0.3-0.2-0.2-0.4-0.4c0.7,0.7,0.4,0.4,0.6,0.6
						c-0.2-0.2-0.4-0.4-0.4-0.4c-0.5-0.5,0.8,0.8,0.3,0.4c0,0,0,0-0.1-0.1c0.2,0.2,0,0-0.2-0.1l0,0c-0.1-0.1,0,0,0.5,0.6
						c-0.1-0.1-0.7-0.7-0.8-0.8l1.9,1.9c-0.5-0.5-1.6-1.6-1.9-1.9c-0.1-0.1-0.1-0.1,0,0c0.1,0.1,0.7,0.7,0.7,0.7
						c-0.5-0.5-0.3-0.3-0.7-0.7c0.1,0.1,0.9,0.9,0.8,0.8c-0.1-0.1-0.7-0.7-0.8-0.8l0.7,0.7c-0.1-0.1-0.6-0.6-0.8-0.8
						c0.1,0.1,0,0,0.1,0.1l0.2,0.2c-0.1-0.1,1,1,1,1c-0.2-0.2-0.9-0.9-1-1c0.4,0.4,1.8,1.8,2.1,2.1l-0.2-0.2l0.2,0.2
						c-0.6-0.6-1.8-1.8-2.2-2.2c-0.2-0.2-0.3-0.3-0.2-0.2c-0.2-0.2-0.3-0.3-0.3-0.3l-0.1-0.1c0.4,0.4,0.4,0.4,0.8,0.8L666.8,409.6
						c0.4,0.5,1.2,1.3,1.2,1.2c-0.2-0.2-0.8-0.8-0.9-0.9c0.2,0.2,0.3,0.3,0.2,0.2l-0.2-0.2c-0.2-0.2,0.6,0.6,0.2,0.2
						c0,0-0.6-0.6-0.3-0.3c0.5,0.5,2.1,2,2.4,2.4c0,0-0.5-0.5-0.7-0.7c-0.4-0.4-0.9-0.9-1.3-1.3c0.1,0.1,0.3,0.3,0.3,0.3
						c-0.1-0.1-0.4-0.4-0.3-0.3c0.4,0.4,0,0,0.4,0.4c0.1,0.1-0.1-0.1-0.1-0.1c0.3,0.3,1,1,1.1,1.1c-0.1-0.1-0.3-0.3-0.3-0.3
						c0,0-0.2-0.2-0.2-0.2c-0.1-0.1-0.2-0.2-0.4-0.4c0.1,0.1,0.2,0.2,0.2,0.2c-0.4-0.4-0.1-0.1-0.5-0.5c0.3,0.3,0.4,0.4,0.5,0.5
						c0.4,0.4,0.1,0.1-0.1-0.1c0.6,0.6,1.1,1.1,1.4,1.4c0.1,0.1-0.4-0.4-0.3-0.3c-0.1-0.1,1,1,0.6,0.6c-0.4-0.4-0.7-0.7-1-1
						c-0.1-0.1,0.2,0.2,0.2,0.2l-0.2-0.2c-0.1-0.1-0.2-0.2-0.1-0.1c-0.3-0.3-0.1-0.1-0.4-0.3c0.1,0.1,0.2,0.2,0.4,0.4l0,0
						c0.3,0.3,0.4,0.4,0.5,0.5c0.2,0.2,0.5,0.5,0.4,0.4l-0.4-0.4c0.1,0.1,0.2,0.2,0.1,0.1c0.2,0.2-0.5-0.5,0,0l0.3,0.3
						c0.2,0.2,0.6,0.6,0.5,0.5c0.4,0.4,0,0,0.4,0.4c-0.6-0.6,0,0-0.6-0.6c0.5,0.5,0.2,0.2,0.7,0.7c-0.1-0.1-0.3-0.3-0.2-0.2
						c0,0-0.1-0.1-0.1-0.1c0,0,0,0,0,0c0,0,0,0,0,0c0,0,0,0,0,0c-0.1-0.1-0.1-0.1-0.2-0.2c-0.3-0.3-0.3-0.3-0.4-0.5
						c0.1,0.1,0.2,0.2,0.3,0.3l-0.2-0.2c0.3,0.3,0.5,0.5,0.7,0.7l0,0c0.2,0.2,0.2,0.2,0.1,0.1c0.1,0.1-0.3-0.3-0.1-0.1l-0.2-0.2
						l0.1,0.1c0,0-0.5-0.5,0,0c-0.1-0.1-0.2-0.2-0.1-0.1l0.3,0.3c-0.1-0.1,0.3,0.3,0,0c0.7,0.7,0.2,0.1,0.3,0.3l-0.3-0.3
						c0,0-0.1-0.1-0.2-0.2l-0.3-0.3c-0.2-0.2,0.2,0.2,0.2,0.2c0.1,0.1,0.1,0.1,0,0c0.7,0.7-0.5-0.5,0,0c-0.1-0.1-0.1-0.1,0,0
						c0,0,0,0,0,0c0,0,0,0,0,0c0.1,0.1,0.1,0.1,0.2,0.2c-0.1-0.1-0.1-0.1-0.2-0.2c0,0,0,0-0.1-0.1l0.3,0.3c0,0,0,0,0,0
						c0.1,0.1-0.1-0.1-0.4-0.4c-0.1-0.1-0.1-0.1-0.2-0.2c0.5,0.5-0.2-0.2,0.4,0.4c-0.3-0.3-0.2-0.2-0.8-0.8c0.1,0.1,0.1,0.1,0.1,0.1
						c0.1,0.1,0.1,0.1,0,0l0.4,0.4l-0.5-0.5c0.2,0.2,0.4,0.4,0.7,0.7c-0.5-0.5-0.2-0.2-0.6-0.6l0.3,0.3c0,0-0.4-0.4-0.1-0.1
						c0.5,0.5,0.1,0.1,0.5,0.5c-0.8-0.8,0.3,0.3-0.2-0.3c0.2,0.2,0.3,0.3,0.4,0.4c-0.2-0.2,0.3,0.3-0.2-0.2c0.2,0.2,0.3,0.3,0.4,0.4
						c0,0-0.2-0.2,0,0c0.1,0.1,0.2,0.2,0.2,0.2c0,0-0.6-0.6-1.1-1.1c0.2,0.2,0.2,0.2-0.1-0.1c0.2,0.2,0.3,0.3,0.4,0.4
						c0,0,0.3,0.2-0.2-0.2c0.1,0.1,0,0,0,0c0,0,0.1,0.1,0,0l-0.1-0.1c-0.5-0.5-0.1-0.1-0.2-0.2l0.1,0.1c0.4,0.4-0.2-0.2,0.2,0.2
						l-0.3-0.3c-0.7-0.7,0.4,0.4,0.1,0.1l-0.2-0.2c-0.2-0.2,0.9,0.9,1,1c0.1,0.1,0.1,0.1,0.1,0.1c0.4,0.4-0.4-0.4-0.5-0.5
						c0.2,0.2,0.6,0.6,0.6,0.6c0.2,0.2-0.7-0.7-0.3-0.3c-0.2-0.2-0.3-0.3-0.5-0.5c-0.1-0.1,0.6,0.6,0.1,0.1c0,0,0.1,0.1,0.1,0.1
						c-0.1-0.1-0.2-0.2-0.5-0.5c1.1,1.1-0.5-0.5,0.5,0.5l-0.1-0.1l0.1,0.1c0.1,0.1-0.2-0.2-0.4-0.4c0.1,0.1,0.2,0.2,0.2,0.2
						c0.2,0.2,0.2,0.2-0.3-0.3l0.3,0.3c-0.2-0.2,0.5,0.5,0.1,0.1c0,0,0.1,0.1,0.1,0.1c-0.4-0.4,0.9,0.9-0.3-0.3l-0.3-0.3
						c-0.1-0.1-0.5-0.5-0.7-0.7c-0.1-0.1,0.4,0.4,0.4,0.4l-0.1-0.1c0.6,0.6,0.2,0.2,0.6,0.6c0,0,0.3,0.3,0.3,0.3l-0.5-0.5l0,0
						c0.1,0.1,0.4,0.4,0.4,0.4c0.3,0.3-0.2-0.2-0.3-0.3c0.2,0.2,0.6,0.6,0.6,0.6l0,0l-0.1-0.1c-0.2-0.2-0.4-0.4-0.4-0.4
						c0.1,0.1,0.3,0.3,0.3,0.3c0,0,0.1,0,0,0l0,0l-0.4-0.4c-0.2-0.2,0,0-0.4-0.4c0.7,0.7,0.2,0.2,0.4,0.4c-0.3-0.3-0.3-0.3-0.2-0.2
						c-0.1-0.1-0.5-0.5-0.5-0.5c0.9,0.9,0.4,0.4,1,1c-0.4-0.4-0.1-0.1-0.7-0.7c0.1,0.1,0.3,0.3,0.5,0.5c-0.3-0.3,0.2,0.2,0.1,0.1
						c-0.1-0.1-0.3-0.3-0.5-0.5l0.6,0.6c-0.1-0.1-0.7-0.7-0.3-0.3c-0.1-0.1-0.2-0.2-0.3-0.3c0.6,0.6-0.5-0.5,0.6,0.6
						c-0.2-0.2-0.2-0.2-0.3-0.3c-0.1-0.1-0.3-0.3-0.4-0.4l0.4,0.4c-0.4-0.4,0,0-0.4-0.4l0.1,0.1c-0.5-0.5-1.1-1.1-1.7-1.7
						c0.6,0.6-0.8-0.8,0,0c-0.1-0.1-0.2-0.2-0.3-0.3c0.3,0.3,0.3,0.3,0.2,0.2l-0.1-0.1c0.1,0.1-0.2-0.2-0.4-0.4l0.3,0.3
						c0,0-0.1-0.1-0.2-0.2c0.5,0.5,0,0,0.5,0.5c-0.6-0.6,0,0-0.7-0.7c0,0,0.4,0.4,0.4,0.4l-0.2-0.2l0.2,0.2c0,0-0.3-0.3-0.4-0.4
						C666.9,409.6,666.9,409.6,666.8,409.6C666.6,409.3,666.9,409.6,666.8,409.6l0.2,0.1c0.2,0.2-0.1-0.1,0.3,0.3l0.1,0.1
						c0.3,0.3-0.2-0.2,0,0l0,0c0.1,0.1,0.2,0.2,0.2,0.2c-0.2-0.2-0.3-0.3-0.5-0.5c0.3,0.3,0.2,0.2,0.8,0.8l-0.2-0.2
						c0.2,0.2,0.3,0.3,0.4,0.4c-0.2-0.2-0.4-0.4-0.6-0.6c-0.5-0.5,0.5,0.5-0.2-0.2c0.7,0.7,0.4,0.4,0.5,0.5c0.2,0.2,0.5,0.5,0.4,0.4
						c0,0-0.9-0.9-0.8-0.8c0,0,0,0,0,0c-0.2-0.2,0.2,0.2,0,0c0.4,0.4,0,0,0.5,0.5l-0.1-0.1c0.1,0.1,0.7,0.7,0.4,0.4
						c-0.1-0.1-0.2-0.2-0.3-0.3c-0.2-0.2,0.1,0.1-0.1-0.1c-0.5-0.5-0.1-0.1-0.5-0.5C666.8,409.6,667.4,410.1,666.8,409.6
						c0.8,0.7,0-0.1,0.5,0.5l-0.3-0.3c0,0,0.2,0.2,0.2,0.2L666.8,409.6c0.3,0.3-0.3-0.4-0.1-0.2c0,0,0.4,0.4,0.6,0.6
						c0.4,0.4-0.8-0.8-0.7-0.7c0,0,0.2,0.2,0.3,0.3c-0.1-0.1-0.2-0.2-0.3-0.3c0.1,0.1,0.3,0.3,0.5,0.5c-0.4-0.4,0.2,0.2,0.3,0.3
						l-0.3-0.3c-0.2-0.2,0.7,0.7,0.4,0.4l-0.4-0.4l0.1,0.1L666.8,409.6C667,409.8,667,409.7,666.8,409.6c0.3,0.3,0.6,0.6,0.7,0.6
						c-0.2-0.2-0.3-0.3-0.3-0.3c-0.2-0.2-0.4-0.4-0.2-0.2C666.9,409.7,666.8,409.6,666.8,409.6c-0.3-0.3-0.1-0.1-0.1-0.1
						C666.7,409.5,666.7,409.5,666.8,409.6l0.4,0.4C667.1,409.8,667,409.8,666.8,409.6c0.1,0.1,0.3,0.3,0.3,0.3
						c-0.3-0.3-0.5-0.5-0.6-0.6L666.8,409.6c-0.2-0.2-0.4-0.4-0.5-0.5c-0.2-0.1,0.5,0.5,0.3,0.3
						C666.7,409.5,666.7,409.5,666.8,409.6C666.7,409.5,666.4,409.2,666.8,409.6l-0.5-0.5c0.1,0.1,0.6,0.6,0.8,0.8
						c0.1,0.1-0.4-0.4-0.5-0.5C666.7,409.5,667.2,410,666.8,409.6C666.7,409.5,666.8,409.6,666.8,409.6z M667,409.8
						C666.9,409.7,666.7,409.5,667,409.8C667.3,410.1,667.1,409.9,667,409.8z M667.7,410.6C667.6,410.5,667.7,410.5,667.7,410.6
						C667.8,410.7,667.8,410.6,667.7,410.6z M669.9,412.8C669.9,412.8,669.9,412.8,669.9,412.8C670,412.9,669.9,412.8,669.9,412.8z
						 M669.7,412.7c0,0,0.1,0.1,0.1,0.1C669.8,412.7,669.8,412.7,669.7,412.7C669.7,412.6,669.7,412.6,669.7,412.7z M669.7,412.4
						L669.7,412.4C669.5,412.3,669.6,412.4,669.7,412.4z"/>
					<path class="st0" d="M667.3,410.1c0.1,0.1,0.1,0.1,0.2,0.2C667.4,410.2,667.4,410.2,667.3,410.1z"/>
					<path class="st0" d="M666.6,409.4C666.6,409.4,666.6,409.4,666.6,409.4C666.6,409.4,666.6,409.4,666.6,409.4L666.6,409.4z"/>
					<path class="st0" d="M667.1,410c0,0,0.1,0.1,0.2,0.2C667.2,410.1,667.1,410,667.1,410z"/>
					<path class="st0" d="M670.3,413.2L670.3,413.2c-0.1-0.1-0.1-0.1-0.2-0.2C670.2,413.1,670.3,413.2,670.3,413.2z"/>
					<path class="st0" d="M668.3,411.2C668.4,411.3,668.3,411.3,668.3,411.2l0.2,0.2C668.5,411.4,668.4,411.3,668.3,411.2z"/>
					<path class="st0" d="M669.2,412.1c-0.3-0.3-0.2-0.2-0.1-0.1c0,0,0,0,0,0C669.5,412.4,669.4,412.3,669.2,412.1z"/>
					<path class="st0" d="M669.1,412C669.1,412,669.1,412,669.1,412C669.3,412.2,669.2,412.1,669.1,412z"/>
					<path class="st0" d="M669.9,412.8c-0.1-0.1,0.3,0.3,0.2,0.2C670.5,413.4,669.7,412.7,669.9,412.8z"/>
					<polygon class="st0" points="668.4,411.3 668.7,411.6 668.4,411.3 					"/>
					<path class="st0" d="M668.6,411.5L668.6,411.5C668.6,411.5,668.6,411.5,668.6,411.5C668.6,411.5,668.7,411.6,668.6,411.5z"/>
					<path class="st0" d="M668.6,411.5C668.6,411.5,668.6,411.5,668.6,411.5C668.7,411.6,668.7,411.6,668.6,411.5z"/>
					<polygon class="st0" points="668.3,411.2 668.3,411.2 668.4,411.3 					"/>
					<path class="st0" d="M668.7,411.6L668.7,411.6c-0.2-0.2-0.3-0.3-0.2-0.2C668.5,411.4,668.6,411.5,668.7,411.6z"/>
					<path class="st0" d="M667.8,410.7c0.1,0.1,0.1,0.1,0.2,0.2l-0.4-0.4L667.8,410.7z"/>
					<path class="st0" d="M667.7,410.6c-0.1-0.1-0.3-0.3-0.3-0.3C667.5,410.4,667.6,410.5,667.7,410.6z"/>
					<polygon class="st0" points="668.2,411.1 668.2,411.1 668.9,411.8 					"/>
					<path class="st0" d="M666.6,409.5c-0.2-0.2,0.4,0.4,0.2,0.2c0.2,0.2,0.2,0.2,0.3,0.3C667,409.8,667.1,409.9,666.6,409.5z"/>
					<path class="st0" d="M667.1,410c0,0,0.1,0.1,0.1,0.1C667.2,410.1,667.2,410,667.1,410z"/>
					<polygon class="st0" points="670.1,412.8 670.2,412.9 670,412.7 					"/>
					<path class="st0" d="M669.6,412.3l0.4,0.4L669.6,412.3C669.6,412.3,669.7,412.4,669.6,412.3z"/>
					<path class="st0" d="M666.1,408.9l0.1,0.1c0.1,0.1,0.1,0.1,0.1,0.1L666.1,408.9z"/>
					<polygon class="st0" points="666.4,409.2 666.4,409.2 666.8,409.6 					"/>
					<path class="st0" d="M666,408.8C665.9,408.7,666,408.8,666,408.8C665.9,408.7,666.4,409.2,666,408.8z"/>
				</g>
				<g>
					<path class="st28" d="M731.5,337.9c-13,13-20.1,30.2-20.1,48.6c0,18.4,7.1,35.6,20.1,48.6c13,13,30.2,20.1,48.6,20.1
						s35.6-7.1,48.6-20.1c13-13,20.1-30.2,20.1-48.6c0-18.4-7.1-35.6-20.1-48.6c-13-13-30.2-20.1-48.6-20.1S744.5,324.9,731.5,337.9
						z M732.8,498.4c-14.5-6.1-27.5-14.9-38.6-26c-11.1-11.1-19.9-24.1-26-38.6c-6.3-15-9.6-30.9-9.6-47.3c0-16.4,3.2-32.3,9.6-47.3
						c6.1-14.5,14.9-27.5,26-38.6c11.1-11.1,24.1-19.9,38.6-26c15-6.3,30.9-9.6,47.3-9.6s32.3,3.2,47.3,9.6
						c14.5,6.1,27.5,14.9,38.6,26c11.1,11.1,19.9,24.1,26,38.6c6.3,15,9.6,30.9,9.6,47.3c0,16.4-3.2,32.3-9.6,47.3
						c-6.1,14.5-14.9,27.5-26,38.6c-11.1,11.1-24.1,19.9-38.6,26c-15,6.3-30.9,9.6-47.3,9.6S747.8,504.7,732.8,498.4z"/>
				</g>
				<g>
					<g>
						<path class="st10" d="M656.3,377.9c0.5-8.1,1.8-16.2,4-24.1l56,15.2c-1,4.3-1.7,9-2,14.1c-0.4,6.4,0.1,12.6,1.4,18.3
							l-55.7,14.5C656.7,403.5,655.5,390.7,656.3,377.9z"/>
					</g>
					<g>
						<path class="st10" d="M904.8,378c-0.5-8.1-1.8-16.2-3.9-24.1l-56,15c1,4.3,1.6,9,1.9,14.1c0.4,6.4-0.2,12.6-1.4,18.3
							l55.7,14.6C904.3,403.6,905.5,390.8,904.8,378z"/>
					</g>
					<g>
						<path class="st10" d="M783.5,261.6c8.2,0.2,16.3,1.2,24.2,3.1l-13.1,56.5c-4.3-0.8-9-1.3-14.1-1.5c-6.4-0.2-12.6,0.6-18.3,2.1
							l-16.5-55.1C757.9,262.9,770.7,261.2,783.5,261.6z"/>
					</g>
					<g>
						<path class="st10" d="M793.3,509.6c8.1-0.7,16.2-2.2,24-4.6l-0.8-2.7l-15.1-50.5l-0.7-2.4c-4.2,1.1-8.9,1.9-14,2.3
							c-6.4,0.6-12.6,0.2-18.3-0.9l-13.1,56C767.7,509.8,780.5,510.7,793.3,509.6z"/>
					</g>
				</g>
				<path class="st29" d="M713.1,402.1l-51.1,13.3c0,0,1.5,6.1,2.8,9.6L713.1,402.1z"/>
				<path class="st29" d="M801.4,451.9l15.1,50.5c0,0,6.1-2.1,7.3-2.6C825,499.4,801.4,451.9,801.4,451.9z"/>
				<path class="st29" d="M846.4,368.5l50.9-13.7c0,0-1.9-6.2-1.9-6.4C895.4,348.3,846.4,368.5,846.4,368.5z"/>
				<path class="st29" d="M761.4,320.1l-14.8-50.4c0,0-5.4,1.6-8,2.6L761.4,320.1z"/>
			</g>
		</g>
	</g>
	<g>
		<g>
			<path class="st30" d="M327.8,228l-12.3,8.7c-1.8,1.3-2.4,3.7-1.2,5.5l2.3,3.6c1.1,1.8,3.5,2.3,5.4,1.2l13.3-7.5
				c1.3-0.8,2.2-2.2,2.2-3.7c-0.1-4.2-3-6.8-5.2-8.1C331,226.9,329.2,227,327.8,228z"/>
			<path class="st31" d="M322.9,231.9l-0.3,14.8l13.8-7.9c0,0-8.7,4.5-12.4-7.7L322.9,231.9z"/>
			<path class="st32" d="M330.2,231.6c1.9,2.3,3.4,5.1,4.2,7.9c0,0.1,0,0.2,0.1,0.3l1.3-0.7c1.3-0.7,2-2,2-3.5
				c-0.2-4.1-3.1-6.7-5.2-8.1c-1.3-0.8-3-0.8-4.3,0.1l-1,0.7C328.3,229.5,329.3,230.6,330.2,231.6z"/>
		</g>
		<g>
			<path class="st30" d="M328.3,261l-12.3,8.7c-1.8,1.3-2.4,3.7-1.2,5.5l2.3,3.6c1.1,1.8,3.5,2.3,5.4,1.2l13.3-7.5
				c1.3-0.8,2.2-2.2,2.2-3.7c-0.1-4.2-3-6.8-5.2-8.1C331.4,259.9,329.6,260.1,328.3,261z"/>
			<path class="st32" d="M331.2,264.2c1.9,2.3,3.4,5.1,4.2,7.9c0,0.1,0,0.2,0.1,0.3l1.3-0.7c1.3-0.7,2-2,2-3.5
				c-0.2-4.1-3.1-6.7-5.2-8.1c-1.3-0.8-3-0.8-4.3,0.1l-1,0.7C329.4,262.1,330.4,263.2,331.2,264.2z"/>
			<path class="st31" d="M323.2,264.8l-0.3,14.8l13.8-7.9c0,0-8.7,4.5-12.4-7.7L323.2,264.8z"/>
		</g>
		<path class="st33" d="M358.5,162.5l6-13.3c2.5-5.6-1.7-11.6-7.8-11.2l-14.3,1c-18.1,1.2-34.8,7.5-48.3,17.8l-117.8,96L157,279
			l8.7,12.2l31-9.7L326.2,201C340,191.9,351.3,178.6,358.5,162.5z"/>
		<polygon class="st33" points="323.8,199.1 324,327.5 303.7,341 268.5,220.1 322.6,196.8 		"/>
		<path class="st34" d="M331.3,148.3c0,0,12.4,8,14.7,20.8l6.9-4.9c0,0-3-15.7-15.5-20.3L331.3,148.3z"/>
		<path class="st29" d="M323.8,202.5c-1.2,0.6-51.1,31.8-51.1,31.8l2.4,8.2l48.7-36.5L323.8,202.5z"/>
		<g>
			<g>
				<path class="st30" d="M270.3,145l-12.3,8.7c-1.8,1.3-4.3,1-5.6-0.6l-2.6-3.3c-1.3-1.6-1-4.1,0.7-5.5l11.6-10.1
					c1.2-1,2.8-1.4,4.2-0.9c4,1.5,5.4,5.1,5.9,7.6C272.4,142.4,271.7,144,270.3,145z"/>
				<path class="st31" d="M265,148.4l-14.1-4.6l12-10.4c0,0-7.1,6.7,3.1,14.2L265,148.4z"/>
				<path class="st32" d="M267.6,141.6c-1.6-2.5-3.6-4.9-6.1-6.6c-0.1-0.1-0.2-0.1-0.3-0.2l1.1-1c1.1-0.9,2.6-1.2,3.9-0.7
					c3.8,1.6,5.3,5.1,5.9,7.6c0.3,1.5-0.3,3.1-1.5,4l-1,0.7C269,144.1,268.3,142.7,267.6,141.6z"/>
			</g>
			<g>
				<path class="st30" d="M239.3,133.6l-12.3,8.7c-1.8,1.3-4.3,1-5.6-0.6l-2.6-3.3c-1.3-1.6-1-4.1,0.7-5.5l11.6-10.1
					c1.2-1,2.8-1.4,4.2-0.9c4,1.5,5.4,5.1,5.9,7.6C241.3,131,240.6,132.6,239.3,133.6z"/>
				<path class="st32" d="M237.2,129.7c-1.6-2.5-3.6-4.9-6.1-6.6c-0.1-0.1-0.2-0.1-0.3-0.2l1.1-1c1.1-0.9,2.6-1.2,3.9-0.7
					c3.8,1.6,5.3,5.1,5.9,7.6c0.3,1.5-0.3,3.1-1.5,4l-1,0.7C238.7,132.2,237.9,130.9,237.2,129.7z"/>
				<path class="st31" d="M234,137.2l-14.1-4.6l12-10.4c0,0-7.1,6.7,3.1,14.2L234,137.2z"/>
			</g>
			<polygon class="st33" points="296.2,158.4 175.2,115.6 155.7,130.2 258.1,203.6 298,160.3 			"/>
			<path class="st29" d="M293,157.3c-1,1-47,37.6-47,37.6l-6.9-4.9l50.6-33.9L293,157.3z"/>
		</g>
		<polygon class="st33" points="186.7,331 176.2,275.4 175.5,274.4 126.5,246 116.7,252.9 152,291.7 176.9,337.9 		"/>
	</g>
	<g>
		<path class="st33" d="M975.7,652.2l-14.2-13.5l-0.4,0c-0.8-1.7-1.6-3.3-2.4-5c-4.3-8.8-8.6-17.6-12.9-26.4
			c-3.8-7.7-7.2-21-17.7-21c0,0-99.3,0-99.3,0c-11,0-21.1,6.7-25.8,17.2l-16.5,36.5l-1.7,0l-33.3,10.5
			c-11.7,5.7-19.1,17.6-19.1,30.6l0,19.5l252.2-0.1l0-27.8C984.7,665,981.4,657.6,975.7,652.2z"/>
		<path class="st35" d="M878.7,635.9l66.3,0l-15.1-37.1c-0.7-1.8-2.5-3-4.4-3l-46.8,0L878.7,635.9z"/>
		<path class="st35" d="M867.4,595.8l-38,0c-8,0-15.4,4.9-18.8,12.5l-12.4,27.6l69.2,0L867.4,595.8z"/>
		<g class="st36">
			<path class="st10" d="M931.8,607.8c0.9,0.5,1.8,0.9,2.6,1.4l-4.1-10.1c-0.7-1.8-2.5-3-4.4-3l-16.2,0
				C917,600,924.4,603.9,931.8,607.8z"/>
			<path class="st10" d="M933.1,616.6c-12.2-6.6-25-14-37-20.8l-15.2,0.2c10.4,8.9,23.6,16.9,35.3,24.1c7,4.3,14.2,8.4,21.5,12.1
				c2.4,1.2,4.9,2.3,7.4,3.5l-6.5-16C936.7,618.6,934.9,617.6,933.1,616.6z"/>
			<path class="st10" d="M855.5,619.8c-5.1-3.3-10.4-6.4-15.8-9.3c-5.4-3-10.9-6-16.5-8.4c-1.9-0.8-3.8-1.6-5.6-2.3
				c-2.9,2.1-5.3,5.1-6.9,8.6l-0.1,0.3c5.7,4,11.5,8,17.2,12c8.4,6,17.7,10.5,26.8,15.3l12.9,0l0-7.3
				C863.4,625.7,859.6,622.5,855.5,619.8z"/>
		</g>
		<g>
			<path class="st23" d="M827.9,700.7c0.2-1.1,0.3-2.3,0.3-3.5c0-11.7-11.2-21.1-24.9-21.1c-5.4,0-10.3,1.5-14.4,3.9
				c8.5,1.8,16,6,22.1,11.6c3.1,2.8,5.5,5.9,7.4,9.1L827.9,700.7z"/>
		</g>
		<g>
			<path class="st23" d="M958.5,700.7c0.2-1.1,0.3-2.3,0.3-3.5c0-11.7-10.9-21.1-24.3-21.1c-5.2,0-10.1,1.5-14.1,3.9
				c8.3,1.8,15.6,6,21.6,11.6c3,2.8,5.4,5.9,7.2,9.1L958.5,700.7z"/>
		</g>
		<g>
			
				<ellipse transform="matrix(0.1076 -0.9942 0.9942 0.1076 18.0835 1416.7092)" class="st37" cx="798.2" cy="698.3" rx="22.2" ry="22.2"/>
			<g>
				<g>
					
						<ellipse transform="matrix(0.9148 -0.404 0.404 0.9148 -214.0685 381.9973)" class="st10" cx="798.2" cy="698.3" rx="12.6" ry="12.6"/>
				</g>
				<path class="st23" d="M800.4,707c2.4-0.2,4.8-1,6.5-2.7c-0.7,2.2-2.6,4-4.9,4.6c-0.8,0.2-1.5,0.3-2.3,0.3
					c-0.8,0.1-1.7,0.1-2.5,0c-2.2-0.3-4.3-1.7-5.3-3.7c0.4,0.6,2.8,1.1,3.4,1.2C797,707,798.7,707.2,800.4,707z"/>
			</g>
		</g>
		<g>
			
				<ellipse transform="matrix(0.1638 -0.9865 0.9865 0.1638 88.1846 1500.5342)" class="st37" cx="929.2" cy="698.2" rx="22.2" ry="22.2"/>
			<g>
				<g>
					<circle class="st10" cx="929.2" cy="698.2" r="12.6"/>
				</g>
				<path class="st23" d="M931.4,707c2.4-0.2,4.8-1,6.5-2.7c-0.7,2.2-2.6,4-4.9,4.6c-0.8,0.2-1.5,0.3-2.3,0.3
					c-0.8,0.1-1.7,0.1-2.5,0c-2.2-0.3-4.3-1.7-5.4-3.7c0.4,0.6,2.8,1.1,3.4,1.2C928,707,929.7,707.1,931.4,707z"/>
			</g>
		</g>
	</g>
	<path class="st23" d="M859.1,652.4l-6.9,0c-1.4,0-2.6-1.2-2.6-2.6l0,0c0-1.4,1.2-2.6,2.6-2.6l6.9,0c1.4,0,2.6,1.2,2.6,2.6l0,0
		C861.7,651.3,860.6,652.4,859.1,652.4z"/>
	<g>
		<path class="st13" d="M509.2,323.9c0.4,0,0.9,0,1.2-0.2c0.5-0.3,0.7-0.9,0.8-1.5c0.6-4.3-1.7-8.4-4.3-11.8
			c-2.6-3.5-5.6-6.9-9.6-8.7c-5.6-2.6-12.6-1.6-17.5,2.2c-2.9,2.3-5.4,5.9-6.2,9.5c-1.1,5.7,0.4,5.3,5.4,6.1
			C489,321,499.1,323.8,509.2,323.9z"/>
		<g>
			<g>
				<g>
					<path class="st12" d="M504.1,310.1c0.3,0.4,0.5,0.7,0.8,1.1c0.7,1.3,1.5,3.3,1.4,4.9c0,0-1.1,4.9-1.7,3.3l-1.3-3.4l-4.5,10.1
						l-7.8,4.3l-10.1-4.9c0,0-4.7-10.8-4.7-10.8c3.7-5.7,6.5-12.5,14.2-11.6c2.3,0.3,4.4,1.2,6.5,2.2
						C499.5,306.5,502.3,307.9,504.1,310.1z"/>
				</g>
			</g>
		</g>
	</g>
</g>
</svg>
